<svg xmlns="http://www.w3.org/2000/svg" viewBox="0 0 100 100"><title>Untitled-1 [Recovered]</title><g fill="#FFF" id="Bit_Bucket" data-name="Bit Bucket"><path d="M50,5h0C28.55,5,10.94,10.74,10.94,18c0,1.91,4.6,29.11,6.51,39.83.77,5,13.4,11.87,32.55,11.87h0c19.15,0,31.4-6.89,32.55-11.87C84.47,47.13,89.06,19.94,89.06,18,88.68,10.74,71.45,5,50,5Zm0,55.91A12.26,12.26,0,1,1,62.26,48.66,12.34,12.34,0,0,1,50,60.91Zm0-39.06c-13.79,0-24.89-2.3-24.89-5.36S36.21,11.13,50,11.13s24.89,2.3,24.89,5.36S63.79,21.85,50,21.85Z"/><path d="M78,68.19a1.68,1.68,0,0,0-1.15.38S67.23,76.23,50,76.23s-26.81-7.66-26.81-7.66A3.86,3.86,0,0,0,22,68.19a1.4,1.4,0,0,0-1.53,1.53v.38c1.53,8,2.68,13.79,2.68,14.55C24.34,90.4,35.83,95,49.62,95h0C63.4,95,74.89,90.4,76,84.66c0-.77,1.15-6.51,2.68-14.55v-.38C79.11,69,78.72,68.19,78,68.19Z"/><circle cx="50" cy="48.28" r="6.13"/></g></svg>