<?xml version="1.0" encoding="UTF-8" standalone="no"?>
<!-- Generator: Adobe Illustrator 20.1.0, SVG Export Plug-In . SVG Version: 6.00 Build 0)  -->

<svg
   xmlns:dc="http://purl.org/dc/elements/1.1/"
   xmlns:cc="http://creativecommons.org/ns#"
   xmlns:rdf="http://www.w3.org/1999/02/22-rdf-syntax-ns#"
   xmlns:svg="http://www.w3.org/2000/svg"
   xmlns="http://www.w3.org/2000/svg"
   xmlns:sodipodi="http://sodipodi.sourceforge.net/DTD/sodipodi-0.dtd"
   xmlns:inkscape="http://www.inkscape.org/namespaces/inkscape"
   version="1.1"
   id="Layer_1"
   x="0px"
   y="0px"
   viewBox="0 0 32 32"
   style="enable-background:new 0 0 32 32;"
   xml:space="preserve"
   sodipodi:docname="icon-collapse.svg"
   inkscape:version="0.92.1 r15371"><metadata
     id="metadata4550"><rdf:RDF><cc:Work
         rdf:about=""><dc:format>image/svg+xml</dc:format><dc:type
           rdf:resource="http://purl.org/dc/dcmitype/StillImage" /></cc:Work></rdf:RDF></metadata><defs
     id="defs4548" /><sodipodi:namedview
     pagecolor="#ffffff"
     bordercolor="#666666"
     borderopacity="1"
     objecttolerance="10"
     gridtolerance="10"
     guidetolerance="10"
     inkscape:pageopacity="0"
     inkscape:pageshadow="2"
     inkscape:window-width="1920"
     inkscape:window-height="1147"
     id="namedview4546"
     showgrid="false"
     inkscape:zoom="7.375"
     inkscape:cx="16"
     inkscape:cy="16"
     inkscape:window-x="1912"
     inkscape:window-y="-8"
     inkscape:window-maximized="1"
     inkscape:current-layer="Layer_1" /><polygon
     points="10.6,8.7 10.7,2.7 13.1,5.1 12.9,13.3 4.7,13.6 2.3,11.1 8.3,11 0.4,3.1 2.7,0.8 "
     id="polygon4537"
     style="fill:#539cf6;fill-opacity:1" /><polygon
     points="8.3,21.2 2.3,21.1 4.7,18.7 12.9,18.9 13.2,27.1 10.7,29.5 10.6,23.5 2.7,31.4 0.4,29.1 "
     id="polygon4539"
     style="fill:#539cf6;fill-opacity:1" /><polygon
     points="21.6,23.4 21.4,29.5 19,27.1 19.3,18.9 27.5,18.5 29.9,21 23.8,21.1 31.8,29.1 29.5,31.3 "
     id="polygon4541"
     style="fill:#539cf6;fill-opacity:1" /><polygon
     points="23.8,10.9 29.9,11.1 27.5,13.5 19.3,13.2 19,5.1 21.4,2.6 21.6,8.7 29.5,0.7 31.8,3 "
     id="polygon4543"
     style="fill:#539cf6;fill-opacity:1" /></svg>