<svg xmlns="http://www.w3.org/2000/svg" viewBox="0 0 100 100"><path fill="#FFF" d="M94.2 45c0-5.7-4.6-10.3-10.2-10.3-.4 0-.8 0-1.2.1.6-2.3 1-4.8 1-7.3 0-12.3-8-22.7-19-26.2-.3-.1-.6-.2-.9-.2-.5-.1-1-.3-1.5-.4-.3-.1-.6-.1-.9-.2-.5-.1-1.1-.2-1.6-.3-.3 0-.5-.1-.8-.1-1 0-1.8-.1-2.7-.1-12 0-22.2 7.9-25.8 18.8-1.9-.7-3.9-1-6.1-1-10.3 0-18.6 8.4-18.6 18.8 0 5.2 2.1 9.9 5.5 13.3 3.4 3.4 8 5.5 13.2 5.5h60.3v-.1c5.1-.5 9.3-4.9 9.3-10.3z" /><path fill="#2FB9F0" d="M47.7 82.3L40.4 61l-7.3 21.3c-1.6 4.6-4 10.6 0 14.7 4 4 10.6 4 14.7 0 4-4.1 1.8-8.7-.1-14.7z" /></svg>