<?xml version="1.0" encoding="utf-8"?>
<!-- Generator: Adobe Illustrator 23.0.1, SVG Export Plug-In . SVG Version: 6.00 Build 0)  -->
<svg version="1.1" id="Layer_1" xmlns="http://www.w3.org/2000/svg" xmlns:xlink="http://www.w3.org/1999/xlink" x="0px" y="0px"
	 viewBox="0 0 40 40" style="enable-background:new 0 0 40 40;" xml:space="preserve">
<style type="text/css">
	.st0{fill:#FFFFFF;stroke:#2B79DA;stroke-miterlimit:10;}
	.st1{fill:#2B79DA;}
</style>
<g>
	<path class="st0" d="M0.6,29.7h2.9v6.8h6.8v2.9H0.6V29.7z"/>
	<path class="st0" d="M0.6,11.9v8.9l5.7,5.8l2.4-2.6l7.3,7.3l-2.4,2.4l5.7,5.7h8.9c0.9,0,1.6-0.7,1.6-1.6v-13L15.1,10.3h-13
		C1.3,10.3,0.6,11,0.6,11.9z"/>
	<path class="st0" d="M6.6,23C20,3.8,16.8,0.6,39.4,0.6c0,22.7-3.2,19.4-22.4,32.8L6.6,23z"/>
	<path class="st0" d="M8.6,29L21,16.6l2.4,2.4L11,31.4L8.6,29z"/>
	<path class="st1" d="M29.7,15.1c2.7,0,4.9-2.2,4.9-4.9c0-2.7-2.2-4.9-4.9-4.9c-2.7,0-4.9,2.2-4.9,4.9C24.9,13,27,15.1,29.7,15.1z"
		/>
</g>
</svg>
