<?xml version="1.0" encoding="utf-8"?>
<!DOCTYPE svg PUBLIC "-//W3C//DTD SVG 1.1//EN" "http://www.w3.org/Graphics/SVG/1.1/DTD/svg11.dtd">
<svg viewBox="0 0 40 40" xmlns="http://www.w3.org/2000/svg"
	  enable-background="new 0 0 40 40" xml:space="preserve">
  <g>
 <path fill="#59b4d9" d="M1.1920928955078125e-7,30.000001907348633 H3.0000001192092896 V37.00004190734863 H9.99999011920929 L9.99999011920929,40.00000190734863 H1.1920928955078125e-7 V30.000001907348633 z"  />
  <path d="M1.1920928955078125e-7,11.666671907348633 V20.833301907348634 L5.83333011920929,26.839801907348633 L8.33333011920929,24.16670190734863 L15.833300119209289,31.66670190734863 L13.333300119209289,34.16670190734863 L19.16670011920929,40.00000190734863 H28.33330011920929 C29.253800119209288,40.00000190734863 30.00000011920929,39.25380190734863 30.00000011920929,38.333301907348634 V25.000001907348633 L15.00000011920929,10.000001907348633 H1.66667011920929 C0.7461921192092897,10.000001907348633 1.1920928955078125e-7,10.746193907348633 1.1920928955078125e-7,11.666671907348633 z" fill="#00188f"  />
  <path d="M6.2500001192092896,23.09220190734863 C20.00000011920929,3.333351907348633 16.66670011920929,0.0000019073486328125 40.00000011920929,0.0000019073486328125 C40.00000011920929,23.333501907348634 36.66660011920929,20.000101907348633 16.907900119209287,33.75020190734863 L6.2500001192092896,23.09220190734863 z" fill="#00188f"  />
  <path d="M6.2500001192092896,23.09220190734863 C19.302600119209288,4.335441907348633 16.96080011920929,0.380357907348633 36.64990011920929,0.02743090734863282 C38.49060011920929,-0.00556282265136719 40.00550011920929,1.5093919073486328 39.972500119209286,3.350051907348633 C39.61960011920929,23.039301907348634 35.66460011920929,20.697401907348635 16.907900119209287,33.75020190734863 L6.2500001192092896,23.09220190734863 z" fill="#0072c6" />
  <path d="M8.313289761543274,29.222202737426755 L21.038289761543275,16.497102737426758 L23.502489761543274,18.961252737426758 L10.777449761543274,31.686302737426757 L8.313289761543274,29.222202737426755 z" fill="#59b4d9"  />
  <path d="M12.811070105476379,29.652602737426758 L10.34690010547638,27.188402737426756 L21.038400105476377,16.497102737426758 L23.50250010547638,18.961292737426756 L12.811070105476379,29.652602737426758 z" fill="#59b4d9"  />
  <path d="M30.00000011920929,15.000101907348633 C32.76142011920929,15.000101907348633 34.999990119209286,12.761461907348632 34.999990119209286,10.000031907348632 C34.999990119209286,7.238591907348633 32.76142011920929,5.000001907348633 30.00000011920929,5.000001907348633 C27.23857011920929,5.000001907348633 25.00000011920929,7.238591907348633 25.00000011920929,10.000031907348632 C25.00000011920929,12.761461907348632 27.23857011920929,15.000101907348633 30.00000011920929,15.000101907348633 z" fill="#59b4d9" />
  </g>
</svg>