<svg xmlns="http://www.w3.org/2000/svg" xmlns:xlink="http://www.w3.org/1999/xlink" viewBox="0 0 100 100" role="img" aria-labeledby="bitbucket-logo-title-svg" role="img"><title id="bitbucket-logo-title-svg">Bitbucket Logo</title><defs><linearGradient id="linear-gradient" x1="5.55" y1="-115.35" x2="3.31" y2="-117.4" gradientTransform="matrix(18.85, 0, 0, -14.38, -9.95, -1610.83)" gradientUnits="userSpaceOnUse"><stop offset="0.07" stop-color="#fff" stop-opacity="0.4"/><stop offset="1" stop-color="#fff"/></linearGradient></defs><title>Artboard 1 copy 7</title><g id="Bit_Bucket" data-name="Bit Bucket"><polygon points="40.65 63.62 59.46 63.62 64.01 36.35 35.64 36.35 40.65 63.62" style="fill:none"/><path d="M91.07,36.35H64L59.46,63.62H40.72L18.59,90.67a3.83,3.83,0,0,0,2.52,1H79.85a2.9,2.9,0,0,0,2.88-2.49Z" style="fill:url(#linear-gradient)"/><path d="M7.92,8.35a2.84,2.84,0,0,0-2.22,1A3,3,0,0,0,5,11.79L17.28,88.27a4,4,0,0,0,1.31,2.39h0a3.88,3.88,0,0,0,2.52,1l22.72-28H40.65l-5-27.27H91.07L95,11.82a3.05,3.05,0,0,0-.64-2.42,2.84,2.84,0,0,0-2.2-1.05Z" style="fill:#fff"/></g></svg>