<?xml version="1.0" encoding="utf-8"?>
<!-- Generator: Adobe Illustrator 16.0.0, SVG Export Plug-In . SVG Version: 6.00 Build 0)  -->
<!DOCTYPE svg PUBLIC "-//W3C//DTD SVG 1.0//EN" "http://www.w3.org/TR/2001/REC-SVG-20010904/DTD/svg10.dtd">
<svg version="1.0" id="Layer_1" xmlns="http://www.w3.org/2000/svg" xmlns:xlink="http://www.w3.org/1999/xlink" x="0px" y="0px"
	 width="52px" height="60px" viewBox="0 0 52 60" enable-background="new 0 0 52 60" xml:space="preserve" class="svg-monochromatic" >
<g>
	<path d="M46.843,21.686H51v37.472H1V21.686h4.157v20.786h41.686V21.686z M17.686,38.314H9.314V30h8.371V38.314z M21.843,55v-8.371
		h-8.314V55H21.843z M36.25,16.39l-2.904-2.961l-5.239,5.296L28.05,0.843h-4.101l-0.057,17.882l-5.296-5.296l-2.961,2.961L26,26.697
		L36.25,16.39z M30.157,30h-8.314v8.314h8.314V30z M38.472,55v-8.371h-8.314V55H38.472z M42.686,38.314V30h-8.371v8.314H42.686z"/>
</g>
</svg>
