<?xml version="1.0" encoding="utf-8"?>
<!-- Generator: Adobe Illustrator 16.0.0, SVG Export Plug-In . SVG Version: 6.00 Build 0)  -->
<!DOCTYPE svg PUBLIC "-//W3C//DTD SVG 1.0//EN" "http://www.w3.org/TR/2001/REC-SVG-20010904/DTD/svg10.dtd">
<svg version="1.0" id="Layer_1" xmlns="http://www.w3.org/2000/svg" xmlns:xlink="http://www.w3.org/1999/xlink" x="0px" y="0px" role="img"
	viewBox="0 0 10 10" enable-background="new 0 0 10 10" xml:space="preserve" class="svg-monochromatic" role="img" aria-labeledby="cd-commit-svg-title">
	<title id="cd-commit-svg-title">Commit</title>
<g>
	<path d="M7.176,5.753C7.084,5.987,6.959,6.196,6.8,6.382C6.64,6.567,6.451,6.725,6.233,6.851
		C6.015,6.978,5.779,7.064,5.525,7.109V10H4.813V7.109c-0.254-0.045-0.49-0.132-0.708-0.259C3.886,6.725,3.698,6.567,3.538,6.382
		S3.253,5.987,3.162,5.753C3.071,5.518,3.025,5.268,3.025,5s0.045-0.518,0.137-0.752c0.091-0.234,0.216-0.446,0.376-0.635
		s0.348-0.345,0.566-0.469c0.218-0.124,0.454-0.208,0.708-0.254V0h0.713v2.891c0.254,0.045,0.489,0.13,0.708,0.254
		C6.451,3.269,6.64,3.425,6.8,3.614c0.159,0.189,0.284,0.4,0.376,0.635C7.267,4.483,7.313,4.733,7.313,5S7.267,5.518,7.176,5.753z
		 M5.164,6.426c0.397,0,0.735-0.14,1.016-0.42C6.46,5.727,6.6,5.392,6.6,5c0-0.397-0.14-0.734-0.42-1.011S5.561,3.575,5.164,3.575
		c-0.391,0-0.726,0.138-1.006,0.415S3.738,4.604,3.738,5c0,0.391,0.14,0.726,0.42,1.005C4.438,6.286,4.773,6.426,5.164,6.426z"/>
</g>
</svg>
