<?xml version="1.0" encoding="utf-8"?>
<!-- Generator: Adobe Illustrator 16.0.0, SVG Export Plug-In . SVG Version: 6.00 Build 0)  -->
<!DOCTYPE svg PUBLIC "-//W3C//DTD SVG 1.0//EN" "http://www.w3.org/TR/2001/REC-SVG-20010904/DTD/svg10.dtd">
<svg version="1.0" id="Layer_1" xmlns="http://www.w3.org/2000/svg" xmlns:xlink="http://www.w3.org/1999/xlink" x="0px" y="0px"
	 width="52px" height="52px" viewBox="0 0 52 52" enable-background="new 0 0 52 52" xml:space="preserve" class="svg-monochromatic" > 
<g>
	<path d="M35.717,2.977c3.027,1.318,5.672,3.109,7.935,5.371c2.263,2.264,4.053,4.908,5.371,7.936S51,22.549,51,26
		c0,3.449-0.659,6.689-1.978,9.717s-3.108,5.672-5.371,7.934c-2.263,2.264-4.907,4.053-7.935,5.371S29.449,51,26,51
		c-3.451,0-6.689-0.66-9.717-1.979s-5.672-3.107-7.935-5.371c-2.263-2.262-4.053-4.906-5.371-7.934S1,29.449,1,26
		c0-3.451,0.659-6.689,1.978-9.717s3.108-5.672,5.371-7.936c2.262-2.262,4.907-4.053,7.935-5.371S22.549,1,26,1
		C29.449,1,32.689,1.658,35.717,2.977z M5.785,18.871c-0.391,1.105-0.692,2.254-0.903,3.441C4.669,23.502,4.564,24.73,4.564,26
		c0,1.236,0.105,2.457,0.317,3.662c0.211,1.203,0.513,2.359,0.903,3.467h8.105c-0.164-1.141-0.286-2.303-0.366-3.492
		c-0.082-1.188-0.122-2.4-0.122-3.637c0-1.238,0.041-2.459,0.122-3.662c0.081-1.205,0.203-2.361,0.366-3.467H5.785z M18.383,5.98
		c-2.312,0.879-4.403,2.115-6.274,3.711c-1.873,1.594-3.426,3.449-4.663,5.566h7.129c0.456-1.855,1.001-3.564,1.636-5.127
		S17.569,7.184,18.383,5.98z M7.445,36.693c1.237,2.115,2.791,3.979,4.663,5.59c1.872,1.611,3.962,2.857,6.274,3.736
		c-0.814-1.205-1.538-2.596-2.173-4.176c-0.635-1.578-1.18-3.295-1.636-5.15H7.445z M17.504,33.129h16.992
		c0.195-1.107,0.342-2.254,0.439-3.443c0.098-1.188,0.146-2.416,0.146-3.686s-0.049-2.508-0.146-3.711
		c-0.098-1.205-0.244-2.344-0.439-3.418H17.504c-0.195,1.074-0.342,2.213-0.439,3.418c-0.098,1.203-0.146,2.441-0.146,3.711
		s0.049,2.498,0.146,3.686C17.162,30.875,17.309,32.021,17.504,33.129z M21.654,7.445c-1.433,1.92-2.572,4.523-3.418,7.813h15.527
		c-0.848-3.289-1.986-5.893-3.418-7.813C28.912,5.523,27.465,4.564,26,4.564S23.086,5.523,21.654,7.445z M30.346,44.555
		c1.432-1.922,2.57-4.541,3.418-7.861H18.236c0.846,3.32,1.985,5.939,3.418,7.861c1.432,1.92,2.881,2.881,4.346,2.881
		S28.912,46.475,30.346,44.555z M44.555,15.258c-1.238-2.117-2.791-3.973-4.663-5.566c-1.872-1.596-3.964-2.832-6.274-3.711
		c0.813,1.203,1.538,2.588,2.173,4.15s1.179,3.271,1.636,5.127H44.555z M33.617,46.02c2.311-0.879,4.402-2.125,6.274-3.736
		s3.425-3.475,4.663-5.59h-7.129c-0.457,1.855-1.001,3.572-1.636,5.15C35.155,43.424,34.43,44.814,33.617,46.02z M38.476,22.338
		c0.081,1.203,0.122,2.424,0.122,3.662c0,1.236-0.041,2.449-0.122,3.637c-0.081,1.189-0.204,2.352-0.366,3.492h8.105
		c0.391-1.107,0.691-2.264,0.903-3.467c0.212-1.205,0.317-2.426,0.317-3.662c0-1.27-0.105-2.498-0.317-3.688
		c-0.212-1.188-0.513-2.336-0.903-3.441h-8.105C38.271,19.977,38.395,21.133,38.476,22.338z"/>
</g>
</svg>
