<svg xmlns="http://www.w3.org/2000/svg" viewBox="0 0 100 100">
<title>Untitled-1 [Recovered]</title>
<g fill="#FFF" id="External">
<path d="M85.57,0H79.63C72.43,24.55,41.1,43.69,2,47v5.76C44.46,49.29,78.48,27.63,85.57,0Z"/><path d="M81.2,9.27A9.27,9.27,0,0,0,90.47,0H71.93A9.28,9.28,0,0,0,81.2,9.27Zm-10.88,66L54.58,90l-4.9-21Z"/><path d="M60.08,74.72a2.83,2.83,0,0,1-.83-.12A2.88,2.88,0,0,1,57.34,71l1.25-4.13a2.88,2.88,0,1,1,5.5,1.67l-1.25,4.13A2.91,2.91,0,0,1,60.08,74.72Zm5.3-17.51a2.83,2.83,0,0,1-.83-.12,2.88,2.88,0,0,1-1.91-3.59l2.44-8a2.88,2.88,0,1,1,5.5,1.67l-2.44,8A2.89,2.89,0,0,1,65.38,57.21Zm6.49-21.4a2.83,2.83,0,0,1-.83-.12,2.87,2.87,0,0,1-1.91-3.59l2.44-8a2.88,2.88,0,1,1,5.5,1.67l-2.44,8A2.91,2.91,0,0,1,71.87,35.81Zm6.49-21.4a2.83,2.83,0,0,1-.83-.12,2.87,2.87,0,0,1-1.91-3.59l2.44-8a2.88,2.88,0,1,1,5.5,1.67l-2.44,8A2.91,2.91,0,0,1,78.36,14.41Z"/>
</g>
</svg>