<svg width="2048px" height="2048px" viewBox="0 0 2048 2048" xmlns="http://www.w3.org/2000/svg" xmlns:xlink="http://www.w3.org/1999/xlink">
<title>External Git</title>
<g fill="#FFF" id="ExternalGit">
<path transform="translate(0,2048) scale(1,-1)" d= "M1342 1408Q1380 1408 1407 1381L2021 767Q2048 740 2048 702Q2048 665 2021 638L1410 26Q1397 13 1380 6.5Q1363 0 1345 0Q1328 0 1311 6.5Q1294 13 1281 26L667 641Q640 668 640 705Q640 743 667 770L1088 1191L1248 1031Q1239 1011 1239 989Q1239 968 1247.5 948Q1256 928 1271 913Q1278 906 1280.5 906Q1283 906 1291 903L1291 513Q1283 509 1277 503Q1271 497 1265 491Q1246 472 1236.5 453Q1227 434 1227 407Q1227 384 1236 363.5Q1245 343 1260 328Q1275 313 1295.5 304Q1316 295 1339 295Q1363 295 1384 302.5Q1405 310 1420.5 324.5Q1436 339 1445.5 359Q1455 379 1455 403Q1455 432 1437.5 461Q1420 490 1395 504L1395 883L1541 738Q1532 718 1532 696Q1532 674 1540.5 654.5Q1549 635 1564 620Q1579 605 1598.5 596.5Q1618 588 1640 588Q1662 588 1682 596.5Q1702 605 1716.5 619.5Q1731 634 1739.5 653.5Q1748 673 1748 696Q1748 719 1739.5 738.5Q1731 758 1716.5 772.5Q1702 787 1682 795.5Q1662 804 1640 804Q1631 804 1622 803Q1613 802 1605 799L1449 955Q1455 971 1455 990Q1455 1012 1446.5 1032Q1438 1052 1423 1066Q1408 1080 1388.5 1088.5Q1369 1097 1347 1097Q1327 1097 1313 1092L1151 1254L1278 1381Q1305 1408 1342 1408ZM256 1792L256 256L768 256L768 128L128 128L128 1920L1920 1920L1920 1280L1792 1280L1792 1792L256 1792Z"></path>
</g>
</svg>