<svg width="2048px" height="2048px" viewBox="0 0 2048 2048" xmlns="http://www.w3.org/2000/svg" xmlns:xlink="http://www.w3.org/1999/xlink">
<title>GitHub</title>
<g fill="#FFF" id="GitHubLogo">
<path transform="translate(0,2048) scale(1,-1)" d= "M1024 2023Q1165 2023 1296 1986.5Q1427 1950 1540.5 1883Q1654 1816 1747.5 1722.5Q1841 1629 1908 1515.5Q1975 1402 2011.5 1271Q2048 1140 2048 999Q2048 834 1997.5 681Q1947 528 1855 400Q1763 272 1634 175.5Q1505 79 1348 27Q1345 26 1339 25.5Q1333 25 1330 25Q1306 25 1292 39Q1278 53 1278 76Q1278 147 1278.5 216.5Q1279 286 1279 357Q1279 408 1264 460Q1249 512 1210 547Q1326 560 1413.5 594.5Q1501 629 1559.5 690Q1618 751 1647.5 840.5Q1677 930 1677 1052Q1677 1130 1651 1199.5Q1625 1269 1572 1327Q1583 1355 1588 1385Q1593 1415 1593 1445Q1593 1484 1584.5 1522.5Q1576 1561 1562 1598Q1557 1600 1551 1600Q1545 1600 1540 1600Q1508 1600 1473 1589.5Q1438 1579 1403.5 1563.5Q1369 1548 1337 1529Q1305 1510 1280 1493Q1155 1528 1024 1528Q893 1528 768 1493Q743 1510 711 1529Q679 1548 644.5 1563.5Q610 1579 574.5 1589.5Q539 1600 508 1600Q503 1600 497 1600Q491 1600 486 1598Q472 1561 463.5 1522.5Q455 1484 455 1445Q455 1415 460 1385Q465 1355 476 1327Q423 1269 397 1199.5Q371 1130 371 1052Q371 930 400.5 841Q430 752 488.5 690.5Q547 629 634 594Q721 559 837 546Q808 520 792.5 483.5Q777 447 772 409Q745 396 715 389Q685 382 655 382Q591 382 549 412Q507 442 474 494Q462 513 445 532Q428 551 408 566Q388 581 365 590.5Q342 600 317 600Q313 600 305 599.5Q297 599 289.5 597Q282 595 276 591Q270 587 270 581Q270 569 284 557.5Q298 546 307 540L310 538Q332 521 348.5 505.5Q365 490 378 472.5Q391 455 401.5 434.5Q412 414 424 388Q458 310 519.5 274.5Q581 239 666 239Q692 239 718 242.5Q744 246 770 251L770 77Q770 53 755.5 39Q741 25 717 25Q714 25 708.5 25.5Q703 26 700 27Q543 78 414 174.5Q285 271 193 399.5Q101 528 50.5 681Q0 834 0 999Q0 1140 36.5 1271Q73 1402 140 1515.5Q207 1629 300.5 1722.5Q394 1816 507.5 1883Q621 1950 752 1986.5Q883 2023 1024 2023Z"></path>
</g>
</svg>