<svg xmlns="http://www.w3.org/2000/svg" viewBox="0 0 100 100"aria-labeledby="github-logo-svg" role="img">
	<title id="github-logo-svg">Github Logo</title><g fill="#FFF" id="Github"><path d="M50,5A45,45,0,1,0,95,50,45,45,0,0,0,50,5ZM61.9,89.07V81.38a8.75,8.75,0,0,0-4.11-7.25,3.06,3.06,0,0,1,.57-.07,45.6,45.6,0,0,0,8.16-1.89s5.56-1.72,8.56-5.22c3.17-3.71,4-9.2,4-9.2s1-6,0-10.65a17.16,17.16,0,0,0-4.38-7.72,17.56,17.56,0,0,0,1-6.07,19,19,0,0,0-1.49-6.07,13.41,13.41,0,0,0-5.43.84,38.41,38.41,0,0,0-7.11,4,35.77,35.77,0,0,0-5.63-1.25A53.57,53.57,0,0,0,50,30.38a53.57,53.57,0,0,0-6.07.44,35.77,35.77,0,0,0-5.63,1.25,37,37,0,0,0-7.11-4,13.28,13.28,0,0,0-5.42-.85,19.33,19.33,0,0,0-1.45,6.07,17.56,17.56,0,0,0,1,6.07A16.8,16.8,0,0,0,21,47.1c-1.08,4.65,0,10.65,0,10.65s.81,5.49,3.94,9.2c3,3.51,8.59,5.22,8.59,5.22a44.31,44.31,0,0,0,8.12,1.89,3.8,3.8,0,0,1,.61.07,8.77,8.77,0,0,0-4.14,7.25v7.69a40.85,40.85,0,1,1,23.8,0Z"/></g></svg>