<svg width="2048px" height="2048px" viewBox="0 0 2048 2048" xmlns="http://www.w3.org/2000/svg" xmlns:xlink="http://www.w3.org/1999/xlink">
<title>Git</title>
<g fill="#FFF" id="GitLogo">
<path transform="translate(0,2048) scale(1,-1)" d= "M1024 2048Q1049 2048 1073.5 2037Q1098 2026 1115 2009L2009 1115Q2029 1095 2038.5 1070Q2048 1045 2048 1018Q2048 992 2037 969Q2026 946 2009 929L1119 39Q1080 0 1024 0Q999 0 974.5 11Q950 22 933 39L39 933Q22 950 11 974.5Q0 999 0 1024Q0 1050 10 1075Q20 1100 39 1119L652 1732L884 1500Q872 1471 872 1439Q872 1375 918 1329Q924 1323 926.5 1321Q929 1319 931.5 1318Q934 1317 937 1316.5Q940 1316 947 1313L947 746Q935 741 926.5 732Q918 723 909 714Q883 688 868 659Q853 630 853 592Q853 558 866 528.5Q879 499 901.5 477Q924 455 953.5 442Q983 429 1017 429Q1051 429 1082 440Q1113 451 1135.5 471.5Q1158 492 1171.5 521Q1185 550 1185 586Q1185 608 1178.5 630Q1172 652 1160.5 671.5Q1149 691 1133 707Q1117 723 1098 734L1098 1285L1310 1073Q1298 1044 1298 1013Q1298 980 1310.5 951.5Q1323 923 1344 902Q1365 881 1393.5 868.5Q1422 856 1455 856Q1488 856 1516.5 868.5Q1545 881 1566 902Q1587 923 1599.5 951.5Q1612 980 1612 1013Q1612 1045 1599.5 1073.5Q1587 1102 1566 1123.5Q1545 1145 1516.5 1157.5Q1488 1170 1456 1170Q1429 1170 1404 1161L1177 1388Q1186 1413 1186 1440Q1186 1473 1173.5 1501.5Q1161 1530 1140 1551Q1119 1572 1090.5 1584Q1062 1596 1029 1596Q1005 1596 979 1588L743 1824L929 2009Q968 2048 1024 2048Z"></path>
</g>
</svg>