<svg id="FxSymbol0-039" xmlns="http://www.w3.org/2000/svg" viewBox="0 0 550 550"aria-labeledby="kudu-svg-title" role="img">
	<title id="kudu-svg-title">KUDU Logo</title><path d="M171,173,427,429c40,40,38,95,38,95s-59-2-95-38L114,230Z" style="fill:#e5e5e5"/><path d="M483,27a46.44,46.44,0,0,1-30,31,58.53,58.53,0,0,1-13,2l-25-7-22-6-5-1a13.95,13.95,0,1,0-7,27l42,11,9,2c7,1,15,1,22-2a50.71,50.71,0,0,0,16-9C483,64,489,45,483,27Z" style="fill:#e5e5e5"/><path d="M407,144a13.71,13.71,0,0,1-17-10L371,63a13.95,13.95,0,1,1,27-7l19,71C419,134,414,142,407,144Z" style="fill:#a0a1a2"/><path d="M318,108a13.71,13.71,0,0,0,10,17l71,19a13.95,13.95,0,0,0,7-27L335,98C328,96,320,101,318,108Z" style="fill:#e5e5e5"/><path d="M354,196a13.71,13.71,0,0,1-17-10l-19-71a13.95,13.95,0,1,1,27-7l19,71C366,187,362,194,354,196Z" style="fill:#a0a1a2"/><path d="M266,160a13.71,13.71,0,0,0,10,17l71,19a13.95,13.95,0,1,0,7-27l-71-19C276,149,268,153,266,160Z" style="fill:#e5e5e5"/><path d="M302,249a13.71,13.71,0,0,1-17-10l-19-71a13.95,13.95,0,1,1,27-7l19,71C314,239,309,247,302,249Z" style="fill:#a0a1a2"/><path d="M213,213a13.71,13.71,0,0,0,10,17l71,19a13.95,13.95,0,1,0,7-27l-71-19A13.71,13.71,0,0,0,213,213Z" style="fill:#e5e5e5"/><path d="M250,301a13.71,13.71,0,0,1-17-10l-19-71a13.95,13.95,0,1,1,27-7l19,71A14,14,0,0,1,250,301Z" style="fill:#a0a1a2"/><path d="M161,265a13.71,13.71,0,0,0,10,17l71,19a13.95,13.95,0,1,0,7-27l-71-19C171,253,163,258,161,265Z" style="fill:#e5e5e5"/><path d="M224,451a74,74,0,0,1-148,0V99a74,74,0,0,1,148,0V451Z" style="fill:#3999c6"/><path d="M76,351V99a74,74,0,0,1,148,0V221Z" style="fill:#fff;opacity:0.10000000149011612;isolation:isolate"/><path d="M200,302a12.16,12.16,0,0,0-12-12h-1a22,22,0,0,0,1-8,31.16,31.16,0,0,0-31-31,30.33,30.33,0,0,0-29,21c-2-1-4-1-7-1a21.12,21.12,0,0,0-21,21,20.51,20.51,0,0,0,21,21h68a11.1,11.1,0,0,0,11-11" style="fill:#fff"/></svg>