<?xml version="1.0" encoding="utf-8"?>
<!-- Generator: Adobe Illustrator 23.0.1, SVG Export Plug-In . SVG Version: 6.00 Build 0)  -->
<svg version="1.1" id="FxSymbol0-039" xmlns="http://www.w3.org/2000/svg" xmlns:xlink="http://www.w3.org/1999/xlink" x="0px"
	 y="0px" viewBox="0 0 550 550" style="enable-background:new 0 0 550 550;" xml:space="preserve">
<style type="text/css">
	.st0{fill:#FFFFFF;}
	.st1{opacity:0.7;fill:#FFFFFF;}
	.st2{opacity:0.5;fill:#FFFFFF;}
	.st3{opacity:0.2;fill:#FFFFFF;enable-background:new    ;}
</style>
<path class="st0" d="M171,173l256,256c40,40,38,95,38,95s-59-2-95-38L114,230L171,173z"/>
<g>
	<path class="st0" d="M483,27c-4.3,14.6-15.5,26.2-30,31c-4.2,1.2-8.6,1.8-13,2l-25-7l-22-6l-5-1c-7.4-2.1-15.1,2.2-17.2,9.6
		s2.2,15.1,9.6,17.2c0.2,0.1,0.4,0.1,0.6,0.2l42,11l9,2c7,1,15,1,22-2c5.8-2,11.3-5.1,16-9C483,64,489,45,483,27z"/>
	<path class="st1" d="M407,144c-7.3,2-14.9-2.2-16.9-9.5c0-0.2-0.1-0.3-0.1-0.5l-19-71c-2.1-7.4,2.2-15.1,9.6-17.2
		c7.4-2.1,15.1,2.2,17.2,9.6c0.1,0.2,0.1,0.4,0.2,0.6l19,71C419,134,414,142,407,144z"/>
	<path class="st0" d="M318,108c-2,7.3,2.2,14.9,9.5,16.9c0.2,0,0.3,0.1,0.5,0.1l71,19c7.5,1.8,15-2.9,16.8-10.4
		c1.7-7.3-2.6-14.6-9.8-16.6l-71-19C328,96,320,101,318,108z"/>
	<path class="st1" d="M354,196c-7.3,2-14.9-2.2-16.9-9.5c0-0.2-0.1-0.3-0.1-0.5l-19-71c-2.1-7.4,2.2-15.1,9.6-17.2
		c7.4-2.1,15.1,2.2,17.2,9.6c0.1,0.2,0.1,0.4,0.2,0.6l19,71C366,187,362,194,354,196z"/>
	<path class="st0" d="M266,160c-2,7.3,2.2,14.9,9.5,16.9c0.2,0,0.3,0.1,0.5,0.1l71,19c7.4,2.1,15.1-2.2,17.2-9.6s-2.2-15.1-9.6-17.2
		c-0.2-0.1-0.4-0.1-0.6-0.2l-71-19C276,149,268,153,266,160z"/>
	<path class="st1" d="M302,249c-7.3,2-14.9-2.2-16.9-9.5c0-0.2-0.1-0.3-0.1-0.5l-19-71c-2.1-7.4,2.2-15.1,9.6-17.2
		c7.4-2.1,15.1,2.2,17.2,9.6c0.1,0.2,0.1,0.4,0.2,0.6l19,71C314,239,309,247,302,249z"/>
	<path class="st0" d="M213,213c-2,7.3,2.2,14.9,9.5,16.9c0.2,0,0.3,0.1,0.5,0.1l71,19c7.4,2.1,15.1-2.2,17.2-9.6s-2.2-15.1-9.6-17.2
		c-0.2-0.1-0.4-0.1-0.6-0.2l-71-19c-7.3-2-14.9,2.2-16.9,9.5C213.1,212.7,213,212.8,213,213z"/>
	<path class="st1" d="M250,301c-7.3,2-14.9-2.2-16.9-9.5c0-0.2-0.1-0.3-0.1-0.5l-19-71c-2.1-7.4,2.2-15.1,9.6-17.2
		c7.4-2.1,15.1,2.2,17.2,9.6c0.1,0.2,0.1,0.4,0.2,0.6l19,71C261.9,291.5,257.4,299,250,301z"/>
	<path class="st0" d="M161,265c-2,7.3,2.2,14.9,9.5,16.9c0.2,0,0.3,0.1,0.5,0.1l71,19c7.4,2.1,15.1-2.2,17.2-9.6
		c2.1-7.4-2.2-15.1-9.6-17.2c-0.2-0.1-0.4-0.1-0.6-0.2l-71-19C171,253,163,258,161,265z"/>
</g>
<path d="M224,450c0,40.9-33.1,74-74,74s-74-33.1-74-74V98c0-40.9,33.1-74,74-74s74,33.1,74,74V450z"/>
<path class="st2" d="M224,451c0,40.9-33.1,74-74,74s-74-33.1-74-74V99c0-40.9,33.1-74,74-74s74,33.1,74,74V451z"/>
<path class="st3" d="M76,348V96c0-40.9,33.1-74,74-74s74,33.1,74,74v122L76,348z"/>
<path class="st0" d="M200,302c-0.1-6.6-5.4-11.9-12-12h-1c0.8-2.6,1.2-5.3,1-8c-0.1-17.1-13.9-30.9-31-31c-13.2-0.1-24.9,8.4-29,21
	c-2-1-4-1-7-1c-11.6,0.1-20.9,9.4-21,21c-0.3,11.3,8.7,20.7,20,21c0.3,0,0.7,0,1,0h68C195.1,312.9,199.9,308.1,200,302"/>
</svg>
