<svg xmlns="http://www.w3.org/2000/svg" viewBox="0 0 100 100"><title>Untitled-1 [Recovered]</title><g fill="#FFF" id="Local_Git" data-name="Local Git"><path d="M76.61,28.67a10.56,10.56,0,0,0-21.13,0,10.93,10.93,0,0,0,5.75,9.49c-1.6,7.62-7.89,11.1-16.72,15.11-2.14.94-4.28,2-6.29,3.08V25.19a10.55,10.55,0,1,0-14.84-9.63,10.45,10.45,0,0,0,6.29,9.63V74.81a10.55,10.55,0,1,0,14.84,9.63,10.45,10.45,0,0,0-6.29-9.63V68.52c0-2.67,3.74-4.55,9.9-7.36,8.56-3.88,19.79-9.09,21.93-22.6A10.57,10.57,0,0,0,76.61,28.67ZM34,10.35a5.22,5.22,0,1,1-5.22,5.22A5.22,5.22,0,0,1,34,10.35Zm0,79.3a5.22,5.22,0,1,1,5.22-5.22A5.22,5.22,0,0,1,34,89.65ZM66,34h0a5.22,5.22,0,1,1,0-10.43,5.31,5.31,0,0,1,5.22,5.22A5.22,5.22,0,0,1,66,34Z"/></g></svg>