<svg xmlns="http://www.w3.org/2000/svg" viewBox="0 0 100 100"><title>Untitled-1 [Recovered]</title><g fill="#FFF" id="One_Drive" data-name="One Drive"><path id="path4256" d="M34.18,76.3c-5.45-1.36-8.48-5.69-8.49-12.11a10.45,10.45,0,0,1,.66-4.36c1.26-3.24,4.58-5.68,9-6.58,2.18-.45,2.85-.93,2.85-2a10.77,10.77,0,0,1,.58-2.31c1.44-4.18,4.1-7.67,7-9.1A14.5,14.5,0,0,1,53.78,38c5.12,0,7.68,1.14,11.25,4.89l2,2.06,1.76-.61c8.52-2.95,17,2.07,17.7,10.46l.19,2.29,1.68.6c4.79,1.72,7,5.32,6.64,10.62-.27,3.47-1.89,6.23-4.45,7.61l-1.21.65-26.82.05c-20.61,0-27.16,0-28.29-.32Z"/><path id="path4248" d="M14.07,72.59a13.36,13.36,0,0,1-8.13-6.78C5,64,5,63.73,5,60.5c0-3.07.08-3.56.79-5.08a11.87,11.87,0,0,1,8-6.44,3.83,3.83,0,0,0,1.59-.68,8.56,8.56,0,0,0,.28-2.21A15.13,15.13,0,0,1,26,32.2a16.55,16.55,0,0,1,10.63.64c1.1.44,1,.53,3.29-2.51a21.2,21.2,0,0,1,6.41-5.17,17.14,17.14,0,0,1,8-1.79A19.44,19.44,0,0,1,72.91,36.84c.87,2.59.82,3.32-.2,3.34a18,18,0,0,0-2.84.55l-2,.53L66,39.4c-5.22-5.22-13.73-6.34-21-2.78a17.4,17.4,0,0,0-7,6.14c-1.25,1.9-2.85,5.45-2.85,6.33,0,.62-.51.94-2.67,1.65C25.86,52.93,22,58,22,64.48a17.21,17.21,0,0,0,1.45,6.9c.32.62.5,1.22.39,1.32-.26.26-8.58.17-9.73-.1Z"/></g></svg>