<svg id="WebDeploy" xmlns="http://www.w3.org/2000/svg" viewBox="0 0 100 100" aria-labeledby="webdeploy-svg-title" role="img">
	<title id="webdeploy-svg-title">Web Deploy</title><path fill="#FFF" d="M86.24,50q0-.88,0-1.75H78.49c0,.58.05,1.16.05,1.75,0,.82,0,1.64-.1,2.45A32.75,32.75,0,0,1,71.2,70.69a44.35,44.35,0,0,0-8-3.2,61.39,61.39,0,0,0,2.36-15c0-.81,0-1.63,0-2.45,0-.59,0-1.17,0-1.75a62,62,0,0,0-2.19-15.09,43.62,43.62,0,0,0,8.23-3.35,27.63,27.63,0,0,0,6.25-4.51,41.27,41.27,0,0,0-2.74-3.21,40.59,40.59,0,0,0-61.38,53,41.28,41.28,0,0,0,2.77,3.16A40.62,40.62,0,0,0,86.16,52.45C86.21,51.64,86.24,50.82,86.24,50ZM23,73.89a41.31,41.31,0,0,1,6.41-2.44,33.55,33.55,0,0,0,5.6,9.7A32.93,32.93,0,0,1,23,73.89ZM12.8,52.45H25.71a61.29,61.29,0,0,0,2.36,15,44.2,44.2,0,0,0-8,3.2A32.75,32.75,0,0,1,12.8,52.45Zm6.85-22.64a43.62,43.62,0,0,0,8.23,3.35,62,62,0,0,0-2.19,15.09H12.76A32.74,32.74,0,0,1,19.65,29.81ZM35,18.84a34.12,34.12,0,0,0-5.85,10.33,40.63,40.63,0,0,1-6.65-2.6A33,33,0,0,1,35,18.84Zm8.14,12.55a59.64,59.64,0,0,1-9.9-1.18A36.32,36.32,0,0,1,35.2,26c2.3-4.24,5.11-7.06,8-8.11Zm0,16.86H29.89a57.59,57.59,0,0,1,2.05-14,63.68,63.68,0,0,0,11.23,1.38Zm0,16.86a63.56,63.56,0,0,0-11,1.34,56.84,56.84,0,0,1-2.22-14H43.17Zm0,17c-2.86-1-5.67-3.87-8-8.11a35.39,35.39,0,0,1-1.67-3.56,59.93,59.93,0,0,1,9.64-1.13Zm4.2-12.82a60,60,0,0,1,10.34,1.15A36.2,36.2,0,0,1,56,74c-2.49,4.58-5.57,7.51-8.67,8.33ZM56,26A36.63,36.63,0,0,1,58,30.21a59.9,59.9,0,0,1-10.6,1.21V17.67C50.47,18.49,53.56,21.42,56,26Zm6,3.17a34.07,34.07,0,0,0-5.85-10.33,33,33,0,0,1,12.5,7.73A40.63,40.63,0,0,1,62.07,29.17Zm-.71,19.07h-14V35.62a63.93,63.93,0,0,0,11.93-1.41A57.69,57.69,0,0,1,61.36,48.25Zm0,4.2a56.81,56.81,0,0,1-2.22,14,63.74,63.74,0,0,0-11.74-1.37V52.45Zm6.9,21.44a33,33,0,0,1-12,7.27,33.54,33.54,0,0,0,5.61-9.71A41,41,0,0,1,68.23,73.89Z"/><path fill="#FFF" d="M95,52.45,82.66,31.07,70.31,52.45Z"/></svg>