<svg xmlns="http://www.w3.org/2000/svg" viewBox="0 0 100 100"><title>Artboard 1 copy 3</title><g id="Layer_4" data-name="Layer 4"><path d="M7,84.76a3.53,3.53,0,0,0,3.45,3.61h79.1A3.54,3.54,0,0,0,93,84.76V28.37H7Z" style="fill:none;stroke:#fff;stroke-miterlimit:10;stroke-width:4px"/><path d="M91.39,11.63H8.61A3.61,3.61,0,0,0,5,15.24H5V34.37H95V15.24a3.61,3.61,0,0,0-3.61-3.61" style="fill:#fff"/><path d="M30.8,70.36H25.73V61.23H16.45v9.13h-5V48h5v8.94h9.28V48H30.8Z" style="fill:#fff"/><path d="M51.66,52.06H45.27v18.3H40.2V52.06H33.84V48H51.66Z" style="fill:#fff"/><path d="M71,52.06H64.66v18.3H59.59V52.06H53.23V48H71Z" style="fill:#fff"/><path d="M79.11,62.64v7.72h-5V48H82q8.47,0,8.47,7.14A6.85,6.85,0,0,1,88,60.55a9.63,9.63,0,0,1-6.49,2.09Zm0-10.81v7h2q4,0,4-3.53t-4-3.45Z" style="fill:#fff"/></g></svg>