<svg viewBox="0 0 50 50" focusable="false" xmlns:xlink="http://www.w3.org/1999/xlink" xmlns:svg="http://www.w3.org/2000/svg" class="fxs-portal-svg" role="presentation" id="FxSymbol0-054" width="100%" height="100%"><g><title></title><path class="svg-monochromatic" d="M8 28.4c-2.1 0-3.6-.4-4.5-1.1-.9-.8-1.3-2.1-1.3-4v-3.4c0-1.7-.7-2.6-2.1-2.6v-2.6c1.4 0 2.1-.9 2.1-2.7V8.8c0-1.9.4-3.3 1.3-4.1S5.9 3.6 8 3.6v2.6c-1.5 0-2.3.8-2.3 2.5v3c0 2.3-.7 3.7-2.2 4.3 1.4.6 2.2 2 2.2 4.3v2.9c0 .9.2 1.6.5 2 .4.4.9.6 1.7.6v2.6zm34-6.8c2.1 0 3.6.4 4.5 1.1.9.8 1.3 2.1 1.3 4v3.4c0 1.7.7 2.6 2.1 2.6v2.6c-1.4 0-2.1.9-2.1 2.7v3.1c0 1.9-.4 3.3-1.3 4.1-.9.8-2.4 1.2-4.5 1.2v-2.6c1.5 0 2.3-.8 2.3-2.5v-3c0-2.3.7-3.7 2.2-4.3-1.4-.6-2.2-2-2.2-4.3v-2.9c0-.9-.2-1.6-.5-2-.4-.4-.9-.6-1.7-.6v-2.6z"></path><path class="msportalfx-svg-c03" d="M25.7 27H12.9c-1.3 0-2.4-1.1-2.4-2.1s1.1-1.9 2.4-1.9h12.8c1.4 0 2.4.8 2.4 1.9s-1 2.1-2.4 2.1zm11 9.1H16.9c-1.3 0-2.4-1.1-2.4-2.1s1.1-1.9 2.4-1.9h19.8c1.4 0 2.4.8 2.4 1.9s-1 2.1-2.4 2.1zm0-19H12.9c-1.3 0-2.4-1.1-2.4-2.1s1.1-1.9 2.4-1.9h23.8c1.4 0 2.4.8 2.4 1.9s-1 2.1-2.4 2.1zm-4-9.5H12.9c-1.3 0-2.4-1.1-2.4-2.1s1.1-1.9 2.4-1.9h19.8c1.4 0 2.4.8 2.4 1.9s-1 2.1-2.4 2.1zm-1 38.8H16.9c-1.3 0-2.4-1.1-2.4-2.1s1.1-1.9 2.4-1.9h14.8c1.3 0 2.4.8 2.4 1.9 0 1-1 2.1-2.4 2.1z"></path></g></svg>