<svg xmlns="http://www.w3.org/2000/svg" viewBox="0 0 100 100"><title>Artboard 1 copy 7</title><g id="Layer_8" data-name="Layer 8"><path d="M92.26,45.55A42.71,42.71,0,0,0,76.5,16.78a41.21,41.21,0,0,0-5.27-3.57l-3.34,6.42a33.69,33.69,0,0,1,4.05,2.77A35.26,35.26,0,0,1,53.69,85.08a35,35,0,0,1-18.26-3L32.09,88.5A42.46,42.46,0,0,0,92.26,45.55" style="fill:#fff"/><path d="M27.82,77.41A35.26,35.26,0,0,1,67.89,19.62l3.34-6.42A42.47,42.47,0,0,0,17,23.26v0A42.34,42.34,0,0,0,32.1,88.5l3.33-6.42a35.38,35.38,0,0,1-7.61-4.67" style="fill:#fff"/><path d="M27.82,77.41A35.26,35.26,0,0,1,67.89,19.62l3.34-6.42A42.47,42.47,0,0,0,17,23.26v0A42.34,42.34,0,0,0,32.1,88.5l3.33-6.42a35.38,35.38,0,0,1-7.61-4.67" style="fill:#fff"/><path d="M67.84,61.15l-16.32-5.8a3.4,3.4,0,1,1,2.15-6.45l.13,0,16.32,5.8A3.4,3.4,0,1,1,68,61.19Z" style="fill:#fff"/><path d="M49.66,54.71a3.4,3.4,0,0,1-3.4-3.4V22.38a3.4,3.4,0,0,1,6.8,0V51.31A3.4,3.4,0,0,1,49.66,54.71Z" style="fill:#fff"/><circle cx="49.66" cy="51.31" r="4.97" style="fill:#fff"/><path d="M29.12,27.73,33.39,32,32,33.39l-4.27-4.27ZM49,19.55H51v6H49Zm21.64,8.38L72,29.3l-4.27,4.28L66.38,32.2ZM73.89,49h6V51h-6ZM67.48,66.1l4.28,4.28-1.38,1.38L66.1,67.47Z" style="fill:#fff"/><path d="M67.48,66.1l4.28,4.28-1.38,1.38L66.1,67.47ZM49,73.79H51v6H49ZM29.12,27.73,33.39,32,32,33.39l-4.27-4.27Zm3.19,38.54,1.38,1.38-4.27,4.28L28,70.55Z" style="fill:#fff"/><path d="M32.31,66.27l1.38,1.38-4.27,4.28L28,70.55ZM19.66,49h6V51h-6Z" style="fill:#fff"/></g></svg>