<svg id="Layer_1" data-name="Layer 1" xmlns="http://www.w3.org/2000/svg" viewBox="0 0 100 100"><title>Artboard 1</title><path d="M47.1,43C43.26,49.51,39.58,55.76,35.82,62c-1,1.59-1.44,2.89-.67,4.92a9.2,9.2,0,0,1-6.52,12.52c-5.32,1.4-10.51-2.1-11.56-7.8-.94-5,3-10,8.54-10.78.47-.07.94-.07,1.72-.13l8.46-14.19C30.47,41.22,27.3,35,28,27.37a21.75,21.75,0,0,1,6.52-13.93,22.13,22.13,0,0,1,27.61-2.9c8.43,5.42,12.29,16,9,25l-7.73-2.1c1-5,.27-9.53-3.12-13.39a13.37,13.37,0,0,0-8.37-4.38A13.62,13.62,0,0,0,37,25.31C34.88,32.6,38.15,38.56,47.1,43Z" style="fill:#fff"/><path d="M58.08,35.41l8.18,14.43C80,45.57,90.41,53.2,94.13,61.36A22.26,22.26,0,0,1,86.72,89c-9.07,6.24-20.54,5.18-28.57-2.84l6.3-5.28c7.94,5.14,14.88,4.9,20-1.19a13.81,13.81,0,0,0-.22-18c-5.22-5.87-12.21-6-20.66-.41C60.1,55,56.54,48.85,53.14,42.59a6.36,6.36,0,0,0-5-3.78,8.87,8.87,0,0,1-7.26-8.59,9.36,9.36,0,0,1,16.66-6.34,8.82,8.82,0,0,1,1.63,8.72c-.3.89-.69,1.76-1.11,2.82Z" style="fill:#fff"/><path d="M64.55,74.45H48C46.38,81,43,86.26,37,89.62a22.11,22.11,0,0,1-14.82,2.64A22.53,22.53,0,0,1,3.87,72.11,22.3,22.3,0,0,1,21,48.82l2.12,7.7c-9.37,4.78-12.61,10.81-10,18.34,2.31,6.63,8.87,10.26,16,8.86C36.35,82.29,40,76.24,39.56,66.54c6.89,0,13.79-.07,20.69,0,2.69,0,4.77-.24,6.8-2.61,3.34-3.91,9.49-3.55,13.08.14a9.4,9.4,0,1,1-13.58,13,32.44,32.44,0,0,1-2-2.64Z" style="fill:#fff"/></svg>