<?xml version="1.0" encoding="UTF-8"?>
<svg xmlns:svg="http://www.w3.org/2000/svg" xmlns="http://www.w3.org/2000/svg" xmlns:xlink="http://www.w3.org/1999/xlink" viewBox="0 0 50 50" class="msportalfx-svg-placeholder" role="presentation" focusable="false" aria-hidden="true">
    <style type="text/css">
        .msportalfx-svg-c01{ fill: #fff; }
        .msportalfx-svg-c02{ fill: #e5e5e5; }
        .msportalfx-svg-c04{ fill: #7a7a7a;}
        .msportalfx-svg-c06{fill: #1e1e1e;}
        .msportalfx-svg-c14{ fill: #7fba00; }
    </style>
   <g>
      <path d="M.001 35.998h50v10.003h-50z" class="msportalfx-svg-c02" />
      <path d="M2.001 38.061h46v5.941h-46z" class="msportalfx-svg-c14" />
      <path opacity="0.6" d="M20.001 37.998h28v6.003h-28z" class="msportalfx-svg-c01" />
      <path d="M18.001 36.002h4v9.999h-4z" class="msportalfx-svg-c04" />
      <path opacity="0.7" d="M18.001 36h2v10h-2z" class="msportalfx-svg-c01" />
      <path d="M.001 19.999h50v10.003h-50z" class="msportalfx-svg-c02" />
      <path d="M2.001 22.06h46v5.941h-46z" class="msportalfx-svg-c14" />
      <path opacity="0.6" d="M36.001 21.993h12v6.003h-12z" class="msportalfx-svg-c01" />
      <path d="M34.001 20.002h4v9.999h-4z" class="msportalfx-svg-c04" />
      <path opacity="0.7" d="M34.001 20h2v10h-2z" class="msportalfx-svg-c01" />
      <path d="M.001 3.999h50v10.003h-50z" class="msportalfx-svg-c02" />
      <path d="M2.001 6.06h46v5.941h-46z" class="msportalfx-svg-c14" />
      <path opacity="0.6" d="M20.001 5.999h28v6.003h-28z" class="msportalfx-svg-c01" />
      <path d="M18.001 4.002h4v9.999h-4z" class="msportalfx-svg-c04" />
      <path opacity="0.7" d="M18.001 4h2v10h-2z" class="msportalfx-svg-c01" />
      <path opacity="0.2" d="M22.001 36h2v10h-2zm0-31.969h2v10h-2zm16 15.963h2v10h-2z" class="msportalfx-svg-c06" />
   </g>
</svg>