<?xml version="1.0" encoding="utf-8"?>

<svg xmlns:svg="http://www.w3.org/2000/svg" xmlns="http://www.w3.org/2000/svg" xmlns:xlink="http://www.w3.org/1999/xlink" viewBox="-10.5 -9.5 50 50" role="presentation" focusable="false" aria-hidden="true">
<g>
    <path d="M34.492 35.865h2V-9.5h-41C-5.801-9.333-8.5-6.2-8.5-5.749l.059 43.882A2.368 2.368 0 0 0-6.073 40.5h37.565v-.729l3-3.906z" style="fill: #0072c6" />
    <path d="M-2.726-7.5c-1.105 0-1.58.185-2.507 1-2.275 2 .39 2 1.495 2h35.23v44.271l3-3.906V-7.5H-2.726z" style="fill: #e5e5e5;" />
    <path opacity="0.5" d="M31.492 39.771l3-3.906V-7.5l-3 3z" style="fill: #a0a1a2;" />
    <path d="M22.492 10.5a2 2 0 0 1-2 2h-17a2 2 0 0 1-2-2v-5a2 2 0 0 1 2-2h17a2 2 0 0 1 2 2v5z" style="fill: #fff;" />
</g>
</svg>