<?xml version="1.0" encoding="UTF-8"?>
<svg xmlns:svg="http://www.w3.org/2000/svg" xmlns="http://www.w3.org/2000/svg" xmlns:xlink="http://www.w3.org/1999/xlink" viewBox="0 0 50 50" focusable="false" role="presentation" aria-hidden="true">
   <g>
      <path d="M49.662,25.717c0.499-0.499,0.399-1.298,0-1.797l-2.396-2.396L36.482,11.04 c-0.499-0.499-1.198-0.499-1.697,0l0,0c-0.499,0.499-0.599,1.298,0,1.797L46.068,23.92c0.499,0.499,0.499,1.298,0,1.797 L34.585,37.199c-0.499,0.499-0.499,1.298,0,1.797l0,0c0.499,0.499,1.298,0.399,1.697,0l10.684-10.584c0,0,0,0,0.1-0.1L49.662,25.717 z" style="fill: #a0a1a2" />
      <path d="M0.338,25.717c-0.499-0.499-0.399-1.298,0-1.797l2.396-2.396L13.518,11.04c0.499-0.499,1.198-0.499,1.697,0 l0,0c0.499,0.499,0.599,1.298,0,1.797L4.132,23.92c-0.499,0.499-0.499,1.298,0,1.797l11.283,11.482c0.499,0.499,0.499,1.298,0,1.797 l0,0c-0.499,0.499-1.298,0.399-1.697,0L2.834,28.513c0,0,0,0-0.1-0.1L0.338,25.717z" style="fill: #a0a1a2" />
      <polygon points="18.68,34.686 23.057,29.994 23.482,36.396 20.099,40.766 18.54,40.211" style="fill: #fee087" />
      <polygon points="18.541,40.211 20.1,40.766 18.678,42.289" style="fill: #1e1e1e" />
      <polygon points="27.978,15.835 27.978,15.835 27.139,15.536 25.682,15.018 18.668,34.72 21.391,34.337 21.413,34.275 21.413,34.275 21.391,34.336 23.47,36.429 30.484,16.727 27.978,15.835" style="fill: #ff8c00" />
      <polygon points="18.668,34.72 21.391,34.337 27.978,15.835 25.682,15.018" opacity="0.3" style="fill: #fff" />
      <rect width="5.097" height="5.097" x="26" y="12.019" transform="matrix(0.3354 -0.9421 0.9421 0.3354 5.25 36.5762)" style="fill: e5e5e5" />
      <rect width="0.637" height="5.097" x="28.336" y="11.72" transform="matrix(0.3354 -0.9421 0.9421 0.3354 5.6025 36.4778)" style="fill: #7fba00" />
      <rect width="3.823" height="5.097" x="28.132" y="7.818" transform="matrix(0.3354 -0.9421 0.9421 0.3354 10.2015 35.1932)" />
      <rect width="3.823" height="5.097" x="28.132" y="7.818" transform="matrix(0.3354 -0.9421 0.9421 0.3354 10.2015 35.1932)" opacity="0.3" style="fill: #fff" />
   </g>
</svg>