<?xml version="1.0" encoding="UTF-8"?>
<svg xmlns:svg="http://www.w3.org/2000/svg" xmlns="http://www.w3.org/2000/svg" xmlns:xlink="http://www.w3.org/1999/xlink" viewBox="0 0 50 50" role="presentation" focusable="false" aria-hidden="true">
   <g>
      <path d="M0 44.627c0 1.108.898 2.007 2.007 2.007h45.986A2.007 2.007 0 0 0 50 44.627V13.298H0v31.329z" style="fill: #59b4d9" />
      <path d="M47.993 4H2.007A2.006 2.006 0 0 0 0 6.007v10.627h50V6.007A2.007 2.007 0 0 0 47.993 4" style="fill: #a0a1a2" />
      <path d="M26.556 21.397L19.1 39.232h-4.676l7.424-17.835zm9.567 0l-7.456 17.835h-4.676l7.424-17.835z" style="fill: #fff" />
      <path opacity="0.2" d="M2.014 4A2.007 2.007 0 0 0 .007 6.007v38.62c0 1.108.899 2.007 2.007 2.007h2.188L43.62 4H2.014z" style="fill: #fff" />
      <path d="M12.857 8.779h33.671v3.942H12.857z" style="fill: #fff" />
      <path d="M11.31 10.683a4.879 4.879 0 1 1-9.757-.001 4.879 4.879 0 0 1 9.757.001" style="fill: #59b4d9" />
      <path d="M5.916 11.232l2.213 2.336H6.928L3.969 10.75l2.948-2.818h1.198l-2.199 2.322h5.393v.978z" style="fill: #fff" />
   </g>
</svg>