<svg id="Layer_1" data-name="Layer 1" xmlns="http://www.w3.org/2000/svg" viewBox="0 0 62 57.13">
	<title>Functions</title>
	<path d="M62.6,32.39a1.75,1.75,0,0,0,0-2.23l-3-3-13.36-13a1.52,1.52,0,0,0-2.13,0h0a1.47,1.47,0,0,0,0,2.23l14,13.75a1.64,1.64,0,0,1,0,2.23L43.81,46.62a1.64,1.64,0,0,0,0,2.23h0a1.62,1.62,0,0,0,2.13,0L59.21,35.68l.1-.1Z" transform="translate(-1 -3.43)" style="fill:#dadada"/>
	<path d="M1.4,32.39a1.75,1.75,0,0,1,0-2.23l3-3,13.36-13a1.52,1.52,0,0,1,2.13,0h0a1.47,1.47,0,0,1,0,2.23L6.15,30.16a1.64,1.64,0,0,0,0,2.23l14,14.23a1.64,1.64,0,0,1,0,2.23h0a1.62,1.62,0,0,1-2.13,0L4.5,35.87l-.1-.1Z" transform="translate(-1 -3.43)" style="fill:#dadada"/>
	<polygon points="46.11 0 27.22 0 17.06 28.66 29.45 28.76 19.77 57.13 46.49 19.27 33.52 19.27 46.11 0" style="fill:#dadada"/>
	<polygon points="33.52 19.27 46.11 0 36.23 0 25.77 23.82 38.17 23.92 19.77 57.13 46.49 19.27 33.52 19.27" style="fill:#a0a1a2;opacity:0.30000001192092896;isolation:isolate"/>
</svg>