<?xml version="1.0" encoding="UTF-8"?>
<svg xmlns:svg="http://www.w3.org/2000/svg" xmlns="http://www.w3.org/2000/svg" xmlns:xlink="http://www.w3.org/1999/xlink" viewBox="0 0 12 12" class="msportalfx-svg-placeholder" role="presentation" focusable="false" aria-hidden="true">
   <g>
      <path d="M3.8 4.2c0-.6.2-1.4.6-1.8.3-.4 1.1-.6 1.6-.6s1.3.2 1.6.6.6.9.6 1.5v1.8H3.8V4.2zm6.3 1.5V3.9c0-1.1-.4-2-1-2.7C8.4.5 7 0 6 0S3.6.5 2.9 1.2c-.7.7-1 1.7-1 2.7v1.8C1 5.7.6 6.2.6 6.9v3.8c0 .9.4 1.3 1.1 1.3h8.5c.9 0 1.1-.6 1.1-1.3V6.9c.1-.6-.2-1.2-1.2-1.2z" />
   </g>
</svg>