<?xml version="1.0" encoding="UTF-8"?>
<svg xmlns:svg="http://www.w3.org/2000/svg" xmlns="http://www.w3.org/2000/svg" xmlns:xlink="http://www.w3.org/1999/xlink" viewBox="0 0 50 50" class="msportalfx-svg-placeholder" role="presentation" focusable="false" aria-hidden="true">
    <style type="text/css">
        .msportalfx-svg-c01{ fill: #fff; }
        .msportalfx-svg-c02{ fill: #e5e5e5; }
        .msportalfx-svg-c03{ fill: #a0a1a2; }
        .msportalfx-svg-c04{ fill: #7a7a7a;}
        .msportalfx-svg-c10{ fill: #ff8c00;}
        .msportalfx-svg-c13 { fill: #b8d432; }
        .msportalfx-svg-c15{ fill: #59b4d9; }
        .msportalfx-svg-c19{ fill: #0072c6;}
    </style>
   <g>
      <path d="M32.4 38.4H18.8c1.6 5.7-.6 6.6-10.2 6.6v3h32.6v-3c-9.5 0-10.4-.8-8.8-6.6" class="msportalfx-svg-c04" />
      <path d="M47 2H2.7C1.2 2 0 3.3 0 4.8v30.8c0 1.5 1.2 2.8 2.7 2.8H47c1.5 0 3-1.3 3-2.8V4.8C50 3.3 48.5 2 47 2m-.8 3.8v28.7H3.8V5.8l42.4-.1v.1z" class="msportalfx-svg-c03" />
      <path d="M46.1 5.8v28.8H3.8V5.8h42.4z" class="msportalfx-svg-c15" />
      <path opacity="0.2" d="M3.8 34.6V5.8l38.7-.1L47 2H2.7C1.2 2 0 3.3 0 4.8v30.8c0 1.5 1.2 2.8 2.7 2.8h1.1l4.6-3.8H3.8z" class="msportalfx-svg-c01" />
      <path d="M3.8 34.6V5.8h38.7H3.8z" class="msportalfx-svg-c15" />
      <path d="M8.7 45h32.7v3H8.7z" class="msportalfx-svg-c03" />
      <path d="M25.5 4.1c0 .4-.3.7-.7.7-.4 0-.7-.3-.7-.7 0-.4.3-.7.7-.7.4 0 .7.3.7.7" class="msportalfx-svg-c13" />
      <path d="M3.8 20.7l8.7-1.9 3.7 6.1 5.3-6.1 3.6 3.4 6.2-11.6L35 27.1l3.6-8.2 7.6 3v12.7H3.8z" class="msportalfx-svg-c19" />
      <path d="M38.1 17.4l-2.8 6.3-3.6-16.2-6.8 12.8-3.5-3.2-5.1 5.9-3.3-5.6-9.2 2v2H4l8-1.8 4 6.7 5.6-6.4 3.8 3.6 5.5-10.4 3.7 16.8 4.5-9.9 6.7 2.6h.3v-2.1l-8-3.1z" class="msportalfx-svg-c13" />
   </g>
</svg>