<?xml version="1.0" encoding="UTF-8"?>
<svg xmlns:svg="http://www.w3.org/2000/svg" xmlns="http://www.w3.org/2000/svg" xmlns:xlink="http://www.w3.org/1999/xlink" viewBox="0 0 50 50" class="msportalfx-svg-placeholder" role="presentation" focusable="false" aria-hidden="true">
   <g>
      <path d="M21.8.6c1.5.4 2.8 1 4.1 1.7 1.2.8 2.4 1.7 3.4 2.7 1 1.1 1.9 2.2 2.7 3.5.7 1.3 1.3 2.6 1.7 4.1.4 1.5.6 3 .6 4.6 0 2-.3 4-1 5.8s-1.7 3.6-3 5.1l19.1 19.2c.3.3.5.7.5 1.1 0 .4-.2.8-.5 1.1-.3.3-.7.5-1.1.5-.4 0-.8-.2-1.1-.5l-19-19.1c-1.6 1.3-3.3 2.3-5.1 3-1.9.7-3.8 1-5.8 1-1.6 0-3.1-.2-4.6-.6-1.5-.4-2.8-1-4.1-1.7-1.3-.7-2.4-1.6-3.5-2.7-1-1.1-1.9-2.2-2.7-3.5-.7-1.3-1.3-2.6-1.7-4.1-.4-1.5-.6-3-.6-4.6 0-1.6.2-3.1.6-4.6.4-1.5 1-2.8 1.7-4.1C3.1 7.3 4 6.1 5 5c1-1 2.2-1.9 3.5-2.7C9.8 1.6 11.1 1 12.6.6c1.5-.4 3-.6 4.6-.6s3.1.2 4.6.6zm.9 29.5c1.7-.7 3.2-1.7 4.5-3s2.3-2.8 3-4.5c.7-1.7 1.1-3.5 1.1-5.5 0-1.9-.4-3.8-1.1-5.5-.7-1.7-1.7-3.2-3-4.5s-2.8-2.3-4.5-3C21 3.4 19.2 3 17.2 3s-3.8.4-5.5 1.1C10 5 8.5 6 7.3 7.3S5 10 4.2 11.7c-.7 1.7-1.1 3.5-1.1 5.5 0 1.9.4 3.8 1.1 5.5.7 1.7 1.7 3.2 3 4.5s2.8 2.3 4.5 3c1.7.7 3.5 1.1 5.5 1.1s3.7-.4 5.5-1.2z" />
   </g>
</svg>