<svg xmlns="http://www.w3.org/2000/svg" viewBox="0 0 100 100"><title>Other copy 2</title><g id="Layer_10" data-name="Layer 10"><path d="M78,44.14A28.62,28.62,0,0,1,22.42,57.77c-3.94-15.42,6.1-30.84,21.52-34.43A28.37,28.37,0,0,1,78,44.14Z" style="fill:none;stroke:#fff;stroke-miterlimit:10"/><path d="M46.45,62.43a7.58,7.58,0,0,0-7.53-7.53H37.48a7.22,7.22,0,0,0-5.38-9H22.78a28,28,0,0,0,6.81,24.38h9.33A7.88,7.88,0,0,0,46.45,62.43Zm9.32-31.2v1.44H52.54a7.89,7.89,0,0,0,0,15.78H78.72A27.34,27.34,0,0,0,64,26.21H60.79A4.91,4.91,0,0,0,55.77,31.23Zm22.95,22.6H63.3a6.43,6.43,0,0,0-6.45,6.45,10.45,10.45,0,0,0,.72,3.23,6.5,6.5,0,0,0-4.31,7.89c.72,2.87,3.23,4.3,6.1,4.3h4.3A28.47,28.47,0,0,0,78.72,53.83Z" style="fill:#fff;opacity:0.5;isolation:isolate"/><path d="M18.48,32a.77.77,0,0,1-.72-.72,10,10,0,0,0-10-10c-.36.36-.72-.36-.72-.71a.77.77,0,0,1,.72-.72,10,10,0,0,0,10-10c0-.72.36-.72.72-.72s1.07,0,1.07.72a10,10,0,0,0,10,10,.72.72,0,1,1,0,1.43,10,10,0,0,0-10,10C19.55,31.59,19.19,32,18.48,32Z" style="fill:#fff"/><path d="M79.8,87.9c-.36,0-.36,0-.36-.36a6,6,0,0,0-6.1-5.74c-.35,0-.35,0-.35-.36s0-.36.35-.36a6.22,6.22,0,0,0,6.1-5.74c0-.35,0-.35.36-.35s.36,0,.36.35a6,6,0,0,0,6.1,5.74c.35,0,.35,0,.35.36s0,.36-.35.36a6.22,6.22,0,0,0-6.1,5.74C80.52,87.9,80.16,87.9,79.8,87.9Z" style="fill:#fff"/><path d="M92,25.5c-2.87-4.31-9.32-5.38-19.72-2.87a69.19,69.19,0,0,0-9.33,2.87,27.67,27.67,0,0,1,5.38,3.58c1.8-.36,3.59-1.07,5-1.43a32.46,32.46,0,0,1,8.25-1.08c3.23,0,5,.72,5.74,1.8,1.08,1.79,0,6.09-5.74,12.91A33.57,33.57,0,0,1,78,44.86a122.15,122.15,0,0,1-21.52,16.5A100.07,100.07,0,0,1,32.1,72.48c-10.4,3.22-17.57,3.22-19,.71s1.43-9,9.32-16.49a39.55,39.55,0,0,1-.72-6.46C9.51,61.36,5.57,71,8.43,76.06q3.24,4.31,10.76,4.31a54,54,0,0,0,18.29-4A120.16,120.16,0,0,0,59,65.66,150.27,150.27,0,0,0,78.37,51.32a60.91,60.91,0,0,0,6.81-6.82C92.35,36.26,94.5,29.8,92,25.5Z" style="fill:#fff"/></g></svg>