<svg xmlns="http://www.w3.org/2000/svg" width="18" height="18" viewBox="0 0 18 18">
  <defs>
    <linearGradient id="fc3b8c1b-bed9-427a-a209-4f441c5973fe" x1="2.766" y1="8.045" x2="11.182" y2="8.045" gradientUnits="userSpaceOnUse">
      <stop offset="0" stop-color="#0078d4"/>
      <stop offset="0.379" stop-color="#2989e0"/>
      <stop offset="0.785" stop-color="#4f9aeb"/>
      <stop offset="0.999" stop-color="#5ea0ef"/>
    </linearGradient>
  </defs>
  <g>
    <g>
      <path d="M11.459,10.88c.045.193.084.38.131.565.118.464.231.93.365,1.39a.665.665,0,0,0,.481.506.7.7,0,0,0,.585-.172,3.676,3.676,0,0,0,.894-.934c.083-.121.151-.252.229-.384l-.212-.1a2.918,2.918,0,0,1-.254.377,3.726,3.726,0,0,1-.506.467c-.132.1-.243.057-.321-.086a1.329,1.329,0,0,1-.123-.323q-.285-1.159-.559-2.322l-.118-.5c-.056-.2-.107-.373-.153-.545A2.669,2.669,0,0,0,11.281,7.6a.16.16,0,0,0-.167-.053c-.467.086-.936.166-1.4.251-.181.032-.181.036-.151.242H9.67c.137,0,.276-.005.412.008a.908.908,0,0,1,.861.775c.146.483.262.976.383,1.466Z" fill="#0078d4"/>
      <path d="M11.483,10.88c-.272.426-.52.85-.8,1.249A8.963,8.963,0,0,1,9.948,13a1.152,1.152,0,0,1-.649.344.626.626,0,0,1-.712-.393.469.469,0,0,1,.144-.514.44.44,0,0,1,.538-.051,2.9,2.9,0,0,1,.283.2c.13.1.2.114.32,0a3.221,3.221,0,0,0,.48-.532c.338-.508.654-1.031.972-1.552l.751-1.145c.06-.085.108-.15.154-.217a5.6,5.6,0,0,1,.759-1.013,2.11,2.11,0,0,1,.807-.558.674.674,0,0,1,.7.126.488.488,0,0,1,.105.549.4.4,0,0,1-.388.25.844.844,0,0,1-.389-.062.651.651,0,0,0-.853.226c-.268.348-.512.715-.761,1.076Z" fill="#5ea0ef"/>
      <path d="M10.9,2.626a1.086,1.086,0,0,0-.686-.193A2.834,2.834,0,0,0,8.8,2.86,3.382,3.382,0,0,0,7.609,4.017a6.81,6.81,0,0,0-.723,1.906H5.574l-.056.222-.1.39L5.326,6.9H6.641L5.616,11.021a2.787,2.787,0,0,1-.42,1.117.8.8,0,0,1-.58.166,5.556,5.556,0,0,1-.7-.047,3.381,3.381,0,0,0-.378-.03A.829.829,0,0,0,3,12.4a.625.625,0,0,0-.231.5.692.692,0,0,0,.3.568,1.134,1.134,0,0,0,.7.194,3.051,3.051,0,0,0,2.116-.9,5.139,5.139,0,0,0,1.368-2.567L8.054,6.9h1.48l.052-.23.088-.39.081-.359H8.3l.191-.809A3.524,3.524,0,0,1,8.921,4c.136-.208.273-.314.408-.314a1.8,1.8,0,0,1,.353.049,4.36,4.36,0,0,0,.787.121.715.715,0,0,0,.505-.191.657.657,0,0,0,.208-.488A.676.676,0,0,0,10.9,2.626Zm-7.658,10.6a.462.462,0,0,1-.134-.151.462.462,0,0,0,.134.151.65.65,0,0,0,.254.109A.65.65,0,0,1,3.239,13.228Zm3.724-3.114" fill="url(#fc3b8c1b-bed9-427a-a209-4f441c5973fe)"/>
      <path d="M2.06,7.225V3.547c0-.482.175-.768.508-.873A.494.494,0,0,0,2.906,2.2v0a.5.5,0,0,0-.537-.5,1.907,1.907,0,0,0-1.118.383A1.955,1.955,0,0,0,.772,3.584V7.336q0,.781-.477.948A.408.408,0,0,0,0,8.662v.676a.409.409,0,0,0,.3.378q.477.167.477.948v3.752a1.955,1.955,0,0,0,.479,1.508,1.907,1.907,0,0,0,1.118.383.5.5,0,0,0,.537-.5v0a.494.494,0,0,0-.338-.474c-.333-.105-.508-.391-.508-.873V10.775c0-.846-.221-1.411-.773-1.632,0,0-.224-.048-.226-.143,0-.112.282-.191.282-.191C1.9,8.589,2.06,8.071,2.06,7.225Z" fill="#949494"/>
      <path d="M15.94,7.225V3.547c0-.482-.175-.768-.508-.873a.494.494,0,0,1-.338-.474v0a.5.5,0,0,1,.537-.5,1.907,1.907,0,0,1,1.118.383,1.955,1.955,0,0,1,.479,1.508V7.336q0,.781.477.948a.408.408,0,0,1,.3.378v.676a.409.409,0,0,1-.3.378q-.477.167-.477.948v3.752a1.955,1.955,0,0,1-.479,1.508,1.907,1.907,0,0,1-1.118.383.5.5,0,0,1-.537-.5v0a.494.494,0,0,1,.338-.474c.333-.105.508-.391.508-.873V10.775c0-.846.221-1.411.773-1.632,0,0,.224-.048.226-.143,0-.112-.282-.191-.282-.191C16.105,8.589,15.94,8.071,15.94,7.225Z" fill="#949494"/>
    </g>
  </g>
</svg>
