<svg xmlns="http://www.w3.org/2000/svg" viewBox="0 0 100 100"><title>Other copy</title><g id="IoT"><circle cx="39.41" cy="24.48" r="7.27" style="fill:#fff"/><circle cx="56.05" cy="47.92" r="8.67" style="fill:#fff"/><circle cx="70.58" cy="73.7" r="6.8" style="fill:#fff"/><circle cx="43.63" cy="69.02" r="5.86" style="fill:#fff"/><circle cx="19.95" cy="51.2" r="5.86" style="fill:#fff"/><rect x="45.56" y="21.55" width="3.75" height="28.83" transform="translate(-12.05 33.82) rotate(-35.11)" style="fill:#fff"/><rect x="61.33" y="45.67" width="3.75" height="29.53" transform="translate(-21.67 39.38) rotate(-29.79)" style="fill:#fff"/><rect x="19.86" y="47.38" width="35.86" height="3.75" transform="translate(-3.95 3.3) rotate(-4.75)" style="fill:#fff"/><rect x="37.32" y="56.38" width="24.37" height="3.75" transform="translate(-25.93 70.59) rotate(-58.93)" style="fill:#fff"/><path d="M81.83,13h-19c-.7,0-1.17.47-1.17,1.41V21.2a1.11,1.11,0,0,0,1.17,1.18H73.63V32.92c0,.71.46,1.17,1.4,1.17h6.8A1.1,1.1,0,0,0,83,32.92V14.17A1.11,1.11,0,0,0,81.83,13Z" style="fill:#fff"/><path d="M9.17,87.77h19c.7,0,1.17-.47,1.17-1.41v-6.8a1.11,1.11,0,0,0-1.17-1.17H17.38V67.84c0-.7-.47-1.17-1.41-1.17H9.17A1.11,1.11,0,0,0,8,67.84V86.59A1.11,1.11,0,0,0,9.17,87.77Z" style="fill:#fff"/></g></svg>