<svg xmlns="http://www.w3.org/2000/svg" viewBox="0 0 100 100"><title>Artboard 1 copy 5</title><g id="Layer_6" data-name="Layer 6"><g id="paths"><g id="Storage_queue" data-name="Storage queue"><polygon points="78.47 41.52 53.37 41.52 65.92 51.21 78.47 41.52" style="fill:#fff"/><path d="M27.65,54.55a1.13,1.13,0,0,1-.92-.3L15.1,45.15V60H41.73V44.85L29.18,54.24A3.36,3.36,0,0,1,27.65,54.55Z" style="fill:#fff"/><path d="M65.92,54.55c-.31,0-.92,0-.92-.3L53.06,45.15V60H79.69V44.85L67.14,54.24A2.33,2.33,0,0,1,65.92,54.55Z" style="fill:#fff"/><polygon points="40.2 41.52 14.8 41.52 27.35 51.21 40.2 41.52" style="fill:#fff"/><path d="M6.22,33.64A1.31,1.31,0,0,0,5,34.85v30c0,.61.61,1.52,1.22,1.52H84.9C86.43,64.85,91,57.58,95,50.61a166.37,166.37,0,0,0-10.1-17ZM44.8,61.52a2,2,0,0,1-2.14,1.82h-30c-.92,0-1.22-.91-1.22-1.82V39.39c0-.91.31-1.21,1.22-1.21h30c.92,0,2.14.3,2.14,1.21Zm37.65,0a1.7,1.7,0,0,1-1.53,1.82H51.22a1.7,1.7,0,0,1-1.53-1.82V39.39c0-.91.61-1.21,1.53-1.21H80.92c.92,0,1.53.3,1.53,1.21Z" style="fill:#fff"/></g></g></g></svg>