<?xml version="1.0" encoding="utf-8"?>
<!-- Generator: Adobe Illustrator 22.1.0, SVG Export Plug-In . SVG Version: 6.00 Build 0)  -->
<svg version="1.1" id="Layer_1" focusable="false"
	 xmlns="http://www.w3.org/2000/svg" xmlns:xlink="http://www.w3.org/1999/xlink" x="0px" y="0px" viewBox="0 0 50 50"
	 style="enable-background:new 0 0 50 50;" xml:space="preserve">
<style type="text/css">
	.st0{fill:#A0A1A2;}
	.st1{opacity:0.15;fill:#FFFFFF;enable-background:new    ;}
	.st2{opacity:0.1;fill:#FFFFFF;enable-background:new    ;}
	.st3{fill:#FFFFFF;}
</style>
<g>
	<path d="M0,44.5c0,1.1,0.9,2,2,2h46c1.1,0,2-0.9,2-2v-32H0V44.5z"/>
	<path class="st0" d="M48,3.9H2c-1.1,0-2,0.9-2,2c0,0,0,0,0,0v7.3h50V5.9C50,4.8,49.1,3.9,48,3.9z"/>
	<path class="st1" d="M0,13.2h50v3.3H0V13.2z"/>
	<path class="st2" d="M2,3.9c-1.1,0-2,0.9-2,2c0,0,0,0,0,0v38.6c0,1.1,0.9,2,2,2h19.2L43.6,3.9H2z"/>
	<path class="st3" d="M7.4,37.2V36l9-4.4v-0.1l-9-5v-1.2l11,6.2v0.2L7.4,37.2z M17.6,41.7h11.3v1.6H17.6V41.7z"/>
</g>
</svg>