<svg xmlns="http://www.w3.org/2000/svg" viewBox="0 0 18 18" width="18" height="18">
  <defs>
    <linearGradient id="a81d62e1-3cc8-40e1-b6f4-2e20ff8b7f56" x1="-579.075" y1="20.292" x2="-579.075" y2="-3.336" gradientTransform="matrix(-1, 0, 0, 1, -570.075, 0)" gradientUnits="userSpaceOnUse">
      <stop offset="0" stop-color="#0078d4" />
      <stop offset="1" stop-color="#83b9f9" />
    </linearGradient>
  </defs>
  <polygon points="1.21 4.499 9.006 0 16.8 4.499 16.8 13.501 9.006 18 1.2 13.501 1.2 4.53 1.21 4.499" fill="url(#a81d62e1-3cc8-40e1-b6f4-2e20ff8b7f56)" />
  <polygon points="1.221 4.515 8.998 8.987 8.999 17.986 1.21 13.497 1.21 4.546 1.221 4.515" fill="#0078d4" />
  <path d="M5.162,9.83a.053.053,0,0,0-.055-.005l-1.693.959c-.05.028-.016.145.054.185l.9.429.056.032a.173.173,0,0,1,.078.136L4.493,13.6a.489.489,0,0,0,.217.38l.671.4c.124.071.223.016.224-.124l.007-2.043c0-.05.034-.07.078-.045l.056.032,1.048.642c.07.04.105-.037.056-.122L5.217,9.888A.162.162,0,0,0,5.162,9.83Z" fill="#fff" opacity="0.9" />
  <path d="M4.031,6.133l7.6-4.618,2.383,1.373-7.6,4.621V8.972a.109.109,0,0,1-.193.07l-1.008-1.2A.111.111,0,0,0,5.1,7.806l-.937.2A.109.109,0,0,1,4.031,7.9Z" fill="#fff" opacity="0.5" />
</svg>