<?xml version="1.0" encoding="utf-8"?>
<!-- Generator: Adobe Illustrator 19.2.1, SVG Export Plug-In . SVG Version: 6.00 Build 0)  -->
<svg version="1.1" id="Layer_1" xmlns="http://www.w3.org/2000/svg" xmlns:xlink="http://www.w3.org/1999/xlink" x="0px" y="0px"
	 viewBox="0 0 16 16" style="enable-background:new 0 0 16 16;" xml:space="preserve">
<g>
	<g>
		<g>
			<polygon style="fill:#3999C6;" points="9.0231,1.49677 6.95895,0.62915 0.39652,3.39449 2.70842,4.4125 			"/>
			<polygon style="fill:#3999C6;" points="11.52872,2.55001 5.17232,5.49761 6.93648,6.27449 13.67598,3.45255 			"/>
		</g>
	</g>
	<path style="fill:#59B4D9;" d="M10.10627,12.19556c0-1.78308,1.44541-3.2285,3.2285-3.2285
		c0.20085,0,0.39685,0.02103,0.58767,0.05612V3.88239L7.2426,6.79166v8.57918l3.37437-1.43733
		C10.29515,13.43139,10.10627,12.83595,10.10627,12.19556z"/>
	<path style="opacity:0.5;fill:#FFFFFF;" d="M10.10644,12.19556c0-1.78308,1.44541-3.2285,3.22833-3.2285
		c0.20085,0,0.39685,0.02103,0.58767,0.05612V3.88239L7.24277,6.79166v8.57918l3.37437-1.43733
		C10.29532,13.43139,10.10644,12.83595,10.10644,12.19556z"/>
	<path style="fill:#7A7A7A;" d="M13.31148,9.47193c-1.48229,0-2.68837,1.20576-2.68837,2.68837s1.20608,2.68837,2.68837,2.68837
		C14.79409,14.84867,16,13.64291,16,12.1603S14.79409,9.47193,13.31148,9.47193z M12.01136,13.27921
		c-0.09186-0.08959-0.09702-0.2222,0.00065-0.32245l0.76168-0.81376l-0.60223-0.63748
		c-0.04625-0.04819-0.09412-0.09477-0.1394-0.14425c-0.09638-0.10479-0.09379-0.23578,0.00485-0.33022
		c0.08328-0.0799,0.22672-0.07699,0.31664,0.01487c0.26926,0.27459,0.53528,0.55241,0.80276,0.82896
		c0.04398,0.04592,0.08959,0.09055,0.13163,0.13811c0.09153,0.10381,0.09475,0.22672-0.00194,0.3231
		c-0.3173,0.31664-0.63717,0.63102-0.95899,0.94312C12.23129,13.37171,12.10095,13.36654,12.01136,13.27921z M14.61079,12.33608
		c-0.3173,0.31664-0.63717,0.63102-0.95899,0.94312c-0.09573,0.0925-0.22607,0.08734-0.31566,0
		c-0.09186-0.08959-0.09702-0.2222,0.00065-0.32245l0.76168-0.81376l-0.60223-0.63748
		c-0.04625-0.04819-0.09413-0.09477-0.1394-0.14425c-0.09638-0.10479-0.09379-0.23578,0.00485-0.33022
		c0.08328-0.0799,0.22672-0.07699,0.31664,0.01487c0.26926,0.27459,0.53528,0.55241,0.80276,0.82896
		c0.04398,0.04592,0.08959,0.09055,0.13163,0.13811C14.70425,12.1168,14.70748,12.23971,14.61079,12.33608z"/>
	<path style="fill:#59B4D9;" d="M4.92974,6.15514v2.21859L3.61273,6.74993L2.28456,7.2684V4.91899L0,3.88595v8.66038l6.6779,2.82452
		V6.88223L4.92974,6.15514z M4.58998,10.71408c-0.13359,0.09009-0.31664,0.05433-0.38344-0.04463L3.45878,9.56008v2.42088
		c0,0.10512-0.12403,0.26828-0.30127,0.26828s-0.30112-0.16316-0.30112-0.26828V9.25088L2.07594,9.65937
		C2.00253,9.69786,1.80555,9.65808,1.72988,9.5135C1.6542,9.36893,1.72858,9.1747,1.80199,9.13638l1.34726-0.70541
		c0.03347-0.02588,0.07422-0.0414,0.11837-0.0414c0.06582,0,0.12372,0.03444,0.16156,0.08717
		c0.00308,0.00371,0.00712,0.00629,0.01004,0.0105l1.25102,1.85601C4.75719,10.44256,4.72356,10.62401,4.58998,10.71408z"/>
	<path style="fill:#A0A1A2;" d="M11.64281,14.26439l0.73523-1.03531c-0.01714,0.01649-0.03386,0.03363-0.05102,0.05013
		c-0.09573,0.0925-0.22607,0.08734-0.31566,0c-0.09186-0.08959-0.09702-0.2222,0.00065-0.32245l0.76168-0.81376l-0.60223-0.63748
		c-0.04625-0.04819-0.09412-0.09477-0.1394-0.14425c-0.09638-0.10479-0.09379-0.23578,0.00485-0.33022
		c0.08328-0.0799,0.22672-0.07699,0.31664,0.01487c0.26926,0.27459,0.53528,0.55241,0.80276,0.82896
		c0.03509,0.03671,0.07058,0.07309,0.1051,0.11029l0.29521-0.41562l-0.06039-0.06404
		c-0.04625-0.04819-0.09413-0.09477-0.1394-0.14425c-0.09638-0.10479-0.09379-0.23578,0.00485-0.33022
		c0.08328-0.0799,0.22672-0.07699,0.31664,0.01487c0.04844,0.04933,0.09606,0.09946,0.14433,0.1491l0.92549-1.30326
		c-0.41616-0.26441-0.9081-0.41982-1.43667-0.41982c-1.48229,0-2.68837,1.20576-2.68837,2.68837
		C10.62311,13.01238,11.02263,13.77148,11.64281,14.26439z"/>
</g>
</svg>
