<svg width="16" height="16" viewBox="0 0 16 16" fill="none" 
    xmlns="http://www.w3.org/2000/svg">
    <g clip-path="url(#clip0)">
        <path d="M8.1001 16.1C12.5184 16.1 16.1001 12.5183 16.1001 8.10001C16.1001 3.68173 12.5184 0.100006 8.1001 0.100006C3.68182 0.100006 0.100098 3.68173 0.100098 8.10001C0.100098 12.5183 3.68182 16.1 8.1001 16.1Z" fill="#E00B1C"/>
        <path d="M12.6937 4.728L11.2717 3.306L7.99966 6.578L4.72766 3.306L3.30566 4.728L6.57766 8L3.30566 11.272L4.72766 12.694L7.99966 9.422L11.2717 12.694L12.6937 11.272L9.42166 8L12.6937 4.728Z" fill="white"/>
    </g>
    <defs>
        <clipPath id="clip0">
            <path d="M0 0H16V16H0V0Z" fill="white"/>
        </clipPath>
    </defs>
</svg>
