<svg width="16" height="16" viewBox="0 0 16 16" fill="none" xmlns="http://www.w3.org/2000/svg">
<g clip-path="url(#clip0)">
<path d="M8.1001 16.0996C12.5184 16.0996 16.1001 12.5179 16.1001 8.09961C16.1001 3.68133 12.5184 0.0996094 8.1001 0.0996094C3.68182 0.0996094 0.100098 3.68133 0.100098 8.09961C0.100098 12.5179 3.68182 16.0996 8.1001 16.0996Z" fill="#E00B1C"/>
<path d="M12.6939 4.72766L11.2719 3.30566L7.99991 6.57766L4.72791 3.30566L3.30591 4.72766L6.57791 7.99966L3.30591 11.2717L4.72791 12.6937L7.99991 9.42166L11.2719 12.6937L12.6939 11.2717L9.42191 7.99966L12.6939 4.72766Z" fill="white"/>
</g>
<defs>
<clipPath id="clip0">
<path d="M0 0H16V16H0V0Z" fill="white"/>
</clipPath>
</defs>
</svg>
