<svg width="16" height="16" viewBox="0 0 16 16" fill="none" 
    xmlns="http://www.w3.org/2000/svg">
    <path d="M8 15C11.866 15 15 11.866 15 8C15 4.13401 11.866 1 8 1C4.13401 1 1 4.13401 1 8C1 11.866 4.13401 15 8 15Z" fill="#015CDA"/>
    <path d="M7.99986 5.87201C8.6985 5.87201 9.26486 5.30565 9.26486 4.60701C9.26486 3.90837 8.6985 3.34201 7.99986 3.34201C7.30122 3.34201 6.73486 3.90837 6.73486 4.60701C6.73486 5.30565 7.30122 5.87201 7.99986 5.87201Z" fill="white"/>
    <path d="M8.96106 13.229V7.11499H7.04806L7.03906 13.229H8.96106Z" fill="white"/>
</svg>
