<svg xmlns="http://www.w3.org/2000/svg" width="12" height="14" viewBox="0 0 14 14">
    <g data-name="Layer 2">
        <g data-name="icons">
            <path d="M7,14a6.68,6.68,0,0,1-1.86-.25,7.28,7.28,0,0,1-1.68-.7A6.49,6.49,0,0,1,2.05,12,7.55,7.55,0,0,1,1,10.54,6.32,6.32,0,0,1,.25,8.87,7.21,7.21,0,0,1,0,7,6.68,6.68,0,0,1,.25,5.14,7.28,7.28,0,0,1,1,3.46,6.49,6.49,0,0,1,2,2.05,7.55,7.55,0,0,1,3.46,1,6.32,6.32,0,0,1,5.13.25,7.21,7.21,0,0,1,7,0,6.68,6.68,0,0,1,8.86.25a7.28,7.28,0,0,1,1.68.7A6.49,6.49,0,0,1,12,2,7.55,7.55,0,0,1,13,3.46a6.32,6.32,0,0,1,.71,1.67A7.21,7.21,0,0,1,14,7a6.68,6.68,0,0,1-.25,1.86,7.28,7.28,0,0,1-.7,1.68A6.49,6.49,0,0,1,12,12,7.55,7.55,0,0,1,10.54,13a6.32,6.32,0,0,1-1.67.71A7.21,7.21,0,0,1,7,14ZM7,.93a6.08,6.08,0,0,0-1.61.22,6.44,6.44,0,0,0-1.45.61,7,7,0,0,0-1.23,1,6,6,0,0,0-.95,1.23,6.72,6.72,0,0,0-.61,1.45A5.79,5.79,0,0,0,.93,7a6.06,6.06,0,0,0,.22,1.6,6.72,6.72,0,0,0,.61,1.46,6.1,6.1,0,0,0,2.18,2.18A6.11,6.11,0,0,0,7,13.07a6.06,6.06,0,0,0,1.6-.22,6.72,6.72,0,0,0,1.46-.61,6.1,6.1,0,0,0,2.18-2.18A6.11,6.11,0,0,0,13.07,7a6.06,6.06,0,0,0-.22-1.6,6.72,6.72,0,0,0-.61-1.46,6.1,6.1,0,0,0-2.18-2.18A6.11,6.11,0,0,0,7,.93ZM6.53,5.6h.94v4.67H6.53Zm0-1.87h.94v.94H6.53Z"/>
        </g>
    </g>
</svg>