<svg width="16" height="16" viewBox="0 0 16 16" fill="none" 
    xmlns="http://www.w3.org/2000/svg">
    <path d="M8 16C12.4183 16 16 12.4183 16 8C16 3.58172 12.4183 0 8 0C3.58172 0 0 3.58172 0 8C0 12.4183 3.58172 16 8 16Z" fill="#57A300"/>
    <path d="M3.55311 8.29101C3.47911 8.21201 3.44111 8.10801 3.44511 8.00001C3.44911 7.89101 3.49511 7.79101 3.57511 7.71601L4.41011 6.94401C4.48611 6.87501 4.58311 6.83701 4.68411 6.83701C4.79611 6.83701 4.90411 6.88401 4.98011 6.96601L7.11611 9.25801L10.9231 4.38301C11.0001 4.28401 11.1161 4.22601 11.2421 4.22601C11.3321 4.22601 11.4171 4.25501 11.4891 4.31001L12.3951 5.00901C12.5681 5.13701 12.6051 5.38601 12.4751 5.56301L7.60711 11.796C7.41811 12.038 7.05711 12.054 6.84711 11.829L3.55311 8.29101Z" fill="white"/>
</svg>
