<svg viewBox="0 0 50 50" focusable="false" xmlns:xlink="http://www.w3.org/1999/xlink" xmlns:svg="http://www.w3.org/2000/svg" class="fxs-portal-svg" role="presentation" id="FxSymbol0-083" width="100%" height="100%"><g><title></title><path class="msportalfx-svg-c15" d="M25.001 50.001a4.575 4.575 0 0 1-3.261-1.352L1.351 28.261A4.64 4.64 0 0 1 0 25c0-1.214.492-2.402 1.351-3.26L21.74 1.352A4.578 4.578 0 0 1 25.001 0c1.231 0 2.39.48 3.261 1.352L48.648 21.74A4.565 4.565 0 0 1 50 25a4.574 4.574 0 0 1-1.353 3.263L28.262 48.649a4.578 4.578 0 0 1-3.261 1.352"></path><path class="msportalfx-svg-c01" d="M38.614 21.093a3.91 3.91 0 0 0-3.91 3.909c0 .792.239 1.527.645 2.143l-7.744 7.744a4.55 4.55 0 0 0-.656-.373V14.759c1.167-.676 1.961-1.924 1.961-3.37a3.91 3.91 0 0 0-7.818 0c0 1.446.794 2.694 1.96 3.37v19.756a4.48 4.48 0 0 0-.632.353l-7.753-7.753a3.88 3.88 0 0 0 .628-2.113 3.909 3.909 0 1 0-3.908 3.909 3.88 3.88 0 0 0 1.274-.23l8.15 8.15a4.552 4.552 0 1 0 8.387.032l8.173-8.172c.392.132.804.22 1.241.22a3.909 3.909 0 0 0 .002-7.818z"></path><path class="msportalfx-svg-c01" d="M40.471 24.983l-1.784 1.785L24.065 12.15l1.784-1.784z" opacity=".5"></path><path class="msportalfx-svg-c01" d="M24.166 10.377l1.784 1.785-14.62 14.62-1.785-1.784z" opacity=".5"></path><path class="msportalfx-svg-c13" d="M27.665 38.614a2.71 2.71 0 1 1-5.42-.002 2.71 2.71 0 0 1 5.42.002m-.491-27.225a2.174 2.174 0 1 1-4.347 0 2.174 2.174 0 0 1 4.347 0M13.563 25.001a2.175 2.175 0 1 1-4.35-.002 2.175 2.175 0 0 1 4.35.002m27.225 0a2.175 2.175 0 1 1-4.35-.002 2.175 2.175 0 0 1 4.35.002"></path><path class="msportalfx-svg-c01" d="M28.262 1.352A4.578 4.578 0 0 0 25.001 0c-1.231 0-2.389.48-3.26 1.352L1.352 21.74A4.635 4.635 0 0 0 0 25c0 1.215.492 2.403 1.352 3.261l11.543 11.544L34.61 7.699l-6.348-6.347z" opacity=".1"></path></g></svg>