<svg viewBox="0 0 50 50" class="fxs-portal-svg" role="presentation" focusable="false" xmlns:svg="http://www.w3.org/2000/svg" xmlns:xlink="http://www.w3.org/1999/xlink" id="FxSymbol0-042" width="100%" height="100%"><g><title></title><path d="M.001 35.998h50v10.003h-50z" class="msportalfx-svg-c02"></path><path d="M2.001 38.061h46v5.941h-46z" class="msportalfx-svg-c14"></path><path opacity="0.6" d="M20.001 37.998h28v6.003h-28z" class="msportalfx-svg-c01"></path><path d="M18.001 36.002h4v9.999h-4z" class="msportalfx-svg-c04"></path><path opacity="0.7" d="M18.001 36h2v10h-2z" class="msportalfx-svg-c01"></path><path d="M.001 19.999h50v10.003h-50z" class="msportalfx-svg-c02"></path><path d="M2.001 22.06h46v5.941h-46z" class="msportalfx-svg-c14"></path><path opacity="0.6" d="M36.001 21.993h12v6.003h-12z" class="msportalfx-svg-c01"></path><path d="M34.001 20.002h4v9.999h-4z" class="msportalfx-svg-c04"></path><path opacity="0.7" d="M34.001 20h2v10h-2z" class="msportalfx-svg-c01"></path><path d="M.001 3.999h50v10.003h-50z" class="msportalfx-svg-c02"></path><path d="M2.001 6.06h46v5.941h-46z" class="msportalfx-svg-c14"></path><path opacity="0.6" d="M20.001 5.999h28v6.003h-28z" class="msportalfx-svg-c01"></path><path d="M18.001 4.002h4v9.999h-4z" class="msportalfx-svg-c04"></path><path opacity="0.7" d="M18.001 4h2v10h-2z" class="msportalfx-svg-c01"></path><path opacity="0.2" d="M22.001 36h2v10h-2zm0-31.969h2v10h-2zm16 15.963h2v10h-2z" class="msportalfx-svg-c06"></path></g></svg>