<svg viewBox="0 0 50 50" class=" fxs-portal-svg" role="presentation" focusable="false" xmlns:svg="http://www.w3.org/2000/svg" xmlns:xlink="http://www.w3.org/1999/xlink" aria-hidden="true"><g><path d="M0 44.525c0 1.108.898 2.007 2.007 2.007h45.986A2.007 2.007 0 0 0 50 44.525V12.531H0v31.994z" class="msportalfx-svg-c05"></path><path d="M47.993 3.898H2.007A2.006 2.006 0 0 0 0 5.904v7.291h50V5.904a2.007 2.007 0 0 0-2.007-2.006z" class="msportalfx-svg-c03"></path><path opacity="0.15" d="M0 13.195h50v3.336H0z" class="msportalfx-svg-c01"></path><path opacity="0.1" d="M2.014 3.898A2.007 2.007 0 0 0 .007 5.905v38.62c0 1.108.899 2.007 2.007 2.007h19.188L43.62 3.898H2.014z" class="msportalfx-svg-c01"></path><path d="M7.363 37.231V35.96l8.98-4.425v-.054l-8.98-5.021v-1.245l11.034 6.188v.238zm10.258 4.452h11.262v1.576H17.621z" class="msportalfx-svg-c01"></path></g></svg>