<svg viewBox="0 0 50 50" class="fxs-portal-svg" role="presentation" focusable="false" xmlns:svg="http://www.w3.org/2000/svg" xmlns:xlink="http://www.w3.org/1999/xlink" id="FxSymbol0-01f" width="100%" height="100%"><g><title></title><path d="M43.327 0H6.275C2.611-.02 0 2.188 0 5.839v26.218c0 3.706 2.661 6.985 6.329 7.029l13.383.025L30.702 49.9l.082-10.758h12.441c3.661.03 6.664-2.933 6.664-6.594l.056-26.317C49.97 2.59 46.993 0 43.327 0" class="msportalfx-svg-c13"></path><path d="M28.611 27.92a3.666 3.666 0 1 1-7.332 0 3.666 3.666 0 0 1 7.332 0M25.636 6.305h-3.597l.918 15.932h4.326l.919-15.932z" class="msportalfx-svg-c01"></path></g></svg>