<svg viewBox="0.5 0.5 24 24" class="svg-monochromatic" role="presentation" focusable="false" xmlns:svg="http://www.w3.org/2000/svg" xmlns:xlink="http://www.w3.org/1999/xlink" id="FxSymbol0-043" width="100%" height="100%"><g><title></title><path d="M19.846 6.5H5.154c-.553 0-.654-.23-.654-.5s.101-1.5.654-1.5h14.692c.553 0 .654 1.23.654 1.5s-.101.5-.654.5zm-5.516-3h-3.734c-.402 0-.597-.13-.597-.5.011-.36.149-.5.597-.5h3.686c.402 0 .717.14.717.5 0 .37-.256.5-.646.5h-.023zm-8.83 4v14c.04.82 3.537 1 4.337 1h5.862c.8 0 3.761-.18 3.801-1v-14h-14zm4.042 11.667c.01.36-.27.68-.62.69h-.73c-.35 0-.63-.28-.65-.65v-9.37c-.01-.37.542-.726 1.023-.726.34 0 .967.316.977.676v9.38zm3.958-.011c-.01.36-.3.64-.64.64h-.74c-.35-.01-.63-.33-.62-.7v-9.37c.02-.37.642-.655 1.002-.635s1.008.325.998.695v9.37zm3.896-.005c-.01.36-.3.64-.64.64h-.74c-.35-.01-.63-.33-.62-.7v-9.37c.02-.37.642-.654 1.002-.635.36.02 1.008.325.998.695v9.37z"></path></g></svg>