<svg viewBox="0 0 50 50" class="fxs-portal-svg" role="presentation" focusable="false" xmlns:svg="http://www.w3.org/2000/svg" xmlns:xlink="http://www.w3.org/1999/xlink" id="FxSymbol0-040" width="100%" height="100%"><g><title></title><path d="M50 27.726v-5.69l-.803-.261-6.091-1.989-1.625-3.925 3.124-6.609-4.024-4.023-.755.381-5.711 2.903-3.925-1.628L27.724 0h-5.688l-.263.807-1.989 6.092-3.922 1.623L9.25 5.4 5.227 9.422l.383.753 2.9 5.714-1.623 3.921L0 22.276v5.691l.804.264 6.092 1.987 1.625 3.923-3.123 6.611 4.021 4.025.755-.384 5.712-2.901 3.924 1.625L22.275 50h5.691l.262-.803 1.989-6.089 3.923-1.626 6.61 3.126 4.025-4.026-.383-.754-2.902-5.711 1.627-3.924z" class="msportalfx-svg-c04"></path><path opacity="0.2" d="M39.749 5.648l-5.634 2.865-3.925-1.627L27.725 0h-5.689l-.262.807-1.989 6.091-3.922 1.624-6.614-3.124-4.022 4.024.383.753 2.9 5.715-1.623 3.92L0 22.277v5.69l.804.263 6.092 1.988 1.625 3.923-3.123 6.611 4.021 4.025.755-.384 2.433-1.236 3.452-4.77.018.012 19.047-26.32-.018-.014 4.643-6.417z" class="msportalfx-svg-c01"></path><path d="M32.527 16.257l-2.369 2.391a7.99 7.99 0 0 1 3.554 6.632c0 4.331-3.472 7.769-7.781 7.699-4.285-.07-7.792-3.635-7.792-7.978 0-2.433 1.245-4.587 2.989-5.994L23 20.747V15h-5.809l1.421 1.522a11.052 11.052 0 0 0-3.817 8.371c0 6.201 5.016 11.312 11.148 11.417 6.155.104 10.916-4.725 10.916-10.915 0-3.693-1.591-7.048-4.332-9.138z" class="msportalfx-svg-c01"></path></g></svg>