<svg viewBox="-10.5 -9.5 50 50" class="fxs-portal-svg" role="presentation" focusable="false" xmlns:svg="http://www.w3.org/2000/svg" xmlns:xlink="http://www.w3.org/1999/xlink" id="FxSymbol0-05c" width="100%" height="100%"><g><title></title><path d="M34.492 35.865h2V-9.5h-41C-5.801-9.333-8.5-6.2-8.5-5.749l.059 43.882A2.368 2.368 0 0 0-6.073 40.5h37.565v-.729l3-3.906z" class="msportalfx-svg-c14"></path><path d="M-2.726-7.5c-1.105 0-1.58.185-2.507 1-2.275 2 .39 2 1.495 2h35.23v44.271l3-3.906V-7.5H-2.726z" class="msportalfx-svg-c02"></path><path opacity="0.5" d="M31.492 39.771l3-3.906V-7.5l-3 3z" class="msportalfx-svg-c03"></path><path d="M15.417 29.203l-4.302-17.581-2.241 6.076H.492a1.5 1.5 0 1 1 0-3h6.29l4.915-13.32 4.507 18.419 2.197-5.099h7.091a1.5 1.5 0 1 1 0 3h-5.116l-4.959 11.505z" class="msportalfx-svg-c01"></path></g></svg>