<svg xmlns="http://www.w3.org/2000/svg" viewBox="0 0 100 100"><title>Artboard 1 copy 2</title><g id="Layer_3" data-name="Layer 3"><path d="M60.26,45.6a1.38,1.38,0,0,1-1.47,1.47H47.36A1.38,1.38,0,0,1,45.9,45.6V37.1a1.38,1.38,0,0,1,1.47-1.47H58.79a1.38,1.38,0,0,1,1.47,1.47Z" style="fill:#fff"/><path d="M80.78,54.4a1.38,1.38,0,0,1-1.47,1.47H67.88a1.38,1.38,0,0,1-1.47-1.47V45.9a1.38,1.38,0,0,1,1.47-1.47H79.31a1.38,1.38,0,0,1,1.47,1.47Z" style="fill:#fff"/><path d="M60.26,63.19a1.38,1.38,0,0,1-1.47,1.47H47.36a1.38,1.38,0,0,1-1.47-1.47v-8.5a1.38,1.38,0,0,1,1.47-1.47H58.79a1.38,1.38,0,0,1,1.47,1.47Z" style="fill:#fff"/><path d="M39.74,36.81a1.38,1.38,0,0,1-1.47,1.47H26.55a1.38,1.38,0,0,1-1.47-1.47V28a1.38,1.38,0,0,1,1.47-1.47H38c1.17,0,1.76.59,1.76,1.47Z" style="fill:#fff"/><path d="M91,6H9A1.38,1.38,0,0,0,7.5,7.5V25.09A1.38,1.38,0,0,0,9,26.55h8.79a1.38,1.38,0,0,0,1.47-1.47V17.76H80.78v7.33c0,.88.59,1.47,1.76,1.47H91a1.38,1.38,0,0,0,1.47-1.47V7.5A1.38,1.38,0,0,0,91,6Z" style="fill:#fff"/><path d="M91,73.74h-8.5a1.38,1.38,0,0,0-1.47,1.47v7H19.22V74.91c0-.88-.59-1.47-1.76-1.47H9c-.88,0-1.47.59-1.47,1.76V92.5A1.38,1.38,0,0,0,9,94H91A1.38,1.38,0,0,0,92.5,92.5V75.21A1.38,1.38,0,0,0,91,73.74Z" style="fill:#fff"/><path d="M39.74,54.4a1.38,1.38,0,0,1-1.47,1.47H26.55a1.38,1.38,0,0,1-1.47-1.47V45.6a1.38,1.38,0,0,1,1.47-1.47H38c1.17,0,1.76.59,1.76,1.47Z" style="fill:#fff"/><path d="M39.74,72a1.38,1.38,0,0,1-1.47,1.47H26.55A1.38,1.38,0,0,1,25.09,72V63.19a1.38,1.38,0,0,1,1.47-1.47H38c1.17,0,1.76.59,1.76,1.47Z" style="fill:#fff"/></g></svg>