<?xml version="1.0" encoding="utf-8"?>
<!-- Generator: Adobe Illustrator 19.1.0, SVG Export Plug-In . SVG Version: 6.00 Build 0)  -->
<svg version="1.1" id="Layer_1" xmlns="http://www.w3.org/2000/svg" xmlns:xlink="http://www.w3.org/1999/xlink" x="0px" y="0px"
	 viewBox="0 0 210 100" enable-background="new 0 0 210 100" xml:space="preserve">
<g>
	<circle fill="#3999C6" cx="114.1" cy="50" r="46.3"/>
	<polygon fill="#F8D731" points="17.5,9.1 7.9,9.1 2.2,24.8 7.5,24.8 3.2,37.3 17.5,20.4 10.2,20.6 	"/>
	<g>
		<path fill="#FFFFFF" d="M32.4,26.7c-6.7,0-12.2-2-12.3-4.4h0v2.4c0,2.5,5.5,4.5,12.3,4.5c6.8,0,12.3-2,12.3-4.5v-2.4h0
			C44.6,24.8,39.1,26.7,32.4,26.7z"/>
		<path fill="#FFFFFF" d="M32.4,31.7c-6.7,0-12.2-2-12.3-4.4h0v2.4c0,2.5,5.5,4.5,12.3,4.5c6.8,0,12.3-2,12.3-4.5v-2.4h0
			C44.6,29.7,39.1,31.7,32.4,31.7z"/>
		<path fill="#FFFFFF" d="M32.4,36.6c-6.7,0-12.2-2-12.3-4.4h0v2.4c0,2.5,5.5,4.5,12.3,4.5c6.8,0,12.3-2,12.3-4.5v-2.4h0
			C44.6,34.6,39.1,36.6,32.4,36.6z"/>
		<path fill="#FFFFFF" d="M44.7,19.8c0,2.5-5.5,4.5-12.3,4.5S20,22.3,20,19.8v-2.4h24.6V19.8z"/>
		<path fill="#FFFFFF" d="M44.7,17.4c0,2.5-5.5,4.5-12.3,4.5S20,19.9,20,17.4s5.5-4.5,12.3-4.5S44.7,14.9,44.7,17.4"/>
	</g>
	<g>
		<path fill="#FFFFFF" d="M195.5,75.7c-6.7,0-12.2-2-12.3-4.4h0v2.4c0,2.5,5.5,4.5,12.3,4.5c6.8,0,12.3-2,12.3-4.5v-2.4h0
			C207.7,73.8,202.3,75.7,195.5,75.7z"/>
		<path fill="#FFFFFF" d="M195.5,80.7c-6.7,0-12.2-2-12.3-4.4h0v2.4c0,2.5,5.5,4.5,12.3,4.5c6.8,0,12.3-2,12.3-4.5v-2.4h0
			C207.7,78.7,202.3,80.7,195.5,80.7z"/>
		<path fill="#FFFFFF" d="M195.5,85.6c-6.7,0-12.2-2-12.3-4.4h0v2.4c0,2.5,5.5,4.5,12.3,4.5c6.8,0,12.3-2,12.3-4.5v-2.4h0
			C207.7,83.6,202.3,85.6,195.5,85.6z"/>
		<path fill="#FFFFFF" d="M207.8,68.8c0,2.5-5.5,4.5-12.3,4.5s-12.3-2-12.3-4.5v-2.4h24.6V68.8z"/>
		<path fill="#FFFFFF" d="M207.8,66.4c0,2.5-5.5,4.5-12.3,4.5s-12.3-2-12.3-4.5s5.5-4.5,12.3-4.5S207.8,63.9,207.8,66.4"/>
	</g>
	<g>
		<g>
			<polyline fill="none" stroke="#FFFFFF" stroke-miterlimit="10" points="54.4,25.8 73.9,25.8 79.7,31.6 			"/>
			<g>
				<polygon fill="#FFFFFF" points="75.2,34.1 84.8,36.7 82.2,27 				"/>
			</g>
		</g>
	</g>
	<g>
		<g>
			<polyline fill="none" stroke="#FFFFFF" stroke-miterlimit="10" points="165.6,74.7 153.3,74.7 142.4,63.8 			"/>
			<g>
				<polygon fill="#FFFFFF" points="164.2,69.7 172.8,74.7 164.2,79.7 				"/>
			</g>
		</g>
	</g>
	<g>
		<path fill="#FFFFFF" d="M144.4,52.2c0.6-0.6,0.5-1.6,0-2.2l-3-3l-13.5-13.1c-0.6-0.6-1.5-0.6-2.1,0l0,0c-0.6,0.6-0.7,1.6,0,2.2
			l14.1,13.9c0.6,0.6,0.6,1.6,0,2.2l-14.4,14.4c-0.6,0.6-0.6,1.6,0,2.2l0,0c0.6,0.6,1.6,0.5,2.1,0l13.4-13.2c0,0,0,0,0.1-0.1
			L144.4,52.2z"/>
		<path fill="#FFFFFF" d="M82.8,52.2c-0.6-0.6-0.5-1.6,0-2.2l3-3l13.5-13.1c0.6-0.6,1.5-0.6,2.1,0l0,0c0.6,0.6,0.7,1.6,0,2.2
			L87.6,49.9c-0.6,0.6-0.6,1.6,0,2.2l14.1,14.4c0.6,0.6,0.6,1.6,0,2.2l0,0c-0.6,0.6-1.6,0.5-2.1,0L85.9,55.7c0,0,0,0-0.1-0.1
			L82.8,52.2z"/>
		<polygon fill="#FFFFFF" points="128.9,23 109.8,23 99.6,51.9 112,52 102.3,80.6 129.2,42.4 116.1,42.4 		"/>
		<polygon opacity="0.3" fill="#FFFFFF" enable-background="new    " points="116.1,42.4 128.9,23 118.9,23 108.4,47 120.8,47.1 
			102.3,80.6 129.2,42.4 		"/>
	</g>
</g>
</svg>
