
    <svg xmlns="http://www.w3.org/2000/svg" class="" role="presentation" aria-hidden="true" viewBox="0 0 15 15" focusable="false" xmlns:xlink="http://www.w3.org/1999/xlink" xmlns:svg="http://www.w3.org/2000/svg">
      <g>
        <path style="fill:red;" d="M 12.133 3.033 a 0.995 0.995 0 1 0 -1.408 1.408 a 4.543 4.543 0 0 1 1.336 3.225 a 4.544 4.544 0 0 1 -1.336 3.225 A 4.547 4.547 0 0 1 7.5 12.227 a 4.54 4.54 0 0 1 -3.224 -1.336 A 4.544 4.544 0 0 1 2.94 7.666 a 4.543 4.543 0 0 1 1.336 -3.225 a 0.995 0.995 0 1 0 -1.408 -1.408 a 6.537 6.537 0 0 0 -1.92 4.633 a 6.535 6.535 0 0 0 1.92 4.633 A 6.537 6.537 0 0 0 7.5 14.218 h 0.004 a 6.53 6.53 0 0 0 4.628 -1.919 a 6.534 6.534 0 0 0 1.919 -4.633 a 6.534 6.534 0 0 0 -1.918 -4.633 Z M 7.5 8.662 c 0.55 0 0.996 -0.446 0.996 -0.996 V 1.655 a 0.996 0.996 0 0 0 -1.992 0 v 6.011 c 0 0.55 0.446 0.996 0.996 0.996 Z" />
      </g>
    </svg>