<svg xmlns="http://www.w3.org/2000/svg" viewBox="0 0 100 100"><title>Artboard 1 copy 4</title><g id="Layer_5" data-name="Layer 5"><path d="M92,50.53a2.38,2.38,0,0,0,0-3l-4.12-4.1L69.52,25.67a2.09,2.09,0,0,0-2.92,0h0a2,2,0,0,0,0,3L85.84,47.49a2.23,2.23,0,0,1,0,3L66.2,70a2.23,2.23,0,0,0,0,3h0a2.23,2.23,0,0,0,2.92,0L87.3,55l.13-.13Z" style="fill:#fff"/><path d="M8,50.53a2.38,2.38,0,0,1,0-3l4.12-4.1L30.48,25.67a2.09,2.09,0,0,1,2.92,0h0a2,2,0,0,1,0,3L14.55,47.49a2.23,2.23,0,0,0,0,3L33.8,70a2.23,2.23,0,0,1,0,3h0a2.23,2.23,0,0,1-2.92,0L12.3,55.29l-.13-.13Z" style="fill:#fff"/><polygon points="70.71 11 44.82 11 30.88 50.13 47.88 50.26 34.6 89 71.24 37.31 53.45 37.31 70.71 11" style="fill:#fff"/><polygon points="53.45 37.31 70.71 11 57.17 11 42.83 43.52 59.82 43.65 34.6 89 71.24 37.31 53.45 37.31" style="fill:#fff;opacity:0.300000011920929;isolation:isolate"/></g></svg>