<svg xmlns="http://www.w3.org/2000/svg" viewBox="0 0 100 100"><title>Artboard 1 copy 6</title><g id="Layer_7" data-name="Layer 7"><path d="M8.92,7.5A1.34,1.34,0,0,0,7.5,8.92v17a1.34,1.34,0,0,0,1.42,1.42h8.5a1.34,1.34,0,0,0,1.42-1.42V18.83H81.17v7.08c0,.85.57,1.42,1.7,1.42h8.22a1.34,1.34,0,0,0,1.42-1.42v-17A1.34,1.34,0,0,0,91.08,7.5H8.92Z" style="fill:#fff"/><path d="M91.08,92.5a1.34,1.34,0,0,0,1.42-1.42V74.37A1.34,1.34,0,0,0,91.08,73H82.87a1.34,1.34,0,0,0-1.42,1.42v6.8H18.83V74.08c0-.85-.57-1.42-1.7-1.42H8.92c-.85,0-1.42.57-1.42,1.7V91.08A1.34,1.34,0,0,0,8.92,92.5Z" style="fill:#fff"/><path d="M28.45,51.21a7.57,7.57,0,0,1-10.7,0L7.5,41V61.8H38.7V41Z" style="fill:#fff"/><path d="M23.1,51.9a6,6,0,0,0,4.27-1.77L38.7,38.81v-.6H7.5v.6L18.83,50.13A6,6,0,0,0,23.1,51.9Z" style="fill:#fff"/><path d="M82.25,51.21a7.57,7.57,0,0,1-10.7,0L61.3,41V61.8H92.5V41Z" style="fill:#fff"/><path d="M76.9,51.9a6,6,0,0,0,4.27-1.77L92.5,38.81v-.6H61.3v.6L72.63,50.13A6,6,0,0,0,76.9,51.9Z" style="fill:#fff"/><rect x="51.38" y="47.92" width="5.24" height="4.14" style="fill:#fff"/><rect x="43.27" y="47.92" width="5.55" height="4.14" style="fill:#fff"/></g></svg>