<?xml version="1.0" encoding="UTF-8" standalone="no"?>
<!-- Generator: Adobe Illustrator 19.1.0, SVG Export Plug-In . SVG Version: 6.00 Build 0)  -->

<svg
   xmlns:dc="http://purl.org/dc/elements/1.1/"
   xmlns:cc="http://creativecommons.org/ns#"
   xmlns:rdf="http://www.w3.org/1999/02/22-rdf-syntax-ns#"
   xmlns:svg="http://www.w3.org/2000/svg"
   xmlns="http://www.w3.org/2000/svg"
   xmlns:sodipodi="http://sodipodi.sourceforge.net/DTD/sodipodi-0.dtd"
   xmlns:inkscape="http://www.inkscape.org/namespaces/inkscape"
   version="1.1"
   id="Layer_1"
   x="0px"
   y="0px"
   width="50px"
   height="50px"
   viewBox="1 -1 50 50"
   enable-background="new 1 -1 50 50"
   xml:space="preserve"
   sodipodi:docname="SwaggerDefinition EVEN MORE BLUE.svg"
   inkscape:version="0.92.1 r15371"><metadata
     id="metadata3699"><rdf:RDF><cc:Work
         rdf:about=""><dc:format>image/svg+xml</dc:format><dc:type
           rdf:resource="http://purl.org/dc/dcmitype/StillImage" /><dc:title></dc:title></cc:Work></rdf:RDF></metadata><defs
     id="defs3697"><clipPath
       clipPathUnits="userSpaceOnUse"
       id="clipPath4517"><g
         id="use4519"
         inkscape:label="Clip"><path
           style="fill:#ffffff;stroke-width:0.10224949"
           d="M 5.038196,25.005327 V 1.9991916 H 7.3899343 9.7416725 V 7.932946 c 0,6.545497 -0.00848,6.453767 0.6329065,6.844811 0.327977,0.199961 0.503206,0.206379 5.655437,0.207127 l 5.316973,8.18e-4 0.424335,0.549459 c 0.865296,1.120449 2.368683,1.469152 3.643982,0.845206 2.260158,-1.105791 2.127163,-4.357556 -0.221445,-5.414398 -0.705324,-0.317386 -1.743877,-0.29419 -2.419484,0.05404 -0.497031,0.25614 -1.376263,1.089297 -1.376263,1.304096 0,0.06965 -1.518572,0.104533 -4.550102,0.104533 H 12.29791 V 7.2139155 1.9991916 h 12.678936 12.678937 v 5.2147239 5.2147235 h -3.15297 -3.152971 L 31.172841,11.792002 C 30.772849,10.353309 29.697418,8.75625 28.536067,7.8762872 27.196801,6.861516 25.756687,6.3867816 24.022298,6.3883215 c -1.844792,0.00164 -3.641642,0.6727301 -4.886091,1.8248708 -0.898176,0.831552 -0.993677,1.6174303 -0.2705,2.2259437 0.280352,0.2359 0.395434,0.267255 0.844296,0.230032 0.437617,-0.03629 0.615731,-0.121317 1.127726,-0.538343 3.102848,-2.5273048 7.64212,-0.6751593 8.079387,3.296609 0.08485,0.770681 -0.155274,1.89604 -0.570986,2.675995 -0.858397,1.610519 -2.451904,2.562429 -4.289529,2.562429 -1.303587,0 -2.065562,-0.308011 -3.67054,-1.483731 -0.393113,-0.287974 -0.778394,-0.320886 -1.283892,-0.109677 -0.633414,0.264658 -0.870197,0.963773 -0.571035,1.686013 0.289282,0.698389 2.001173,1.816084 3.480477,2.272405 0.912826,0.281581 2.755318,0.332131 3.680982,0.100992 2.677464,-0.668564 4.86353,-2.790639 5.513864,-5.352455 l 0.188717,-0.743404 4.024987,-0.05112 c 4.347101,-0.05522 4.287729,-0.04725 4.626574,-0.620868 0.147193,-0.249177 0.165285,-0.941235 0.165285,-6.3223115 V 1.9991916 h 2.351738 2.351739 V 25.005327 48.011461 H 24.976846 5.038196 Z m 23.347758,17.990424 c 0.403151,-0.317119 0.54346,-0.895852 0.327518,-1.350916 -0.339065,-0.714528 0.0469,-0.683671 -8.58403,-0.68626 -7.299147,-0.0022 -7.780337,0.0087 -8.07748,0.182205 -0.668368,0.390348 -0.770414,1.171293 -0.2244,1.717307 l 0.347648,0.347648 h 7.971896 c 7.886488,0 7.974756,-0.0022 8.238848,-0.209984 z m 10.198473,-7.639277 c 0.23199,-0.259652 0.297627,-0.430222 0.295098,-0.766871 -0.0035,-0.462875 -0.104191,-0.646951 -0.505185,-0.923325 -0.234924,-0.161915 -1.170742,-0.174244 -13.225971,-0.174244 H 12.17521 l -0.347648,0.347648 c -0.53547,0.535471 -0.450566,1.307824 0.186613,1.697578 0.331,0.202467 0.484335,0.204531 13.303381,0.178983 l 12.968521,-0.02584 z m -0.426973,-7.212747 c 0.695734,-0.243781 0.97684,-1.114785 0.546845,-1.69439 -0.403339,-0.543674 10e-4,-0.528941 -13.714686,-0.499756 -11.980203,0.02549 -12.758713,0.03791 -13.008255,0.207486 -0.482184,0.327667 -0.632724,0.956286 -0.356793,1.489877 0.132357,0.255952 0.37353,0.431232 0.775594,0.563692 0.08436,0.02779 5.83589,0.05157 12.781186,0.05283 9.526144,0.0017 12.713361,-0.02767 12.976109,-0.11974 z"
           id="path4521"
           inkscape:connector-curvature="0"
           transform="translate(1,-1)" /></g></clipPath></defs><sodipodi:namedview
     pagecolor="#ffffff"
     bordercolor="#666666"
     borderopacity="1"
     objecttolerance="10"
     gridtolerance="10"
     guidetolerance="10"
     inkscape:pageopacity="0"
     inkscape:pageshadow="2"
     inkscape:window-width="1920"
     inkscape:window-height="1147"
     id="namedview3695"
     showgrid="false"
     inkscape:zoom="9.78"
     inkscape:cx="41.081141"
     inkscape:cy="18.614305"
     inkscape:window-x="1912"
     inkscape:window-y="-8"
     inkscape:window-maximized="1"
     inkscape:current-layer="Layer_1" /><path
     fill="#59B4D9"
     d="M29.8,41.1c0,0.6-0.5,1.1-1.1,1.1H13.6c-0.6,0-1.1-0.5-1.1-1.1S13,40,13.6,40h15.1  C29.3,40,29.8,40.5,29.8,41.1"
     id="path3684"
     style="fill:#0273d4;fill-opacity:1" /><path
     fill="#59B4D9"
     d="M39.9,26.1c0,0.6-0.5,1.1-1.1,1.1H13.6c-0.6,0-1.1-0.5-1.1-1.1S13,25,13.6,25h25.1  C39.4,25,39.9,25.5,39.9,26.1"
     id="path3686"
     style="fill:#0273d4;fill-opacity:1" /><path
     fill="#59B4D9"
     d="M39.9,33.6c0,0.6-0.5,1.1-1.1,1.1H13.6c-0.6,0-1.1-0.5-1.1-1.1s0.5-1.1,1.1-1.1h25.1  C39.4,32.5,39.9,33,39.9,33.6"
     id="path3688"
     style="fill:#0273d4;fill-opacity:1" /><path
     fill="#59B4D9"
     d="M38.717-1v12.47h-6.423c-0.236-1.418-0.946-2.778-2.009-3.9c-1.418-1.418-3.25-2.187-5.26-2.187  c-1.95,0-3.841,0.768-5.26,2.187c-0.473,0.473-0.473,1.241,0,1.773c0.473,0.473,1.241,0.473,1.773,0  c0.946-0.946,2.187-1.418,3.487-1.418s2.541,0.532,3.487,1.418c1.95,1.95,1.95,5.082,0,6.973c-0.946,0.946-2.187,1.418-3.487,1.418  s-2.541-0.532-3.487-1.418c-0.473-0.473-1.241-0.473-1.773,0c-0.473,0.473-0.473,1.241,0,1.773c1.418,1.418,3.25,2.187,5.26,2.187  c1.95,0,3.841-0.768,5.26-2.187c1.182-1.182,1.832-2.6,2.068-4.137h7.605c0.709,0,1.241-0.532,1.241-1.241V-1"
     id="path3690"
     style="fill:#0273d4;fill-opacity:1" /><path
     fill="#59B4D9"
     d="M10.801-1v13.711c0,0.709,0.532,1.241,1.241,1.241h10.382c0.473,1.005,1.477,1.714,2.659,1.714  c1.655,0,2.955-1.3,2.955-2.955c-0.059-1.655-1.418-2.955-3.014-2.955c-1.182,0-2.187,0.709-2.659,1.714h-9.141V-1"
     id="path3692"
     style="fill:#0273d4;fill-opacity:1" /><path
     style="fill:#ffffff;stroke-width:0.10224949;fill-opacity:0"
     d="M 5.0893208,25.005584 V 1.9991916 H 7.441059 9.7927973 v 5.9848792 c 0,6.6351372 -0.010816,6.5200622 0.6419327,6.8298122 0.322287,0.152935 0.91548,0.170994 5.616799,0.170994 h 5.256457 l 0.487456,0.564618 c 0.676294,0.783348 1.335067,1.107386 2.261159,1.112218 0.902271,0.0047 1.620675,-0.295089 2.191762,-0.914645 0.579754,-0.62896 0.752735,-1.082947 0.75793,-1.989185 0.0036,-0.631767 -0.04255,-0.857664 -0.262065,-1.282224 -0.310985,-0.60146 -1.02572,-1.296031 -1.581543,-1.536921 -0.598591,-0.259426 -1.715463,-0.242726 -2.281953,0.03412 -0.490444,0.239682 -1.220282,0.862461 -1.406473,1.200158 -0.109733,0.199025 -0.234724,0.205315 -4.670112,0.235 l -4.557362,0.0305 V 7.2188544 1.9991916 h 12.730061 12.730062 v 5.2161806 5.2161798 l -3.179379,-0.02702 -3.179378,-0.02702 -0.228743,-0.715747 C 30.362064,9.292011 28.660573,7.5164538 26.407358,6.744601 25.260594,6.3517697 23.485838,6.280059 22.304409,6.5788175 c -2.097575,0.5304321 -3.922655,1.8948849 -3.922655,2.932626 0,0.3980226 0.35201,0.9260405 0.718581,1.0778785 0.522794,0.216549 1.048116,0.07065 1.809513,-0.502564 2.061329,-1.551855 4.615898,-1.4542669 6.452941,0.246511 1.996612,1.84851 2.055889,4.938097 0.13224,6.892591 -1.005322,1.021444 -2.329954,1.514132 -3.796301,1.412012 -0.986162,-0.06868 -1.600129,-0.309212 -2.765423,-1.083402 -1.060362,-0.704477 -1.387663,-0.770663 -1.947006,-0.393722 -0.585479,0.394554 -0.760513,1.009157 -0.455421,1.599141 0.394313,0.762516 2.274734,1.961595 3.649304,2.327032 1.022654,0.271878 2.900726,0.246122 3.870284,-0.05308 2.512262,-0.775266 4.325788,-2.593012 5.116817,-5.128722 l 0.271127,-0.869121 3.982515,-0.05112 c 3.567153,-0.04579 4.010976,-0.06979 4.255396,-0.230062 0.547094,-0.358746 0.533258,-0.195925 0.569061,-6.6973412 l 0.03336,-6.0582822 h 2.344163 2.344163 L 44.941278,24.979765 44.915488,47.960338 25.0024,47.986158 5.0893118,48.011978 Z M 28.512868,42.820686 c 0.412224,-0.461399 0.416054,-1.046704 0.0095,-1.453249 -0.234684,-0.234684 -0.411979,-0.301398 -0.945808,-0.355895 -0.36134,-0.03689 -3.978368,-0.05292 -8.037839,-0.03562 l -7.380858,0.03145 -0.308449,0.295557 c -0.532672,0.510408 -0.517957,1.063047 0.04322,1.623435 l 0.283401,0.283 8.019243,-0.02738 8.019242,-0.02738 z M 38.531746,35.42745 c 0.572138,-0.612476 0.475768,-1.4129 -0.211459,-1.756321 -0.334915,-0.167363 -1.180641,-0.178787 -13.246695,-0.178936 l -12.888941,-1.59e-4 -0.350045,0.361154 c -0.466259,0.481059 -0.487228,1.020823 -0.0571,1.469783 0.161121,0.168173 0.390136,0.32488 0.508923,0.348237 0.118787,0.02336 6.006566,0.04873 13.083951,0.05639 l 12.867975,0.01393 z m -0.748777,-7.241443 c 0.640312,-0.0912 1.016448,-0.399759 1.112689,-0.91277 0.08758,-0.46685 -0.183194,-0.979891 -0.612942,-1.161346 -0.259751,-0.109677 -2.745631,-0.135194 -13.17059,-0.135194 H 12.261722 l -0.288585,0.215481 c -0.158721,0.118516 -0.351287,0.380226 -0.427923,0.581581 -0.123981,0.325751 -0.118355,0.409058 0.05105,0.755889 0.392927,0.804433 -0.615284,0.748243 13.278328,0.740038 6.804703,-0.004 12.613471,-0.04167 12.908372,-0.08368 z"
     id="path4508"
     inkscape:connector-curvature="0"
     transform="translate(1,-1)" /><rect
     style="opacity:1;fill:#ffffff;fill-opacity:0;stroke:#0273d4;stroke-width:2.52757287;stroke-miterlimit:4;stroke-dasharray:none;stroke-opacity:1"
     id="rect4525"
     width="41.690216"
     height="47.620693"
     x="5.2060156"
     y="0.13853075" /></svg>