<svg viewBox="0 0 50 50" focusable="false" xmlns:xlink="http://www.w3.org/1999/xlink" xmlns:svg="http://www.w3.org/2000/svg" class=" fxs-portal-svg" role="presentation" aria-hidden="true"><g><path class="msportalfx-svg-c15" d="M29.833 31.322a7.931 7.931 0 0 1-4.832 1.642 7.952 7.952 0 0 1-6.331-3.123 7.958 7.958 0 0 1 1.484-11.165 7.893 7.893 0 0 1 4.832-1.64 7.944 7.944 0 0 1 6.33 3.125c2.676 3.492 2.008 8.488-1.483 11.161"></path><path class="msportalfx-svg-c15" d="M29.833 31.322a7.931 7.931 0 0 1-4.832 1.642 7.952 7.952 0 0 1-6.331-3.123 7.958 7.958 0 0 1 1.484-11.165 7.893 7.893 0 0 1 4.832-1.64 7.944 7.944 0 0 1 6.33 3.125c2.676 3.492 2.008 8.488-1.483 11.161"></path><path class="msportalfx-svg-c01" d="M28.37 26.396a1.715 1.715 0 0 0 2.401.321c.04-.03.07-.067.106-.1.768.541 1.365.941 1.665 1.146a7.08 7.08 0 0 0 .211-.68 46.129 46.129 0 0 1-1.428-1.117 1.707 1.707 0 0 0-.234-1.646 1.705 1.705 0 0 0-2.206-.44c-.814-.73-1.7-1.555-2.644-2.494 2.92-1.57 4.993-1.34 4.993-1.34a7.958 7.958 0 0 0-1.148-1.178c-1.231-.189-3.145-.169-5.33.994a64.028 64.028 0 0 1-2.226-2.457 7.452 7.452 0 0 0-1.055.429c.557.912 1.307 1.831 2.152 2.729.022-.016.044-.028.066-.044a.07.07 0 0 0-.01.008l-.054.036.002.002a15.358 15.358 0 0 0-2.21 1.919c-.095.101-.177.204-.267.306a2.395 2.395 0 0 0-1.303.088c-.724-1.558-.674-2.813-.559-3.459a8.339 8.339 0 0 0-.858 1.04c-.189.772-.241 1.885.317 3.225a2.394 2.394 0 0 0-.004 2.909c.058.075.126.136.191.203a12.155 12.155 0 0 0-.479 2.793c.075.103.075.185.15.284.382.491.864.955 1.329 1.329a8.975 8.975 0 0 1 .55-3.68c.371.027.746-.031 1.099-.179.206.181.418.364.648.55a13.207 13.207 0 0 0 2.322 1.476c-.04.388.056.791.307 1.125a1.594 1.594 0 0 0 2.226.292 1.6 1.6 0 0 0 .359-.396c1.232.273 2.318.333 3.117.333.123 0 .694-.776 1.022-1.257-.489.102-1.941.295-3.92-.272a1.567 1.567 0 0 0-.285-.625 1.577 1.577 0 0 0-2.106-.363 14.901 14.901 0 0 1-2.155-1.43c-.155-.123-.289-.245-.432-.367a2.41 2.41 0 0 0 .102-2.382c.094-.095.174-.191.275-.285a17.303 17.303 0 0 1 2.079-1.681l-.001-.001c.994.92 2.049 1.791 3.047 2.569a1.7 1.7 0 0 0 .178 1.767z"></path><path class="msportalfx-svg-c01" d="M23.755 20.477c.142-.098.284-.196.425-.283-.141.087-.283.185-.425.283zm1.389 1.583l-.013-.014.014.014z"></path><path class="msportalfx-svg-c03" d="M41.386 50c-6.829 0-16.33-5.585-26.069-15.323C1.768 21.125-3.448 8.134 2.338 2.348 3.875.811 6.039 0 8.599 0c6.829 0 16.331 5.585 26.069 15.325 6.637 6.638 11.379 13.177 13.715 18.916 2.365 5.811 2.104 10.572-.736 13.413C46.111 49.189 43.946 50 41.386 50M8.599 3.078c-1.75 0-3.124.486-4.083 1.445-3.725 3.726-.464 14.533 12.979 27.975 9.031 9.032 17.962 14.424 23.892 14.424 1.75 0 3.123-.486 4.082-1.446 1.908-1.908 1.932-5.486.063-10.074-2.182-5.362-6.692-11.552-13.042-17.9C23.459 8.471 14.528 3.078 8.599 3.078"></path><path class="msportalfx-svg-c07" d="M8.599 50c-2.56 0-4.724-.811-6.261-2.346-2.84-2.841-3.101-7.602-.735-13.413 2.336-5.739 7.078-12.278 13.715-18.916C25.056 5.585 34.558 0 41.387 0c2.56 0 4.724.811 6.26 2.347 5.786 5.787.57 18.778-12.979 32.33C24.929 44.415 15.427 50 8.599 50M41.387 3.078c-5.93 0-14.861 5.393-23.893 14.424-6.348 6.348-10.86 12.538-13.041 17.9-1.869 4.588-1.845 8.166.063 10.074.959.96 2.332 1.446 4.083 1.446 5.93 0 14.86-5.392 23.892-14.424C45.933 19.056 49.194 8.249 45.468 4.522c-.959-.958-2.331-1.444-4.081-1.444"></path></g></svg>