<svg viewBox="0 0 50 50" class="fxs-portal-svg msportalfx-svg-palette-blue" role="presentation" focusable="false" xmlns:svg="http://www.w3.org/2000/svg" xmlns:xlink="http://www.w3.org/1999/xlink" id="FxSymbol0-03a" width="100%" height="100%"><g><title></title><path d="M44.977 10.5c0 5.638-4.571 10.209-10.21 10.209S24.558 16.138 24.558 10.5 29.128.291 34.767.291c5.639 0 10.21 4.571 10.21 10.209m-2.745 13.709l-7.465 10.459-7.465-10.459h-7.768V50H50V24.209zm-27.938 3.427a5.734 5.734 0 0 1-5.736 5.734 5.734 5.734 0 1 1 0-11.469 5.735 5.735 0 0 1 5.736 5.735m-1.543 7.876l-4.193 5.876-4.194-5.876H0V50h17.115V35.512z"></path></g></svg>