<svg viewBox="0 0 50 50" focusable="false" xmlns:xlink="http://www.w3.org/1999/xlink" xmlns:svg="http://www.w3.org/2000/svg" class="fxs-portal-svg" role="presentation" id="FxSymbol0-051" width="100%" height="100%"><g><title></title><path class="svg-monochromatic" d="M14.6 14.8l25.6 25.6c4 4 3.8 9.5 3.8 9.5s-5.9-.2-9.5-3.8L8.9 20.5l5.7-5.7z"></path><path d="M45.8.2c-.4 1.4-1.5 2.6-3 3.1-.4.1-.9.2-1.3.2L39 2.8l-2.2-.6-.5-.1c-.7-.2-1.5.2-1.7 1-.2.7.2 1.5 1 1.7l4.2 1.1.9.2c.7.1 1.5.1 2.2-.2.6-.2 1.1-.5 1.6-.9 1.3-1.1 1.9-3 1.3-4.8z"></path><path class="msportalfx-svg-c02" d="M38.2 11.9c-.7.2-1.5-.2-1.7-1l-1.9-7.1c-.2-.7.2-1.5 1-1.7.7-.2 1.5.2 1.7 1l1.9 7.1c.2.7-.3 1.5-1 1.7z"></path><path d="M29.3 8.3c-.2.7.2 1.5 1 1.7l7.1 1.9c.7.2 1.5-.2 1.7-1 .2-.7-.2-1.5-1-1.7L31 7.3c-.7-.2-1.5.3-1.7 1z"></path><path class="msportalfx-svg-c02" d="M32.9 17.1c-.7.2-1.5-.2-1.7-1L29.3 9c-.2-.7.2-1.5 1-1.7.7-.2 1.5.2 1.7 1l1.9 7.1c.2.8-.2 1.5-1 1.7z"></path><path d="M24.1 13.5c-.2.7.2 1.5 1 1.7l7.1 1.9c.7.2 1.5-.2 1.7-1 .2-.7-.2-1.5-1-1.7l-7.1-1.9c-.7-.1-1.5.3-1.7 1z"></path><path class="msportalfx-svg-c02" d="M27.7 22.4c-.7.2-1.5-.2-1.7-1l-1.9-7.1c-.2-.7.2-1.5 1-1.7.7-.2 1.5.2 1.7 1l1.9 7.1c.2.7-.3 1.5-1 1.7z"></path><path d="M18.8 18.8c-.2.7.2 1.5 1 1.7l7.1 1.9c.7.2 1.5-.2 1.7-1 .2-.7-.2-1.5-1-1.7l-7.1-1.9c-.7-.2-1.5.2-1.7 1z"></path><path class="msportalfx-svg-c02" d="M22.5 27.6c-.7.2-1.5-.2-1.7-1l-1.9-7.1c-.2-.7.2-1.5 1-1.7.7-.2 1.5.2 1.7 1l1.9 7.1c.2.8-.3 1.5-1 1.7z"></path><path d="M13.6 24c-.2.7.2 1.5 1 1.7l7.1 1.9c.7.2 1.5-.2 1.7-1 .2-.7-.2-1.5-1-1.7L15.3 23c-.7-.2-1.5.3-1.7 1z"></path><path class="msportalfx-svg-c19" d="M19.9 42.6c0 4.1-3.3 7.4-7.4 7.4-4.1 0-7.4-3.3-7.4-7.4V7.4C5.1 3.3 8.4 0 12.5 0c4.1 0 7.4 3.3 7.4 7.4v35.2z"></path><path class="msportalfx-svg-c01" d="M5.1 32.6V7.4C5.1 3.3 8.4 0 12.5 0c4.1 0 7.4 3.3 7.4 7.4v12.2l-14.8 13z" opacity="0.1"></path><path class="msportalfx-svg-c01" d="M17.5 27.7c0-.6-.5-1.2-1.2-1.2h-.1c.1-.3.1-.5.1-.8 0-1.7-1.4-3.1-3.1-3.1-1.4 0-2.5.9-2.9 2.1-.2-.1-.4-.1-.7-.1-1.2 0-2.1 1-2.1 2.1 0 1.2.9 2.1 2.1 2.1h6.8c.6 0 1.1-.5 1.1-1.1"></path></g></svg>