<svg viewBox="1 -1 50 50" focusable="false" xmlns:xlink="http://www.w3.org/1999/xlink" xmlns:svg="http://www.w3.org/2000/svg" class="fxs-portal-svg" role="presentation" id="FxSymbol0-059" width="100%" height="100%"><g><title></title><path class="msportalfx-svg-c15" d="M48-1H4v50h44z"></path><path class="msportalfx-svg-c01" d="M46 1H6v46h40z" opacity="0.8"></path><path class="msportalfx-svg-c15" d="M29.8 41.1c0 .6-.5 1.1-1.1 1.1H13.6c-.6 0-1.1-.5-1.1-1.1S13 40 13.6 40h15.1c.6 0 1.1.5 1.1 1.1m10.1-15c0 .6-.5 1.1-1.1 1.1H13.6c-.6 0-1.1-.5-1.1-1.1S13 25 13.6 25h25.1c.7 0 1.2.5 1.2 1.1m0 7.5c0 .6-.5 1.1-1.1 1.1H13.6c-.6 0-1.1-.5-1.1-1.1s.5-1.1 1.1-1.1h25.1c.7 0 1.2.5 1.2 1.1M38.717-1v12.47h-6.423c-.236-1.418-.946-2.778-2.009-3.9-1.418-1.418-3.25-2.187-5.26-2.187-1.95 0-3.841.768-5.26 2.187-.473.473-.473 1.241 0 1.773.473.473 1.241.473 1.773 0 .946-.946 2.187-1.418 3.487-1.418s2.541.532 3.487 1.418c1.95 1.95 1.95 5.082 0 6.973-.946.946-2.187 1.418-3.487 1.418s-2.541-.532-3.487-1.418c-.473-.473-1.241-.473-1.773 0-.473.473-.473 1.241 0 1.773 1.418 1.418 3.25 2.187 5.26 2.187 1.95 0 3.841-.768 5.26-2.187 1.182-1.182 1.832-2.6 2.068-4.137h7.605c.709 0 1.241-.532 1.241-1.241V-1"></path><path class="msportalfx-svg-c15" d="M10.801-1v13.711c0 .709.532 1.241 1.241 1.241h10.382c.473 1.005 1.477 1.714 2.659 1.714 1.655 0 2.955-1.3 2.955-2.955-.059-1.655-1.418-2.955-3.014-2.955-1.182 0-2.187.709-2.659 1.714h-9.141V-1"></path></g></svg>