<svg viewBox="0 0 50 50" focusable="false" xmlns:xlink="http://www.w3.org/1999/xlink" xmlns:svg="http://www.w3.org/2000/svg" class="fxs-portal-svg" role="presentation" id="FxSymbol0-052" width="100%" height="100%"><g><title></title><path class="msportalfx-svg-c03" d="M49.662 25.717c.499-.499.399-1.298 0-1.797l-2.396-2.396L36.482 11.04c-.499-.499-1.198-.499-1.697 0-.499.499-.599 1.298 0 1.797L46.068 23.92a1.266 1.266 0 0 1 0 1.797L34.585 37.199a1.266 1.266 0 0 0 0 1.797c.499.499 1.298.399 1.697 0l10.684-10.584.1-.1 2.596-2.595zm-49.324 0c-.499-.499-.399-1.298 0-1.797l2.396-2.396L13.518 11.04c.499-.499 1.198-.499 1.697 0 .499.499.599 1.298 0 1.797L4.132 23.92a1.266 1.266 0 0 0 0 1.797l11.283 11.482a1.266 1.266 0 0 1 0 1.797c-.499.499-1.298.399-1.697 0L2.834 28.513l-.1-.1-2.396-2.696z"></path><path class="msportalfx-svg-c12" d="M18.68 34.686l4.377-4.692.425 6.402-3.383 4.37-1.559-.555z"></path><path class="msportalfx-svg-c06" d="M18.541 40.211l1.559.555-1.422 1.523z"></path><path class="msportalfx-svg-c10" d="M27.978 15.835l-.839-.299-1.457-.518-7.014 19.702 2.723-.383.022-.062-.022.061 2.079 2.093 7.014-19.702-2.506-.892z"></path><path class="msportalfx-svg-c01" d="M18.668 34.72l2.723-.383 6.587-18.502-2.296-.817z" opacity="0.3"></path><path class="msportalfx-svg-c02" d="M25.293 16.113l1.71-4.802 4.802 1.71-1.71 4.801z"></path><path class="msportalfx-svg-c14" d="M26.148 13.713l.213-.6 4.802 1.71-.213.6z"></path><path d="M27.002 11.312l1.283-3.601 4.801 1.71-1.282 3.6z"></path><path class="msportalfx-svg-c01" d="M27.002 11.312l1.283-3.601 4.801 1.71-1.282 3.6z" opacity="0.3"></path></g></svg>