<?xml version="1.0" encoding="utf-8"?>
<!-- Generator: Adobe Illustrator 22.1.0, SVG Export Plug-In . SVG Version: 6.00 Build 0)  -->
<svg version="1.1" id="Layer_1" xmlns="http://www.w3.org/2000/svg" xmlns:xlink="http://www.w3.org/1999/xlink" x="0px" y="0px"
	 viewBox="0 0 50 50" style="enable-background:new 0 0 50 50;" xml:space="preserve">
<style type="text/css">
	.st0{fill:#1E1E1E;}
	.st1{opacity:0.25;fill:#0072C6;enable-background:new    ;}
	.st2{fill:#A0A1A2;}
	.st3{fill:#FFFFFF;}
	.st4{fill:#59B4D9;}
	.st5{fill:#E5E5E5;}
	.st6{opacity:0.2;}
</style>
<path class="st0" d="M0,44.3c0,1.1,0.9,2,2,2h46c1.1,0,2-0.9,2-2V13H0V44.3z"/>
<path class="st1" d="M0,44.3c0,1.1,0.9,2,2,2h46c1.1,0,2-0.9,2-2V13H0V44.3z"/>
<path class="st2" d="M48,3.7H2c-1.1,0-2,0.9-2,2v10.6h50V5.7C50,4.6,49.1,3.7,48,3.7"/>
<rect x="12.9" y="8.5" class="st3" width="33.7" height="3.9"/>
<path class="st4" d="M11.3,10.4c0,2.7-2.2,4.9-4.9,4.9s-4.9-2.2-4.9-4.9s2.2-4.9,4.9-4.9C9.1,5.5,11.3,7.7,11.3,10.4"/>
<polygon class="st3" points="5.9,10.9 8.1,13.3 6.9,13.3 4,10.4 6.9,7.6 8.1,7.6 5.9,9.9 11.3,9.9 11.3,10.9 "/>
<rect x="12" y="22.7" class="st5" width="38" height="20"/>
<rect y="22.7" class="st4" width="12" height="20"/>
<g class="st6">
	<g>
		<g>
			<path class="st3" d="M2,3.7c-1.1,0-2,0.9-2,2V13v3.3v28c0,1.1,0.9,2,2,2h2.2L43.6,3.7H2z"/>
		</g>
	</g>
</g>
</svg>
