<svg viewBox="0 0 50 50" class="fxs-portal-svg" role="presentation" focusable="false" xmlns:svg="http://www.w3.org/2000/svg" xmlns:xlink="http://www.w3.org/1999/xlink" id="FxSymbol0-045" width="100%" height="100%"><g><title></title><path d="M45.083 14.967c.033-.35.05-.717.05-1.083 0-5.817-4.783-10.55-10.65-10.55C31 3.333 27.8 5 25.833 7.733a8.093 8.093 0 0 0-4.266-1.216c-4.183 0-7.633 3.183-8.017 7.233.65-.083 1.3-.15 1.967-.15 3.083 0 6.05 1 8.467 2.767C25.8 12.183 30.417 9.5 35.533 9.35V5.767l6.25 5.35-6.25 5.317v-3.5c-2.933.116-5.783 1.216-7.433 3.883l.333-.033c5.967 0 10.9 4.467 11.6 10.183 1.417 1.067 2.533 2.35 3.333 3.817C47.233 29.75 50 26.417 50 22.333c0-3.283-1.767-5.9-4.917-7.366z" class="msportalfx-svg-c19"></path><path d="M4.917 28.833c-.033-.367-.05-.733-.05-1.1 0-5.817 4.783-10.533 10.65-10.533 3.483 0 6.683 1.667 8.65 4.383a8.083 8.083 0 0 1 4.267-1.2c4.433 0 8.05 3.583 8.05 7.983l-.017.634c3 1.517 4.617 4.033 4.617 7.183 0 4.95-4.033 8.817-9.183 8.817H9.183C4.033 45 0 41.133 0 36.183c0-3.266 1.767-5.883 4.917-7.35z" class="msportalfx-svg-c15"></path></g></svg>