<svg xmlns="http://www.w3.org/2000/svg" viewBox="0 0 100 100"><title>Artboard 1 copy</title><g id="Layer_2" data-name="Layer 2"><path id="Shape-2" d="M16.26,70.19,5,50.13c0-.07,5-9.16,11.2-20.19L27.48,9.88H72.59L83.75,29.73c6.13,10.92,11.2,20,11.25,20.11s-4.7,8.79-11.11,20.22L72.67,90l-22.61,0-22.61,0L16.26,70.19Zm52.32,3.62a6.49,6.49,0,0,0,3.68-3.69c.26-.68.3-2.45.34-17.7l0-16.94L68,30.72,63.41,26H47.88c-15.44,0-15.53,0-16.54.38a6.52,6.52,0,0,0-3.16,2.82c-.79,1.55-.81,2.06-.75,21.63l.05,18.56L28,70.53A6,6,0,0,0,32.47,74c.46.08,8.6.13,18.08.12,16,0,17.29-.05,18-.34ZM32.52,70.66A3.44,3.44,0,0,1,31,69.18c-.27-.48-.3-2.15-.35-18.2,0-9.72,0-18.17.06-18.77a3.07,3.07,0,0,1,1.5-2.6c.61-.36.81-.36,15.11-.36H61.77l0,3.93,0,3.93h7.59V52.61c0,9.63-.07,15.75-.18,16.14a3.52,3.52,0,0,1-1.82,1.93c-.67.25-34.31.24-34.94,0ZM46.61,66a4.72,4.72,0,0,0,2.2-2.51,20,20,0,0,0,.25-7.64c-.58-2.31-1.85-3.34-4.08-3.34-2,0-2.92.44-3.82,1.77-.74,1.1-1.07,2.76-1.06,5.39,0,4.34,1,6.21,3.51,6.62a6.06,6.06,0,0,0,3-.28Zm-2.78-1.9a1.87,1.87,0,0,1-.67-.73,15,15,0,0,1-.06-7.57c.43-1,.81-1.26,1.63-1.26,1.49,0,2,1.3,2,4.94,0,2.48-.22,3.54-.83,4.25a1.79,1.79,0,0,1-2.08.36Zm15.74,1v-1H57.09V58.41c0-6.39.1-5.94-1.3-5.94-.61,0-1,.19-2.47,1.16l-1.73,1.16.05.83c.06,1,.24,1,1.78.11l1-.6v9H53.13c-1.39,0-1.52.08-1.52,1s-.1,1,4.08,1h3.87v-1Zm-2.2-17.92c1.46-.65,2.27-2.19,2.58-4.94a17.43,17.43,0,0,0-.37-5.7,3.84,3.84,0,0,0-4.08-2.8,4,4,0,0,0-4.25,2.94c-.37.93-.41,1.32-.42,4,0,3.28.21,4.37,1.08,5.52,1,1.39,3.5,1.81,5.46.94Zm-3.07-2c-.72-.6-1-1.73-1-4.49,0-3.61.56-4.88,2.11-4.84a1.85,1.85,0,0,1,1.65,1.45,20,20,0,0,1,.17,5.84,2.79,2.79,0,0,1-.8,1.9,1.43,1.43,0,0,1-2.17.14Zm-5.37,1.28-.05-.93-1.19-.05-1.19-.05V34l-.63-.12c-1-.18-1.62,0-3.3,1.17L41,36v.88c0,.52.08.88.19.88a6.86,6.86,0,0,0,1.3-.62,9.58,9.58,0,0,1,1.22-.62A42.45,42.45,0,0,1,43.83,41v4.41l-1.37.05-1.37.05-.06.68c-.1,1.23-.28,1.17,4,1.17H49l-.05-.93Z" style="fill:#fff"/></g></svg>