<svg viewBox="0 0 50 50" class="fxs-portal-svg" role="presentation" focusable="false" xmlns:svg="http://www.w3.org/2000/svg" xmlns:xlink="http://www.w3.org/1999/xlink" id="FxSymbol0-046" width="100%" height="100%"><g><title></title><path d="M0 44.474c0 1.108.898 2.007 2.007 2.007h45.986A2.007 2.007 0 0 0 50 44.474V13.145H0v31.329z" class="msportalfx-svg-c19"></path><path d="M47.993 3.847H2.007A2.006 2.006 0 0 0 0 5.854v10.627h50V5.854a2.007 2.007 0 0 0-2.007-2.007" class="msportalfx-svg-c03"></path><path opacity="0.2" d="M2.014 3.847A2.007 2.007 0 0 0 .007 5.854v38.62c0 1.108.899 2.007 2.007 2.007h2.188L43.62 3.847H2.014z" class="msportalfx-svg-c01"></path><path d="M12.857 8.626h33.671v3.942H12.857z" class="msportalfx-svg-c01"></path><path d="M11.31 10.53a4.879 4.879 0 1 1-9.757-.001 4.879 4.879 0 0 1 9.757.001" class="msportalfx-svg-c15"></path><path d="M5.916 11.079l2.213 2.335H6.928l-2.959-2.817 2.948-2.818h1.198l-2.199 2.322h5.393v.978zm11.37 15.394l-2.644 8.816h-1.463l-1.817-6.311a4.109 4.109 0 0 1-.138-.818h-.034a3.8 3.8 0 0 1-.181.801l-1.972 6.328H7.625l-2.669-8.816h1.481l1.825 6.629c.058.201.098.465.121.792h.069c.017-.252.069-.522.155-.809l2.032-6.612h1.292l1.825 6.646c.057.213.101.477.129.792h.069c.011-.224.06-.488.146-.792l1.791-6.646h1.395zm13.624 0l-2.644 8.816h-1.463l-1.817-6.311a4.109 4.109 0 0 1-.138-.818h-.035a3.8 3.8 0 0 1-.181.801l-1.972 6.328h-1.41l-2.669-8.816h1.481l1.825 6.629c.058.201.098.465.121.792h.069c.017-.252.069-.522.155-.809l2.032-6.612h1.292l1.825 6.646c.057.213.101.477.129.792h.069c.011-.224.06-.488.146-.792l1.791-6.646h1.394zm13.625 0l-2.644 8.816h-1.463l-1.817-6.311a4.109 4.109 0 0 1-.138-.818h-.035a3.8 3.8 0 0 1-.181.801l-1.972 6.328h-1.412l-2.669-8.816h1.481l1.825 6.629c.058.201.098.465.121.792h.069c.017-.252.069-.522.155-.809l2.032-6.612h1.292l1.825 6.646c.057.213.101.477.129.792h.069c.011-.224.06-.488.146-.792l1.791-6.646h1.396z" class="msportalfx-svg-c01"></path></g></svg>