<?xml version="1.0" encoding="utf-8"?>
<!-- Generator: Adobe Illustrator 19.1.0, SVG Export Plug-In . SVG Version: 6.00 Build 0)  -->
<svg class="svg-monochromatic" version="1.1" id="Layer_1" xmlns="http://www.w3.org/2000/svg" xmlns:xlink="http://www.w3.org/1999/xlink" x="0px" y="0px"
	 viewBox="0 0 32 32" style="enable-background:new 0 0 32 32;" xml:space="preserve">
<g>
	<path d="M16,2c0.7290039,0,1.5517578,0.0419922,2.46875,0.125c0.9165039,0.0834961,1.8359375,0.2294922,2.7578125,0.4375
		c0.921875,0.2084961,1.796875,0.4873047,2.625,0.8359375C24.6796875,3.7475586,25.3642578,4.1875,25.90625,4.71875
		c0.3227539,0.3125,0.5859375,0.6542969,0.7890625,1.0234375C26.8984375,6.1123047,27,6.53125,27,7v18
		c0,0.46875-0.1015625,0.8886719-0.3046875,1.2578125c-0.203125,0.3701172-0.4663086,0.7109375-0.7890625,1.0234375
		c-0.5419922,0.53125-1.2265625,0.9716797-2.0546875,1.3203125c-0.828125,0.3496094-1.703125,0.6279297-2.625,0.8359375
		c-0.921875,0.2089844-1.8413086,0.3544922-2.7578125,0.4375C17.5517578,29.9589844,16.7290039,30,16,30
		c-0.7294922,0-1.5522461-0.0410156-2.46875-0.125c-0.9169922-0.0830078-1.8359375-0.2285156-2.7578125-0.4375
		c-0.921875-0.2080078-1.796875-0.4863281-2.625-0.8359375C7.3203125,28.2529297,6.6352539,27.8125,6.09375,27.28125
		c-0.3232422-0.3125-0.5859375-0.6533203-0.7890625-1.0234375C5.1015625,25.8886719,5,25.46875,5,25V7
		c0-0.46875,0.1015625-0.8876953,0.3046875-1.2578125C5.5078125,5.3730469,5.7705078,5.03125,6.09375,4.71875
		C6.6352539,4.1875,7.3203125,3.7475586,8.1484375,3.3984375c0.828125-0.3486328,1.703125-0.6274414,2.625-0.8359375
		c0.921875-0.2080078,1.8408203-0.3540039,2.7578125-0.4375C14.4477539,2.0419922,15.2705078,2,16,2z M16,4
		c-0.53125,0-1.0859375,0.0185547-1.6640625,0.0546875c-0.578125,0.0366211-1.15625,0.0991211-1.734375,0.1875
		c-0.578125,0.0888672-1.1484375,0.203125-1.7109375,0.34375S9.796875,4.8959961,9.296875,5.09375
		c-0.15625,0.0625-0.3647461,0.1591797-0.625,0.2890625C8.4111328,5.5136719,8.15625,5.6621094,7.90625,5.828125
		c-0.25,0.1669922-0.4638672,0.3515625-0.640625,0.5546875C7.0883789,6.5859375,7,6.7919922,7,7
		c0,0.0839844,0.015625,0.1621094,0.046875,0.234375c0.03125,0.0732422,0.0727539,0.1464844,0.125,0.21875
		c0.21875,0.3339844,0.5336914,0.625,0.9453125,0.875c0.4111328,0.25,0.875,0.46875,1.390625,0.65625
		s1.0649414,0.3466797,1.6484375,0.4765625c0.5830078,0.1308594,1.1665039,0.234375,1.75,0.3125
		c0.5830078,0.078125,1.140625,0.1357422,1.671875,0.171875C15.109375,9.9824219,15.5830078,10,16,10
		c0.4165039,0,0.890625-0.0175781,1.421875-0.0546875c0.53125-0.0361328,1.0883789-0.09375,1.671875-0.171875
		c0.5830078-0.078125,1.1665039-0.1816406,1.75-0.3125c0.5830078-0.1298828,1.1328125-0.2890625,1.6484375-0.4765625
		S23.46875,8.578125,23.875,8.328125s0.7236328-0.5410156,0.953125-0.875c0.0517578-0.0722656,0.09375-0.1455078,0.125-0.21875
		C24.984375,7.1621094,25,7.0839844,25,7c0-0.2080078-0.0888672-0.4140625-0.265625-0.6171875
		c-0.1772461-0.203125-0.390625-0.3876953-0.640625-0.5546875c-0.25-0.1660156-0.5053711-0.3144531-0.765625-0.4453125
		c-0.2607422-0.1298828-0.46875-0.2265625-0.625-0.2890625c-0.5-0.1977539-1.03125-0.3671875-1.59375-0.5078125
		s-1.1328125-0.2548828-1.7109375-0.34375c-0.578125-0.0883789-1.15625-0.1508789-1.734375-0.1875
		C17.0859375,4.0185547,16.53125,4,16,4z M16,16c0.5415039,0,1.0986328-0.0175781,1.671875-0.0546875
		c0.5727539-0.0361328,1.1484375-0.0986328,1.7265625-0.1875c0.578125-0.0878906,1.1484375-0.2001953,1.7109375-0.3359375
		c0.5625-0.1347656,1.09375-0.3066406,1.59375-0.515625c0.15625-0.0625,0.3642578-0.1582031,0.625-0.2890625
		c0.2602539-0.1298828,0.515625-0.2783203,0.765625-0.4453125c0.25-0.1660156,0.4633789-0.3515625,0.640625-0.5546875
		C24.9111328,13.4140625,25,13.2089844,25,13V9.96875c-0.59375,0.3857422-1.2631836,0.7089844-2.0078125,0.96875
		c-0.7451172,0.2607422-1.5209961,0.46875-2.328125,0.625c-0.8076172,0.15625-1.6123047,0.2685547-2.4140625,0.3359375
		C17.4477539,11.9667969,16.6977539,12,16,12c-0.6982422,0-1.4482422-0.0332031-2.25-0.1015625
		c-0.8022461-0.0673828-1.6069336-0.1796875-2.4140625-0.3359375c-0.8076172-0.15625-1.5834961-0.3642578-2.328125-0.625
		C8.2626953,10.6777344,7.59375,10.3544922,7,9.96875V13c0,0.2089844,0.0883789,0.4140625,0.265625,0.6171875
		c0.1767578,0.203125,0.390625,0.3886719,0.640625,0.5546875c0.25,0.1669922,0.5048828,0.3154297,0.765625,0.4453125
		c0.2602539,0.1308594,0.46875,0.2265625,0.625,0.2890625c0.5,0.2089844,1.03125,0.3808594,1.59375,0.515625
		c0.5625,0.1357422,1.1328125,0.2480469,1.7109375,0.3359375c0.578125,0.0888672,1.1533203,0.1513672,1.7265625,0.1875
		C14.9008789,15.9824219,15.4580078,16,16,16z M16,22c0.53125,0,1.0859375-0.0175781,1.6640625-0.0546875
		c0.578125-0.0361328,1.1586914-0.0986328,1.7421875-0.1875c0.5830078-0.0878906,1.1562443-0.2001953,1.71875-0.3359375
		c0.5624943-0.1347656,1.0883789-0.3066406,1.578125-0.515625c0.15625-0.0625,0.3642578-0.1582031,0.625-0.2890625
		c0.2602539-0.1298828,0.515625-0.2783203,0.765625-0.4453125c0.25-0.1660156,0.4633789-0.3486328,0.640625-0.546875
		C24.9111328,19.4277344,25,19.21875,25,19v-3.03125c-0.59375,0.3964844-1.265625,0.7246094-2.015625,0.984375
		c-0.75,0.2607422-1.5263672,0.46875-2.328125,0.625c-0.8022461,0.15625-1.6044922,0.265625-2.40625,0.328125
		C17.4477539,17.96875,16.6977539,18,16,18c-0.6982422,0-1.4482422-0.03125-2.25-0.09375
		c-0.8022461-0.0625-1.6044922-0.171875-2.40625-0.328125c-0.8022461-0.15625-1.578125-0.3642578-2.328125-0.625
		C8.265625,16.6933594,7.59375,16.3652344,7,15.96875V19c0,0.21875,0.0883789,0.4277344,0.265625,0.625
		c0.1767578,0.1982422,0.390625,0.3808594,0.640625,0.546875c0.25,0.1669922,0.5048828,0.3154297,0.765625,0.4453125
		c0.2602539,0.1308594,0.46875,0.2265625,0.625,0.2890625c0.4892578,0.2089844,1.0156193,0.3808594,1.578125,0.515625
		c0.5624943,0.1357422,1.1352539,0.2480469,1.71875,0.3359375c0.5830078,0.0888672,1.1640625,0.1513672,1.7421875,0.1875
		C14.9140625,21.9824219,15.46875,22,16,22z M16,28c0.53125,0,1.0859375-0.0175781,1.6640625-0.0546875
		c0.578125-0.0361328,1.1586914-0.0986328,1.7421875-0.1875c0.5830078-0.0878906,1.1562443-0.2001953,1.71875-0.3359375
		c0.5624943-0.1347656,1.0883789-0.3066406,1.578125-0.515625c0.15625-0.0625,0.3642578-0.1582031,0.625-0.2890625
		c0.2602539-0.1298828,0.515625-0.2783203,0.765625-0.4453125c0.25-0.1660156,0.4633789-0.3486328,0.640625-0.546875
		C24.9111328,25.4277344,25,25.21875,25,25v-3.03125c-0.59375,0.3964844-1.265625,0.7246094-2.015625,0.984375
		c-0.75,0.2607422-1.5263672,0.46875-2.328125,0.625c-0.8022461,0.15625-1.6044922,0.265625-2.40625,0.328125
		C17.4477539,23.96875,16.6977539,24,16,24c-0.6982422,0-1.4482422-0.03125-2.25-0.09375
		c-0.8022461-0.0625-1.6044922-0.171875-2.40625-0.328125c-0.8022461-0.15625-1.578125-0.3642578-2.328125-0.625
		C8.265625,22.6933594,7.59375,22.3652344,7,21.96875V25c0,0.21875,0.0883789,0.4277344,0.265625,0.625
		c0.1767578,0.1982422,0.390625,0.3808594,0.640625,0.546875c0.25,0.1669922,0.5048828,0.3154297,0.765625,0.4453125
		c0.2602539,0.1308594,0.46875,0.2265625,0.625,0.2890625c0.4892578,0.2089844,1.0156193,0.3808594,1.578125,0.515625
		c0.5624943,0.1357422,1.1352539,0.2480469,1.71875,0.3359375c0.5830078,0.0888672,1.1640625,0.1513672,1.7421875,0.1875
		C14.9140625,27.9824219,15.46875,28,16,28z"/>
</g>
</svg>
