<?xml version="1.0" encoding="utf-8"?>
<!-- Generator: Adobe Illustrator 22.1.0, SVG Export Plug-In . SVG Version: 6.00 Build 0)  -->
<svg version="1.1" id="FxSymbol0-04a" focusable="false" xmlns:svg="http://www.w3.org/2000/svg"
	 xmlns="http://www.w3.org/2000/svg" xmlns:xlink="http://www.w3.org/1999/xlink" x="0px" y="0px" viewBox="0 0 300 300"
	 style="enable-background:new 0 0 300 300;" xml:space="preserve">
<style type="text/css">
	.st0{fill:#7A7A7A;}
	.st1{opacity:0.2;fill:#FFFFFF;enable-background:new    ;}
	.st2{fill:#FFFFFF;}
</style>
<g>
	<title></title>
	<path class="st0" d="M275,163.6v-28.4l-4-1.3l-30.5-9.9l-8.1-19.6l15.6-33l-20.1-20.1l-3.8,1.9l-28.6,14.5L176,59.4L163.6,25h-28.4
		l-1.3,4l-9.9,30.5l-19.6,8.1L71.3,52L51.1,72.1l1.9,3.8l14.5,28.6l-8.1,19.6L25,136.4v28.5l4,1.3l30.5,9.9l8.1,19.6L52,228.8
		l20.1,20.1l3.8-1.9l28.6-14.5l19.6,8.1l12.3,34.4h28.5l1.3-4l9.9-30.4l19.6-8.1l33.1,15.6l20.1-20.1l-1.9-3.8l-14.5-28.6l8.1-19.6
		L275,163.6z"/>
	<path class="st1" d="M223.7,53.2l-28.2,14.3L176,59.4L163.6,25h-28.4l-1.3,4l-9.9,30.5l-19.6,8.1L71.2,52L51.1,72.1l1.9,3.8
		l14.5,28.6l-8.1,19.6L25,136.4v28.5l4,1.3l30.5,9.9l8.1,19.6L52,228.8l20.1,20.1l3.8-1.9l12.2-6.2l17.3-23.9l0.1,0.1l95.2-131.6
		l-0.1-0.1L223.7,53.2L223.7,53.2z"/>
	<path class="st2" d="M187.6,106.3l-11.8,12c11.1,7.4,17.7,19.8,17.8,33.2c0,21.7-17.4,38.8-38.9,38.5c-21.4-0.3-39-18.2-39-39.9
		c0-12.2,6.2-22.9,14.9-30l9.4,8.7V100h-29l7.1,7.6C105.9,118.1,99,133.4,99,149.5c0,31,25.1,56.6,55.7,57.1
		c30.8,0.5,54.6-23.6,54.6-54.6C209.3,133.5,201.3,116.7,187.6,106.3L187.6,106.3z"/>
</g>
</svg>
