<svg id="Capa_1" data-name="Capa 1" xmlns="http://www.w3.org/2000/svg" xmlns:xlink="http://www.w3.org/1999/xlink" viewBox="0 0 164.5 141.75"><defs><clipPath id="clip-path"><path d="M52.52,100.78a83.86,83.86,0,0,1-25.4,4.27c8.28,6.91,23,19.94,47.35,12.5A37.83,37.83,0,0,1,52.52,100.78Z" style="fill:none;clip-rule:evenodd"/></clipPath><clipPath id="clip-path-2"><rect x="-60.69" y="-32.83" width="276.01" height="276.01" style="fill:none"/></clipPath></defs><title>asdMesa de trabajo 1</title><rect x="43.49" y="55.12" width="14.88" height="13.53" style="fill:#16a0dc"/><rect x="25.9" y="55.12" width="14.88" height="13.53" style="fill:#16a0dc"/><rect x="61.08" y="55.12" width="14.88" height="13.53" style="fill:#16a0dc"/><rect x="78.67" y="55.12" width="14.88" height="13.53" style="fill:#16a0dc"/><rect x="96.25" y="55.12" width="14.88" height="13.53" style="fill:#16a0dc"/><rect x="43.49" y="38.88" width="14.88" height="13.53" style="fill:#16a0dc"/><rect x="61.08" y="38.88" width="14.88" height="13.53" style="fill:#16a0dc"/><rect x="78.67" y="38.88" width="14.88" height="13.53" style="fill:#16a0dc"/><rect x="78.67" y="22.65" width="14.88" height="13.53" style="fill:#16a0dc"/><path d="M155.46,59.29c-3.05-2-11.08-2.93-16.91-1.36-.31-5.81-3.31-10.71-8.79-15l-2-1.36-1.36,2A23.27,23.27,0,0,0,123,57.93a17,17,0,0,0,3.38,8.86c-1.55,1.2-6.36,3.52-12.85,3.4H16.78c-1.72,10.22,1.23,49,46,49,33.24,0,60.56-14.94,73.06-46.31,4.12.07,15,.74,20.3-9.53.13-.17,1.35-2.72,1.35-2.72Z" style="fill:#16a0dc;fill-rule:evenodd"/><g style="clip-path:url(#clip-path)"><g style="clip-path:url(#clip-path-2)"><rect x="20.35" y="94.02" width="60.88" height="32.52" style="fill:#fff"/></g></g><path d="M51.29,98.4a36.19,36.19,0,0,1-18,4.73,36.69,36.69,0,0,1-9.56-1.26l1.93,3.24a39.23,39.23,0,0,0,26.94-4.33C52.14,100,51.7,99.22,51.29,98.4Z" style="fill:#046fb7;fill-rule:evenodd"/><ellipse cx="61.59" cy="91.9" rx="4.7" ry="4.74" style="fill:#fff"/><path d="M62.29,90.57a1.36,1.36,0,0,1,.53-1.06,2.66,2.66,0,0,0-1.22-.31,2.71,2.71,0,1,0,2.69,2.71,1,1,0,0,0,0-.16,1.21,1.21,0,0,1-.62.18A1.36,1.36,0,0,1,62.29,90.57Z" style="fill:#54616c"/><path d="M155.07,59.05c-3-2-11.36-3-16.92-1.38l-1.25,1.75C118.77,97,96.09,112.81,65.09,113.52c-33.81-.1-42.27-17.92-44.65-42.23H15c-.7,10.22,1.91,47.78,47,47.78,33.28,0,60.68-14.91,73.33-46.24,4.13.07,15.63.07,20.7-10.21l1-2.18Z" style="fill-rule:evenodd;opacity:0.05"/><rect x="28.61" y="57.82" width="1.35" height="8.12" style="fill:#006fb7"/><rect x="32.66" y="57.82" width="1.35" height="8.12" style="fill:#006fb7"/><rect x="36.72" y="57.82" width="1.35" height="8.12" style="fill:#006fb7"/><rect x="46.19" y="57.82" width="1.35" height="8.12" style="fill:#006fb7"/><rect x="50.25" y="57.82" width="1.35" height="8.12" style="fill:#006fb7"/><rect x="54.31" y="57.82" width="1.35" height="8.12" style="fill:#006fb7"/><rect x="63.78" y="57.82" width="1.35" height="8.12" style="fill:#006fb7"/><rect x="67.84" y="57.82" width="1.35" height="8.12" style="fill:#006fb7"/><rect x="71.9" y="57.82" width="1.35" height="8.12" style="fill:#006fb7"/><rect x="81.37" y="57.82" width="1.35" height="8.12" style="fill:#006fb7"/><rect x="85.43" y="57.82" width="1.35" height="8.12" style="fill:#006fb7"/><rect x="89.49" y="57.82" width="1.35" height="8.12" style="fill:#006fb7"/><rect x="98.96" y="57.82" width="1.35" height="8.12" style="fill:#006fb7"/><rect x="103.02" y="57.82" width="1.35" height="8.12" style="fill:#006fb7"/><rect x="107.08" y="57.82" width="1.35" height="8.12" style="fill:#006fb7"/><rect x="50.25" y="41.59" width="1.35" height="8.12" style="fill:#006fb7"/><rect x="54.31" y="41.59" width="1.35" height="8.12" style="fill:#006fb7"/><rect x="63.78" y="41.59" width="1.35" height="8.12" style="fill:#006fb7"/><rect x="67.84" y="41.59" width="1.35" height="8.12" style="fill:#006fb7"/><rect x="71.9" y="41.59" width="1.35" height="8.12" style="fill:#006fb7"/><rect x="81.37" y="41.59" width="1.35" height="8.12" style="fill:#006fb7"/><rect x="85.43" y="41.59" width="1.35" height="8.12" style="fill:#006fb7"/><rect x="89.49" y="41.59" width="1.35" height="8.12" style="fill:#006fb7"/><rect x="85.43" y="25.35" width="1.35" height="8.12" style="fill:#006fb7"/><rect x="81.37" y="25.35" width="1.35" height="8.12" style="fill:#006fb7"/><rect x="89.49" y="25.35" width="1.35" height="8.12" style="fill:#006fb7"/><rect x="46.19" y="41.59" width="1.35" height="8.12" style="fill:#006fb7"/><path d="M155.74,58c-3.25-2.19-10.66-3-16.46-1.9-.75-5.47-3.82-10.22-9.21-14.42l-3.19-2.14-2.1,3.18a24.58,24.58,0,0,0-3.61,15.16A19.28,19.28,0,0,0,124,66.22a22.78,22.78,0,0,1-10.12,2.39V52.41H96.25V19.94H76V36.18H40.78V52.41H23.19V68.62h-8L15,69.75a42.92,42.92,0,0,0,.16,12.4A48.93,48.93,0,0,0,20.7,99c7.5,13.46,21.13,21.38,41.61,21.38,34.85,0,61.54-16.09,74-46.29a27.74,27.74,0,0,0,10.39-1.35,17.8,17.8,0,0,0,10.18-8.89c.13-.22.32-.6.73-1.43.15-.31.31-.63.46-1,.06-.11.11-.22.21-.43l.51-1.07ZM96.25,55.12h14.89v13.5H96.25ZM78.67,22.65H93.55V36.18H78.67Zm0,16.23H93.55V52.41H78.67Zm0,16.24H93.55v13.5H78.67ZM61.08,38.88H76V52.41H61.08Zm0,16.24H76v13.5H61.08ZM43.49,38.88H58.37V52.41H43.49Zm0,16.24H58.37v13.5H43.49Zm-17.59,0H40.78v13.5H25.9Zm129.22,6.13c-.16.34-.31.63-.41.85l-.24.44a15.13,15.13,0,0,1-8.7,7.63,25.6,25.6,0,0,1-9.67,1.19l-.71,0h-.93l-.34.87c-11.84,29.68-37.69,45.45-71.81,45.45-19.5,0-32.23-7.38-39.25-20a46.19,46.19,0,0,1-5.24-15.9,43.27,43.27,0,0,1-.33-10.42h96.35v0c5.36-.06,10.37-1.72,12.89-3.68l1.11-.86-.9-1.08a15.71,15.71,0,0,1-3.08-8.13A22,22,0,0,1,127,44.17l.6-.9.86.58c5.25,4.1,7.95,8.66,8.24,13.95l.09,1.67,1.61-.43c5.27-1.42,13-.73,15.81,1.18l1,.7Z" style="fill:#006fb7"/><path d="M109,114.94a2,2,0,0,1-2,2,2,2,0,1,1,0-4A2,2,0,0,1,109,114.94Zm-3.53,0a1.51,1.51,0,0,0,1.53,1.57,1.5,1.5,0,0,0,1.5-1.55,1.52,1.52,0,1,0-3,0Zm1.21,1h-.46v-2A3.68,3.68,0,0,1,107,114a1.25,1.25,0,0,1,.68.14.53.53,0,0,1,.19.43.51.51,0,0,1-.4.46v0a.57.57,0,0,1,.35.48,1.63,1.63,0,0,0,.15.49h-.49a1.61,1.61,0,0,1-.16-.48c0-.21-.15-.31-.41-.31h-.21Zm0-1.11h.22c.25,0,.45-.08.45-.29s-.13-.3-.42-.3l-.25,0Z" style="fill:#006fb7"/></svg>