<svg id="f2793af8-af44-4ddd-b334-ad1d94d222ab" data-name="fluent_icons" xmlns="http://www.w3.org/2000/svg" xmlns:xlink="http://www.w3.org/1999/xlink" width="18" height="18" viewBox="0 0 18 18">
  <defs>
    <radialGradient id="e9838cc9-9b36-47fa-8200-bc48a29abf3a" cx="-6.13" cy="29.7" r="6.18" gradientTransform="translate(15.22 -24.98) scale(1.01 1.14)" gradientUnits="userSpaceOnUse">
      <stop offset="0.2" stop-color="#ffd70f"/>
      <stop offset="0.44" stop-color="#ffcb12"/>
      <stop offset="0.87" stop-color="#feac19"/>
      <stop offset="1" stop-color="#fea11b"/>
    </radialGradient>
  </defs>
  <title>Icon-compute-29</title>
  <g>
    <path d="M8.39,10H5.22A.19.19,0,0,1,5,9.8a.19.19,0,0,1,0-.08L8.86.18A.18.18,0,0,1,9,.06h3.75a.19.19,0,0,1,.18.2.27.27,0,0,1,0,.12L8.45,7.84h4.36A.2.2,0,0,1,13,8a.24.24,0,0,1-.05.14L5.71,17.73c-.07.05-.56.56-.32-.21h0Z" fill="url(#e9838cc9-9b36-47fa-8200-bc48a29abf3a)"/>
    <g>
      <path d="M2.37,7.47H3.2a.27.27,0,0,1,.27.27v6.15a.53.53,0,0,1-.53.53H2.1a0,0,0,0,1,0,0V7.74a.27.27,0,0,1,.27-.27Z" transform="translate(12.51 16.71) rotate(134.92)" fill="#50e6ff"/>
      <path d="M2.32,3.6h.83a.27.27,0,0,1,.27.27v6.58a0,0,0,0,1,0,0H2.59a.53.53,0,0,1-.53-.53V3.86a.27.27,0,0,1,.27-.27Z" transform="translate(5.76 0.11) rotate(44.92)" fill="#1490df"/>
    </g>
    <g>
      <path d="M14.53,7.47h.83A.53.53,0,0,1,15.9,8v6.15a.27.27,0,0,1-.27.27H14.8a.27.27,0,0,1-.27-.27V7.47a0,0,0,0,1,0,0Z" transform="translate(12.22 -7.56) rotate(45.08)" fill="#50e6ff"/>
      <path d="M15.11,3.6h.83a0,0,0,0,1,0,0v6.58a.27.27,0,0,1-.27.27h-.83a.27.27,0,0,1-.27-.27V4.13a.53.53,0,0,1,.53-.53Z" transform="translate(31.02 1.22) rotate(135.08)" fill="#1490df"/>
    </g>
  </g>
</svg>
