<?xml version="1.0" encoding="utf-8"?>
<!-- Generator: Adobe Illustrator 21.1.0, SVG Export Plug-In . SVG Version: 6.00 Build 0)  -->
<svg version="1.1" id="FxSymbol0-01d" focusable="false" xmlns:svg="http://www.w3.org/2000/svg"
	 xmlns="http://www.w3.org/2000/svg" xmlns:xlink="http://www.w3.org/1999/xlink" x="0px" y="0px" viewBox="0 0 1920 1080"
	 style="enable-background:new 0 0 1920 1080;" xml:space="preserve">
<style type="text/css">
	.st0{fill:#D9D9D9;}
	.st1{fill:#DADADA;}
	.st2{fill:#BFBFBF;}
</style>
<g>
	<title></title>
	<path class="st0" d="M981.6,460.1v-108h-54v108c0,19.4-17.3,36.7-45.4,45.4l-73.4,15.1c-49.7,15.1-84.2,54-84.2,97.2v123.1h54
		V617.8c0-19.4,17.3-36.7,45.4-45.4l73.4-17.3C947,542.2,981.6,503.3,981.6,460.1z"/>
	<path class="st0" d="M843.4,797v-99.4c0-23.8-19.4-43.2-43.2-43.2h-99.4c-23.8,0-43.2,19.4-43.2,43.2V797
		c0,23.8,19.4,43.2,43.2,43.2h99.4C823.9,840.2,843.4,820.8,843.4,797z"/>
	<path class="st1" d="M921.1,460.1v-108h54v108c0,19.4,17.3,36.7,45.4,45.4l90.7,19.4c49.7,15.1,84.2,54,84.2,97.2v123.1h-54V622.1
		c0-19.4-17.3-36.7-45.4-45.4l-90.7-19.4C955.7,542.2,921.1,503.3,921.1,460.1L921.1,460.1z"/>
	<path class="st0" d="M1076.6,801.4V702c0-23.8,19.4-43.2,43.2-43.2h99.4c23.8,0,43.2,19.4,43.2,43.2v99.4
		c0,23.8-19.4,43.2-43.2,43.2h-99.4C1096.1,844.6,1076.6,825.1,1076.6,801.4L1076.6,801.4z"/>
	<path class="st1" d="M921.1,352.1h60.5v103.7h-60.5V352.1z"/>
	<path class="st2" d="M992.4,252.7v79.9h-79.9v-79.9H992.4 M1009.7,192.2H895.2c-23.8,0-43.2,19.4-43.2,43.2v114.5
		c0,23.8,19.4,43.2,43.2,43.2h114.5c23.8,0,43.2-19.4,43.2-43.2V235.4C1052.9,211.7,1033.4,192.2,1009.7,192.2L1009.7,192.2z"/>
	<path class="st1" d="M590.6,959c-45.4,0-77.8-8.6-97.2-23.8c-19.4-17.3-28.1-45.4-28.1-86.4V624.2c0-36.7-15.1-56.2-45.4-56.2
		v-56.2c30.2,0,45.4-19.4,45.4-58.3V233.3c0-41,8.6-71.3,28.1-88.6s51.8-23.8,97.2-23.8v56.2c-32.4,0-49.7,17.3-49.7,54v216
		c0,49.7-15.1,79.9-47.5,92.9c30.2,13,47.5,43.2,47.5,92.9v213.8c0,19.4,4.3,34.6,10.8,43.2c8.6,8.6,19.4,13,36.7,13L590.6,959
		C588.5,959,590.6,959,590.6,959L590.6,959z M1329.4,121c45.4,0,77.8,8.6,97.2,23.8c19.4,17.3,28.1,45.4,28.1,86.4v224.6
		c0,36.7,15.1,56.2,45.4,56.2v56.2c-30.2,0-45.4,19.4-45.4,58.3v218.2c0,41-8.6,71.3-28.1,88.6c-19.4,17.3-51.8,25.9-97.2,25.9
		v-56.2c32.4,0,49.7-17.3,49.7-54v-216c0-49.7,15.1-79.9,47.5-92.9c-30.2-13-47.5-43.2-47.5-92.9V233.3c0-19.4-4.3-34.6-10.8-43.2
		c-8.6-8.6-19.4-13-36.7-13L1329.4,121L1329.4,121z"/>
</g>
</svg>
