<?xml version="1.0" encoding="UTF-8" standalone="no"?>
<!-- Generator: Adobe Illustrator 20.1.0, SVG Export Plug-In . SVG Version: 6.00 Build 0)  -->

<svg
   xmlns:dc="http://purl.org/dc/elements/1.1/"
   xmlns:cc="http://creativecommons.org/ns#"
   xmlns:rdf="http://www.w3.org/1999/02/22-rdf-syntax-ns#"
   xmlns:svg="http://www.w3.org/2000/svg"
   xmlns="http://www.w3.org/2000/svg"
   xmlns:sodipodi="http://sodipodi.sourceforge.net/DTD/sodipodi-0.dtd"
   xmlns:inkscape="http://www.inkscape.org/namespaces/inkscape"
   version="1.1"
   id="Layer_1"
   x="0px"
   y="0px"
   viewBox="0 0 32 32"
   style="enable-background:new 0 0 32 32;"
   xml:space="preserve"
   sodipodi:docname="icon-expand.svg"
   inkscape:version="0.92.1 r15371"><metadata
     id="metadata4498"><rdf:RDF><cc:Work
         rdf:about=""><dc:format>image/svg+xml</dc:format><dc:type
           rdf:resource="http://purl.org/dc/dcmitype/StillImage" /></cc:Work></rdf:RDF></metadata><defs
     id="defs4496" /><sodipodi:namedview
     pagecolor="#ffffff"
     bordercolor="#666666"
     borderopacity="1"
     objecttolerance="10"
     gridtolerance="10"
     guidetolerance="10"
     inkscape:pageopacity="0"
     inkscape:pageshadow="2"
     inkscape:window-width="1279"
     inkscape:window-height="1378"
     id="namedview4494"
     showgrid="false"
     inkscape:zoom="10.805476"
     inkscape:cx="30.324587"
     inkscape:cy="6.493254"
     inkscape:window-x="3192"
     inkscape:window-y="0"
     inkscape:window-maximized="0"
     inkscape:current-layer="Layer_1" /><polygon
     points="2.8,5.5 2.7,11.5 0.3,9.1 0.5,0.9 8.7,0.6 11.1,3.1 5.1,3.2 13,11.1 10.7,13.4 "
     id="polygon4485"
     style="fill:#0058ad;fill-opacity:1" /><polygon
     points="5.1,29 11.1,29.1 8.7,31.5 0.5,31.3 0.2,23.1 2.7,20.7 2.8,26.7 10.7,18.8 13,21.1 "
     id="polygon4487"
     style="fill:#0058ad;fill-opacity:1" /><polygon
     points="29.4,26.7 29.5,20.6 31.9,23 31.6,31.2 23.5,31.5 21,29.1 27.1,28.9 19.2,21 21.5,18.7 "
     id="polygon4489"
     style="fill:#0058ad;fill-opacity:1" /><polygon
     points="27.1,3.1 21,3 23.4,0.6 31.6,0.9 32,9 29.5,11.5 29.4,5.4 21.5,13.3 19.2,11.1 "
     id="polygon4491"
     style="fill:#0058ad;fill-opacity:1" /><path
     style="opacity:1;fill:#539cf6;fill-opacity:1;stroke:#0273d4;stroke-width:0.23136418;stroke-miterlimit:4;stroke-dasharray:none;stroke-opacity:1"
     d=""
     id="path4500"
     inkscape:connector-curvature="0" /></svg>