<svg viewBox="0 0 50 50" class="fxs-portal-svg" role="presentation" focusable="false" xmlns:svg="http://www.w3.org/2000/svg" xmlns:xlink="http://www.w3.org/1999/xlink" id="FxSymbol0-0ca" width="100%" height="100%"><g><title></title><path d="M47.247 25c0 12.287-9.96 22.246-22.247 22.246S2.753 37.287 2.753 25 12.713 2.753 25 2.753c12.286 0 22.247 9.961 22.247 22.247" class="msportalfx-svg-c16"></path><path d="M25 2.753C12.713 2.753 2.753 12.714 2.753 25c0 5.266 1.84 10.096 4.897 13.906l32.77-29.92c-4-3.851-9.428-6.233-15.42-6.233" class="msportalfx-svg-c15"></path><path d="M28.867 19.518v16.098c0 1.434.166 2.35.499 2.749.333.398.985.626 1.956.684v.782H20.35v-.782c.898-.029 1.564-.29 1.999-.782.289-.333.434-1.217.434-2.651V23.754c0-1.433-.166-2.349-.498-2.748-.334-.398-.979-.627-1.935-.684v-.804h8.517zm-3.041-9.841c.94 0 1.737.33 2.39.989.651.659.976 1.451.976 2.378s-.329 1.717-.987 2.369a3.265 3.265 0 0 1-2.379.977 3.228 3.228 0 0 1-2.369-.977c-.652-.652-.978-1.442-.978-2.369s.326-1.719.978-2.378 1.441-.989 2.369-.989" class="msportalfx-svg-c01"></path></g></svg>