<?xml version="1.0" encoding="utf-8"?>
<!-- Generator: Adobe Illustrator 21.1.0, SVG Export Plug-In . SVG Version: 6.00 Build 0)  -->
<svg version="1.1" id="Layer_1" xmlns="http://www.w3.org/2000/svg" xmlns:xlink="http://www.w3.org/1999/xlink" x="0px" y="0px"
	 viewBox="0 0 100 100" style="enable-background:new 0 0 100 100;" xml:space="preserve">
<g>
	<path fill="#3174B9" d="M41.1,53c0,0-2.6,1.5,1.8,2c5.3,0.6,8,0.5,13.9-0.6c1.2,0.7,2.4,1.3,3.7,1.8C47.4,61.8,30.7,55.9,41.1,53
		L41.1,53z M39.5,45.6c0,0-2.9,2.1,1.5,2.6c6,0.7,12.1,0.4,18-0.9c0.8,0.7,1.7,1.3,2.8,1.7C45.8,53.7,28.1,49.4,39.5,45.6z"/>
	<path fill="#CA3132" d="M53,33.1c3.2,3.7-0.9,7.1-0.9,7.1s8.2-4.2,4.5-9.6c-3.5-5-6.2-7.4,8.4-15.9C65,14.7,42,20.5,53,33.1L53,33.1z"
		/>
	<path fill="#3174B9" d="M70.4,58.4c0,0,1.9,1.6-2.1,2.8c-7.6,2.3-31.6,3-38.3,0.1c-2.4-1,2.1-2.5,3.5-2.8c0.8-0.2,1.5-0.3,2.3-0.3
		c-2.7-1.9-17.2,3.7-7.4,5.3C55.3,67.9,77.4,61.6,70.4,58.4L70.4,58.4z M42.3,38c0,0-12.2,2.9-4.3,4c3.3,0.4,10,0.3,16.2-0.2
		c5.1-0.4,10.1-1.3,10.1-1.3c-1.1,0.5-2.1,1-3.1,1.6c-12.4,3.3-36.4,1.7-29.5-1.6C35,38.8,38.6,38,42.3,38L42.3,38z M64.2,50.2
		c12.6-6.6,6.8-12.8,2.7-12c-0.5,0.1-1,0.2-1.4,0.4c0.3-0.4,0.6-0.7,1.1-0.8c8.1-2.8,14.2,8.3-2.6,12.8
		C64.1,50.5,64.2,50.4,64.2,50.2L64.2,50.2z"/>
	<path fill="#CA3132" d="M56.6,1c0,0,7,7-6.6,17.7c-10.9,8.6-2.5,13.5,0,19.1c-6.4-5.7-11-10.8-7.9-15.5C46.7,15.4,59.4,12.1,56.6,1z"
		/>
	<path fill="#3174B9" d="M43.6,68c12.1,0.8,30.7-0.4,31.1-6.2c0,0-0.8,2.2-10,3.9c-10.1,1.7-20.5,1.9-30.6,0.5
		C34,66.2,35.6,67.5,43.6,68L43.6,68z"/>
	<path fill="#CA3132" d="M74.1,78.3h-0.4v-0.2h1v0.2h-0.4v1h-0.3L74.1,78.3L74.1,78.3z M76.1,78.3L76.1,78.3l-0.4,1h-0.2l-0.4-1h0v1H75
		v-1.2h0.4l0.3,0.9l0.3-0.9h0.4v1.2h-0.2L76.1,78.3L76.1,78.3z M41.6,89.9c-0.9,0.9-2.1,1.5-3.4,1.5c-1.2,0.1-2.3-0.8-2.4-2
		c0-0.1,0-0.3,0-0.4c0-1.6,0.9-2.8,4.5-2.8h1.3L41.6,89.9L41.6,89.9z M44.7,93.4v-11c0-2.8-1.6-4.7-5.5-4.7c-2,0-4,0.4-5.8,1.3
		l0.5,1.9c1.4-0.6,3-0.9,4.5-0.9c2.2,0,3.2,0.9,3.2,2.8v1.4h-1.1c-5.4,0-7.9,2.1-7.9,5.3c0,2.7,1.6,4.3,4.6,4.3c1.8,0,3.5-0.7,4.8-2
		l0.2,1.7H44.7z M55.2,93.4h-3.9l-4.7-15.4H50l2.9,9.5l0.7,2.8c1.5-4,2.5-8.1,3.1-12.3H60C59.1,83.4,57.5,88.5,55.2,93.4L55.2,93.4z
		 M70.3,89.9c-0.9,0.9-2.1,1.4-3.4,1.5c-1.2,0.1-2.3-0.8-2.4-2c0-0.1,0-0.3,0-0.4c0-1.6,0.9-2.8,4.5-2.8h1.3V89.9L70.3,89.9z
		 M73.5,93.4v-11c0-2.8-1.6-4.7-5.5-4.7c-2,0-4,0.4-5.8,1.3l0.5,1.9c1.4-0.6,3-0.9,4.5-0.9c2.2,0,3.2,0.9,3.2,2.8v1.4h-1.1
		c-5.4,0-7.9,2.1-7.9,5.3c0,2.7,1.6,4.3,4.6,4.3c1.8,0,3.5-0.7,4.8-2l0.2,1.7H73.5z M29.1,96.1c-1,1.4-2.4,2.4-3.9,2.9l-1.6-1.8
		c1.1-0.6,2.1-1.5,2.7-2.6c0.4-0.8,0.6-1.9,0.6-4.5V72.6h3.3v17.3C30.3,93.3,30,94.7,29.1,96.1L29.1,96.1z"/>
</g>
</svg>
