<svg id="svg2" xmlns="http://www.w3.org/2000/svg" viewBox="0 0 722.85 701.97"><title>k8</title><g id="layer1"><g id="g3052"><path id="path3055" d="M359,10.06a47,47,0,0,0-17.91,4.53L96.74,131.34a46.41,46.41,0,0,0-25.28,31.44L11.17,425a46,46,0,0,0,6.35,35.53c.82,1.27,1.71,2.5,2.65,3.69L189.3,674.53A46.89,46.89,0,0,0,225.83,692l271.22-.07a46.86,46.86,0,0,0,36.53-17.4L702.64,464.19a46,46,0,0,0,9-39.22L651.3,162.72A46.43,46.43,0,0,0,626,131.28L381.64,14.59A47,47,0,0,0,359,10.06Z" style="fill:#326ce5"></path><path id="path3059" d="M361.41,99.31c-8.08,0-14.63,7.27-14.63,16.25,0,.13,0,.27,0,.4,0,1.22-.07,2.69,0,3.75.2,5.18,1.32,9.14,2,13.91,1.23,10.21,2.26,18.67,1.63,26.53-.62,3-2.81,5.68-4.75,7.56l-.35,6.19A191.25,191.25,0,0,0,318.88,178a188.23,188.23,0,0,0-95.57,54.6c-1.61-1.1-4.44-3.13-5.28-3.75-2.61.35-5.25,1.16-8.68-.85-6.55-4.4-12.51-10.48-19.72-17.81-3.31-3.5-5.7-6.84-9.63-10.22-.89-.76-2.25-1.8-3.25-2.59a17.39,17.39,0,0,0-10.19-3.85,14.1,14.1,0,0,0-11.65,5.16c-5,6.32-3.43,16,3.59,21.56l.22.16c1,.78,2.14,1.78,3,2.44,4.17,3.07,8,4.65,12.13,7.09,8.74,5.4,16,9.88,21.75,15.28,2.24,2.4,2.63,6.62,2.93,8.44l4.69,4.19a189.22,189.22,0,0,0-29.84,131.93l-6.13,1.79c-1.61,2.08-3.89,5.36-6.28,6.34-7.52,2.37-16,3.24-26.22,4.31-4.8.4-8.94.16-14,1.13-1.12.21-2.68.62-3.9.9l-.13,0-.22.07c-8.62,2.08-14.16,10-12.37,17.81s10.2,12.56,18.87,10.69a1.46,1.46,0,0,1,.22,0l.28-.1c1.21-.26,2.73-.56,3.78-.84,5-1.34,8.63-3.31,13.13-5,9.67-3.47,17.69-6.37,25.5-7.5,3.26-.26,6.69,2,8.4,3l6.38-1.1A190.26,190.26,0,0,0,265,526.49l-2.65,6.38c.95,2.48,2,5.82,1.3,8.27-2.84,7.36-7.7,15.13-13.24,23.79-2.68,4-5.43,7.11-7.84,11.69-.58,1.1-1.32,2.78-1.88,3.94-3.76,8-1,17.3,6.22,20.78s16.28-.19,20.19-8.25l0,0s0,0,0,0c.55-1.15,1.34-2.65,1.81-3.72,2.07-4.75,2.76-8.82,4.22-13.41,3.87-9.72,6-19.92,11.32-26.27,1.46-1.74,3.84-2.41,6.3-3.07l3.32-6a189.32,189.32,0,0,0,135,.34c.94,1.65,2.67,4.83,3.13,5.63,2.51.81,5.24,1.23,7.47,4.53,4,6.81,6.71,14.86,10,24.59,1.46,4.59,2.18,8.66,4.25,13.41.47,1.08,1.26,2.6,1.81,3.75,3.9,8.08,12.94,11.78,20.22,8.28s10-12.74,6.22-20.78c-.56-1.16-1.33-2.84-1.91-3.94-2.42-4.58-5.16-7.65-7.84-11.66-5.54-8.66-10.13-15.85-13-23.22-1.19-3.79.2-6.15,1.13-8.62-.56-.63-1.74-4.22-2.44-5.91A190.26,190.26,0,0,0,542.5,420.9c1.89.3,5.18.88,6.25,1.09,2.2-1.45,4.22-3.34,8.19-3,7.81,1.13,15.82,4,25.5,7.5,4.5,1.73,8.12,3.73,13.12,5.07,1.06.28,2.58.54,3.78.81.1,0,.19.07.29.09a1.52,1.52,0,0,0,.21,0c8.68,1.87,17.1-2.88,18.88-10.68S615,406,606.34,404c-1.25-.28-3-.77-4.25-1-5.08-1-9.23-.72-14-1.12-10.22-1.07-18.69-1.94-26.22-4.31-3.06-1.19-5.25-4.85-6.31-6.35l-5.9-1.72a190.07,190.07,0,0,0-30.47-131.62c1.51-1.38,4.37-3.91,5.18-4.66.24-2.62,0-5.37,2.75-8.28,5.76-5.4,13-9.88,21.75-15.28,4.16-2.44,8-4,12.16-7.09.94-.7,2.23-1.8,3.22-2.6,7-5.59,8.63-15.25,3.59-21.56S553,191.46,546,197.06c-1,.79-2.35,1.82-3.25,2.59-3.93,3.38-6.35,6.72-9.66,10.22-7.21,7.33-13.17,13.44-19.71,17.84-2.84,1.65-7,1.08-8.88,1l-5.56,4A191.74,191.74,0,0,0,377.53,174c-.13-1.94-.3-5.47-.34-6.53-1.9-1.82-4.2-3.37-4.78-7.31-.64-7.86.42-16.32,1.65-26.53.68-4.77,1.81-8.73,2-13.91.05-1.17,0-2.88,0-4.15,0-9-6.55-16.25-14.62-16.25ZM343.1,212.74l-4.35,76.72-.31.16A12.89,12.89,0,0,1,318,299.49l-.12.07L254.94,255a150.63,150.63,0,0,1,72.56-39.53A155.19,155.19,0,0,1,343.1,212.74Zm36.65,0A152,152,0,0,1,467.38,255l-62.5,44.32-.22-.1a12.91,12.91,0,0,1-20.5-9.84l-.06,0ZM232.13,283.62,289.56,335l-.06.32a12.88,12.88,0,0,1-5.06,22.15l-.06.25L210.75,379A150.59,150.59,0,0,1,232.13,283.62Zm258.15,0a153.29,153.29,0,0,1,22,95.06l-74-21.31-.06-.31a12.91,12.91,0,0,1-5.06-22.16l0-.15,57.12-51.13ZM349.63,339h23.53l14.62,18.28-5.25,22.82-21.12,10.15L340.22,380,335,357.21Zm75.43,62.57a13.38,13.38,0,0,1,3,.21l.13-.15,76.15,12.87a150.82,150.82,0,0,1-61,76.6l-29.57-71.41.1-.12a12.94,12.94,0,0,1,11.18-18Zm-127.9.31a12.89,12.89,0,0,1,12.37,10,12.75,12.75,0,0,1-.72,7.94l.22.28-29.25,70.69A151.48,151.48,0,0,1,219,414.71l75.5-12.81.13.16a12.79,12.79,0,0,1,2.53-.22Zm63.78,31a13,13,0,0,1,11.81,6.78H373l37.22,67.25A152.9,152.9,0,0,1,395.38,511a151.11,151.11,0,0,1-82.53-4.25L350,439.62H350A12.92,12.92,0,0,1,360.94,432.81Z" style="fill:#fff;stroke:#fff;stroke-width:0.25px"></path></g></g></svg>