<svg viewBox="0 0 31.3 31.3" focusable="false" xmlns:xlink="http://www.w3.org/1999/xlink" xmlns:svg="http://www.w3.org/2000/svg" class=" msportalfx-svg-rotate360 fxs-portal-svg" role="presentation" aria-hidden="true"><g><g class="msportalfx-svg-c19"><path d="M22 23.1l3.4 4.7c2.1-1.7 3.8-4 4.8-6.6l-5.6-1.8c-.5 1.4-1.4 2.7-2.6 3.7z" opacity=".3"></path><path d="M20.8 7.3l3.4-4.7C22 1 19.3.1 16.4 0v5.9c1.6.1 3.1.6 4.4 1.4z"></path><path d="M14.9 5.9V0C12 .1 9.4 1 7.1 2.5l3.4 4.7c1.3-.7 2.8-1.2 4.4-1.3z" opacity=".9"></path><path d="M24.7 11.9l5.6-1.8c-1-2.6-2.7-4.9-4.8-6.6L22 8.2c1.2 1 2.1 2.2 2.7 3.7z" opacity=".1"></path><path d="M9.3 8.2L5.8 3.4C3.7 5.2 2 7.4 1 10.1l5.6 1.8c.6-1.5 1.5-2.7 2.7-3.7z" opacity=".8"></path><path d="M16.4 25.4v5.9c2.9-.1 5.5-1 7.8-2.5L20.8 24c-1.3.8-2.8 1.3-4.4 1.4z" opacity=".4"></path><path d="M6.6 19.4L1 21.2c1 2.6 2.7 4.9 4.8 6.6l3.4-4.7c-1.1-1-2-2.3-2.6-3.7z" opacity=".6"></path><path d="M5.9 15.6c0-.8.1-1.5.3-2.3L.6 11.5c-.4 1.3-.6 2.7-.6 4.1s.2 2.8.6 4.1l5.6-1.8c-.2-.7-.3-1.5-.3-2.3z" opacity=".7"></path><path d="M10.6 24l-3.4 4.7c2.3 1.5 4.9 2.4 7.8 2.5v-5.9c-1.7 0-3.2-.5-4.4-1.3z" opacity=".5"></path><path d="M25.5 15.6c0 .8-.1 1.5-.3 2.3l5.6 1.8c.4-1.3.6-2.7.6-4.1s-.2-2.8-.6-4.1l-5.6 1.8c.2.8.3 1.5.3 2.3z" opacity=".2"></path></g></g></svg>