<svg viewBox="-10.5 -9.5 50 50" class="fxs-portal-svg" role="presentation" focusable="false" xmlns:svg="http://www.w3.org/2000/svg" xmlns:xlink="http://www.w3.org/1999/xlink" id="FxSymbol0-05d" width="100%" height="100%"><g><title></title><path d="M34.5 35.865h2V-9.5h-41c-1.293.167-3.992 3.3-3.992 3.751l.059 43.882A2.368 2.368 0 0 0-6.065 40.5H31.5v-.729l3-3.906z" class="msportalfx-svg-c10"></path><path d="M-2.718-7.5c-1.105 0-1.58.185-2.507 1-2.275 2 .39 2 1.495 2H31.5v44.271l3-3.906V-7.5H-2.718z" class="msportalfx-svg-c02"></path><path opacity="0.5" d="M31.5 39.771l3-3.906V-7.5l-3 3z" class="msportalfx-svg-c03"></path><g class="msportalfx-svg-c01"><path d="M7.048 17.125a4.9 4.9 0 0 1 1.396-3.428L6.548 11.8a7.577 7.577 0 0 0-2.183 5.325c0 2.096.853 3.996 2.229 5.373l1.896-1.896a4.91 4.91 0 0 1-1.442-3.477zm9.838 0a4.908 4.908 0 0 1-1.442 3.477l1.896 1.896a7.577 7.577 0 0 0 2.229-5.373 7.577 7.577 0 0 0-2.183-5.325l-1.896 1.896a4.903 4.903 0 0 1 1.396 3.429z"></path><path d="M21.134 17.125a9.139 9.139 0 0 1-2.688 6.479l1.896 1.896a11.812 11.812 0 0 0 3.475-8.375c0-3.243-1.311-6.185-3.429-8.327l-1.896 1.896a9.133 9.133 0 0 1 2.642 6.431zm-18.334 0a9.139 9.139 0 0 1 2.642-6.431L3.546 8.797a11.812 11.812 0 0 0-3.429 8.327 11.81 11.81 0 0 0 3.475 8.375l1.896-1.896A9.135 9.135 0 0 1 2.8 17.125zm11.425-2.164a3.12 3.12 0 0 0-4.516 0 3.117 3.117 0 0 0-.872 2.164c0 .864.35 1.647.917 2.213a3.117 3.117 0 0 0 2.213.917c.864 0 1.647-.35 2.213-.917a3.117 3.117 0 0 0 .917-2.213c0-.841-.333-1.602-.872-2.164z"></path></g><path d="M34.5 35.865h2V-9.5h-41c-1.293.167-3.992 3.3-3.992 3.751l.059 43.882A2.368 2.368 0 0 0-6.065 40.5H31.5v-.729l3-3.906z" class="msportalfx-svg-c10"></path><path d="M-2.718-7.5c-1.105 0-1.58.185-2.507 1-2.275 2 .39 2 1.495 2H31.5v44.271l3-3.906V-7.5H-2.718z" class="msportalfx-svg-c02"></path><path opacity="0.5" d="M31.5 39.771l3-3.906V-7.5l-3 3z" class="msportalfx-svg-c03"></path><g class="msportalfx-svg-c01"><path d="M7.048 17.125a4.9 4.9 0 0 1 1.396-3.428L6.548 11.8a7.577 7.577 0 0 0-2.183 5.325c0 2.096.853 3.996 2.229 5.373l1.896-1.896a4.91 4.91 0 0 1-1.442-3.477zm9.838 0a4.908 4.908 0 0 1-1.442 3.477l1.896 1.896a7.577 7.577 0 0 0 2.229-5.373 7.577 7.577 0 0 0-2.183-5.325l-1.896 1.896a4.903 4.903 0 0 1 1.396 3.429z"></path><path d="M21.134 17.125a9.139 9.139 0 0 1-2.688 6.479l1.896 1.896a11.812 11.812 0 0 0 3.475-8.375c0-3.243-1.311-6.185-3.429-8.327l-1.896 1.896a9.133 9.133 0 0 1 2.642 6.431zm-18.334 0a9.139 9.139 0 0 1 2.642-6.431L3.546 8.797a11.812 11.812 0 0 0-3.429 8.327 11.81 11.81 0 0 0 3.475 8.375l1.896-1.896A9.135 9.135 0 0 1 2.8 17.125zm11.425-2.164a3.12 3.12 0 0 0-4.516 0 3.117 3.117 0 0 0-.872 2.164c0 .864.35 1.647.917 2.213a3.117 3.117 0 0 0 2.213.917c.864 0 1.647-.35 2.213-.917a3.117 3.117 0 0 0 .917-2.213c0-.841-.333-1.602-.872-2.164z"></path></g></g></svg>