<?xml version="1.0" encoding="utf-8"?>
<svg xmlns="http://www.w3.org/2000/svg" viewBox="0 0 100 100">
  <title>MSI_2</title>
  <g id="Layer_2" data-name="Layer 2">
    <g id="Layer_1-2" data-name="Layer 1">
      <g>
        <path d="M28.284,81.85a5.07,5.07,0,0,1,0-7.172L39.412,63.551V53.6L55.845,37.166a10.83,10.83,0,0,0,0-15.314L37.166,3.172a10.831,10.831,0,0,0-15.316,0L3.172,21.852a10.828,10.828,0,0,0,0,15.314L20.908,54.9V56.4l-5.049,5.05,5.005,5.005-5.005,5,5.005,5.005-5.005,5,5.049,5.05v.063l8.6,8.6,6.051-6.051ZM23.361,13.834a6.147,6.147,0,1,1,6.147,6.147A6.148,6.148,0,0,1,23.361,13.834Z" fill="#fcd116"/>
        <rect x="12.364" y="25.92" width="35.482" height="5.1" fill="#fff" opacity="0.5" style="isolation: isolate"/>
        <rect x="12.364" y="34.217" width="35.482" height="5.1" fill="#fff" opacity="0.5" style="isolation: isolate"/>
        <path d="M54.3,100a3.978,3.978,0,0,1-2.835-1.175L33.735,81.1a4.008,4.008,0,0,1,0-5.67L51.461,57.7a4.005,4.005,0,0,1,5.67,0L74.855,75.429a4.006,4.006,0,0,1,0,5.672L57.131,98.825A3.978,3.978,0,0,1,54.3,100" fill="#59b4d9"/>
        <path d="M66.132,74.867a3.393,3.393,0,0,0-2.839,5.262L56.56,86.861a3.991,3.991,0,0,0-.57-.324V69.36a3.4,3.4,0,1,0-3.388,0V86.536a3.929,3.929,0,0,0-.55.307l-6.74-6.74a3.493,3.493,0,1,0-1.744,1.361l7.085,7.086a3.957,3.957,0,1,0,7.292.028l7.106-7.105a3.356,3.356,0,0,0,1.079.191,3.4,3.4,0,0,0,0-6.8Z" fill="#fff"/>
        <rect x="59.518" y="63.683" width="2.194" height="17.976" transform="translate(-33.633 64.159) rotate(-45.008)" fill="#fff" opacity="0.5" style="isolation: isolate"/>
        <rect x="39.002" y="71.585" width="17.977" height="2.194" transform="translate(-37.338 55.222) rotate(-45)" fill="#fff" opacity="0.5" style="isolation: isolate"/>
        <path d="M56.612,90.1a2.356,2.356,0,1,1-2.356-2.355A2.355,2.355,0,0,1,56.612,90.1" fill="#b8d432"/>
        <path d="M56.185,66.43a1.89,1.89,0,1,1-1.89-1.89,1.889,1.889,0,0,1,1.89,1.89" fill="#b8d432"/>
        <path d="M44.352,78.265a1.89,1.89,0,1,1-1.89-1.89,1.891,1.891,0,0,1,1.89,1.89" fill="#b8d432"/>
        <path d="M68.022,78.265a1.891,1.891,0,1,1-1.891-1.89,1.891,1.891,0,0,1,1.891,1.89" fill="#b8d432"/>
        <path d="M57.131,57.7a4,4,0,0,0-5.669,0L33.735,75.429a4.008,4.008,0,0,0,0,5.67L43.771,91.135,62.65,63.222Z" fill="#fff" opacity="0.1" style="isolation: isolate"/>
        <polygon points="34.788 68.137 34.788 55.217 30.924 57.12 30.924 72.001 34.788 68.137" fill="#ff8c00" opacity="0.4" style="isolation: isolate"/>
      </g>
    </g>
  </g>
</svg>