<?xml version="1.0" encoding="utf-8"?>
<!-- Generator: Adobe Illustrator 22.1.0, SVG Export Plug-In . SVG Version: 6.00 Build 0)  -->
<svg version="1.1" id="Layer_1" xmlns="http://www.w3.org/2000/svg" xmlns:xlink="http://www.w3.org/1999/xlink" x="0px" y="0px"
	 viewBox="0 0 50 50" style="enable-background:new 0 0 50 50;" xml:space="preserve">
<style type="text/css">
	.st0{fill:#FFFFFF;}
</style>
<path class="st0" d="M45.1,24.6c0-0.3,0-0.6,0-1h-4.3c0,0.3,0,0.6,0,1c0,0.5,0,0.9-0.1,1.4c-0.3,3.8-1.7,7.3-4,10.1
	c-1.3-0.7-2.8-1.3-4.5-1.8c0.7-2.5,1.2-5.3,1.3-8.4c0-0.5,0-0.9,0-1.4c0-0.3,0-0.6,0-1c-0.1-3-0.5-5.9-1.2-8.4
	c1.7-0.5,3.2-1.1,4.6-1.9c1.4-0.7,2.5-1.6,3.5-2.5c-0.5-0.6-1-1.2-1.5-1.8C34.8,4.7,29,2,22.6,2S10.3,4.7,6.2,9.1
	c-0.5,0.6-1,1.2-1.5,1.8C1.7,14.7,0,19.4,0,24.6c0,5.3,1.8,10.1,4.8,13.9c0.5,0.6,1,1.2,1.5,1.8c4.1,4.2,9.8,6.9,16.2,6.9
	s12.1-2.6,16.2-6.9c0.5-0.6,1.1-1.1,1.5-1.8c2.8-3.5,4.5-7.9,4.8-12.6C45.1,25.5,45.1,25,45.1,24.6z M10,37.8c1.1-0.5,2.3-1,3.6-1.4
	c0.8,2.1,1.9,4,3.1,5.4C14.2,41,11.9,39.6,10,37.8z M4.3,25.9h7.2c0.1,3,0.6,5.8,1.3,8.4c-1.6,0.5-3.1,1.1-4.5,1.8
	C6.1,33.2,4.6,29.8,4.3,25.9z M8.1,13.4c1.4,0.7,2.9,1.4,4.6,1.9c-0.7,2.5-1.1,5.4-1.2,8.4H4.3C4.5,19.7,5.9,16.2,8.1,13.4z
	 M16.7,7.3c-1.3,1.5-2.4,3.4-3.3,5.7c-1.3-0.4-2.6-0.9-3.7-1.4C11.7,9.6,14,8.2,16.7,7.3z M21.2,14.2c-1.9-0.1-3.8-0.3-5.5-0.7
	c0.3-0.8,0.7-1.6,1.1-2.3c1.3-2.4,2.8-3.9,4.4-4.5V14.2z M21.2,23.6h-7.4c0.1-2.8,0.5-5.4,1.1-7.8c2,0.4,4,0.7,6.2,0.8V23.6z
	 M21.2,33c-2.2,0.1-4.2,0.3-6.1,0.7c-0.7-2.4-1.1-5-1.2-7.8h7.4V33z M21.2,42.4c-1.6-0.6-3.1-2.2-4.4-4.5c-0.3-0.6-0.6-1.3-0.9-2
	c1.7-0.3,3.5-0.6,5.4-0.6V42.4z M23.5,35.3c2,0.1,3.9,0.3,5.7,0.6c-0.3,0.7-0.6,1.4-0.9,2c-1.4,2.5-3.1,4.2-4.8,4.6V35.3z
	 M28.4,11.2c0.4,0.7,0.8,1.5,1.1,2.3c-1.9,0.4-3.8,0.6-5.9,0.7V6.6C25.3,7.1,27,8.7,28.4,11.2z M31.7,13c-0.9-2.3-2-4.3-3.3-5.7
	c2.6,0.9,5,2.4,6.9,4.3C34.3,12.1,33,12.6,31.7,13z M31.3,23.6h-7.8v-7c2.3-0.1,4.6-0.3,6.6-0.8C30.8,18.2,31.2,20.8,31.3,23.6z
	 M31.3,25.9c-0.1,2.8-0.5,5.4-1.2,7.8c-2-0.4-4.2-0.7-6.5-0.8v-7H31.3z M35.1,37.8c-1.9,1.8-4.2,3.2-6.7,4c1.2-1.4,2.3-3.2,3.1-5.4
	C32.8,36.9,34,37.3,35.1,37.8z"/>
<polygon class="st0" points="50,25.9 43.1,14.1 36.3,25.9 "/>
</svg>
