<?xml version="1.0" encoding="utf-8"?>
<!-- Generator: Adobe Illustrator 22.1.0, SVG Export Plug-In . SVG Version: 6.00 Build 0)  -->
<svg version="1.1" id="FxSymbol0-047" focusable="false" xmlns:svg="http://www.w3.org/2000/svg"
	 xmlns="http://www.w3.org/2000/svg" xmlns:xlink="http://www.w3.org/1999/xlink" x="0px" y="0px" viewBox="0 0 300 300"
	 style="enable-background:new 0 0 300 300;" xml:space="preserve">
<style type="text/css">
	.st0{fill:#59B4D9;}
</style>
<g>
	<title></title>
	<path class="st0" d="M300,199c0-19.3-15.5-35-34.7-35c-1.4,0-2.9,0.1-4.2,0.3c2.1-7.9,3.3-16.1,3.3-24.7c0-30-14.1-56.7-35.9-73.7
		l-33.9,43.7h40.1l-84.8,89.8l28-64.6h-36.4l32.8-88.4c-0.8,0-1.6-0.1-2.4-0.1c-40.8,0-75.5,26.7-87.8,63.7
		c-6.6-2.3-13.6-3.5-20.7-3.6c-35,0-63.3,28.6-63.3,63.8C0,205.4,28.3,234,63.3,234l0.1,0v0h204.7l0-0.2
		C285.9,232.4,300,217.4,300,199z"/>
</g>
</svg>
