<?xml version="1.0" encoding="utf-8"?>
<!-- Generator: Adobe Illustrator 23.0.0, SVG Export Plug-In . SVG Version: 6.00 Build 0)  -->
<svg class="svg-monochromatic" version="1.1" id="Layer_1" focusable="false" xmlns:svg="http://www.w3.org/2000/svg"
	 xmlns="http://www.w3.org/2000/svg" xmlns:xlink="http://www.w3.org/1999/xlink" x="0px" y="0px" viewBox="0 0 16 16"
	 style="enable-background:new 0 0 16 16;" xml:space="preserve">
<path d="M0,0h7v7L0,0z"/>
<path d="M7.7,16C3.5,15.9,0,12.4,0,8.2c0-2.5,1.2-4.7,3-6.1l1.7,1.7C3.2,4.7,2.3,6.3,2.3,8.2c0,3,2.4,5.4,5.4,5.5
	c3,0,5.4-2.3,5.4-5.3c0-1.9-1-3.6-2.4-4.6l1.6-1.6c1.9,1.4,3,3.8,3,6.3C15.2,12.7,11.9,16.1,7.7,16z"/>
</svg>
