<svg viewBox="0 0 16 16" class="svg-monochromatic" role="presentation" focusable="false" xmlns:svg="http://www.w3.org/2000/svg" xmlns:xlink="http://www.w3.org/1999/xlink" id="FxSymbol0-05a" width="100%" height="100%"><g><title></title><path d="M16 8.175c0-3.916-3.027-7.152-6.831-7.497v2.246c2.582.315 4.619 2.526 4.619 5.213a5.066 5.066 0 0 1-2.022 4.063L9.135 9.726V16h6.673l-2.406-2.262A7.232 7.232 0 0 0 16 8.175zM2.212 7.864c0-1.669.794-3.137 2.023-4.063l2.631 2.474V0H.192l2.406 2.262A7.232 7.232 0 0 0 0 7.825c0 3.928 3.046 7.171 6.865 7.499V13.08c-2.598-.298-4.653-2.517-4.653-5.216z"></path></g></svg>