<svg viewBox="0 0 16 16" class="svg-monochromatic" role="presentation" focusable="false" xmlns:svg="http://www.w3.org/2000/svg" xmlns:xlink="http://www.w3.org/1999/xlink" id="FxSymbol0-068" width="100%" height="100%"><g><title></title><path d="M14.4 0H1.6C.7 0 0 .7 0 1.6v12.8c0 .9.7 1.6 1.6 1.6H3v-5c0-.6.5-1.1 1.1-1.1H12c.6 0 1.1.5 1.1 1.1v5h1.3c.9 0 1.6-.7 1.6-1.6V1.6c0-.9-.7-1.6-1.6-1.6zm-1.3 6.2c0 .6-.5 1-1.1 1H4.1C3.5 7.2 3 6.7 3 6.1l-.1-3.2c0-.6.5-1.1 1.1-1.1h7.9c.6 0 1.1.6 1.1 1.2l.1 3.2z"></path><path d="M5 13h3v3H5z"></path></g></svg>