<svg viewBox="-0.5 0.5 50 50" class="fxs-portal-svg" role="presentation" focusable="false" xmlns:svg="http://www.w3.org/2000/svg" xmlns:xlink="http://www.w3.org/1999/xlink" aria-hidden="true">
    <g>
    <path fill-rule="evenodd" d="M36.167 27.167v10H12.833V13.833h9.997v-5H11.167a3.333 3.333 0 0 0-3.333 3.333v26.667a3.333 3.333 0 0 0 3.333 3.333h26.667a3.333 3.333 0 0 0 3.333-3.333V27.167h-5z" class="msportalfx-svg-c03"></path>
    <path d="M21.167.5h6.667v5h-6.667zm-10 0h6.667v5h-6.667zm33.333 45h-3.333v5h5a3.333 3.333 0 0 0 3.333-3.333v-5h-5V45.5zm-45-13.333h5v6.667h-5zM21.167 45.5h6.667v5h-6.667zM44.5 32.167h5v6.667h-5zM31.167 45.5h6.667v5h-6.667zm-20 0h6.667v5h-6.667zm-6.667 0v-3.333h-5v5A3.333 3.333 0 0 0 2.833 50.5h5v-5H4.5zm-5-33.333h5v6.667h-5zm5-6.667h3.333v-5h-5A3.334 3.334 0 0 0-.5 3.833v5h5V5.5zm-5 16.667h5v6.667h-5zm45 0h5v6.667h-5z" class="msportalfx-svg-c13"></path>
    <path d="M49.5.5h-15l5.584 5.584-21.369 21.369 3.882 3.88L43.965 9.965 49.5 15.5z" class="msportalfx-svg-c07"></path>
    </g>
</svg>