<svg viewBox="-0.5 0.5 50 50" class="fxs-portal-svg" role="presentation" focusable="false" xmlns:svg="http://www.w3.org/2000/svg" xmlns:xlink="http://www.w3.org/1999/xlink" aria-hidden="true">
    <g>
        <path fill-rule="evenodd" clip-rule="evenodd" d="M36.167 27.167v10H12.833V13.833h9.997v-5H11.167a3.333 3.333 0 0 0-3.333 3.333v26.667a3.333 3.333 0 0 0 3.333 3.333h26.667a3.333 3.333 0 0 0 3.333-3.333V27.167h-5z" class="msportalfx-svg-c03"></path>
        <rect x="21.167" y=".5" width="6.667" height="5" class="msportalfx-svg-c15"></rect>
        <rect x="11.167" y=".5" width="6.667" height="5" class="msportalfx-svg-c15"></rect>
        <path d="M44.5 45.5h-3.333v5h5a3.333 3.333 0 0 0 3.333-3.333v-5h-5V45.5z" class="msportalfx-svg-c15"></path>
        <rect x="-.5" y="32.167" width="5" height="6.667" class="msportalfx-svg-c15"></rect>
        <rect x="21.167" y="45.5" width="6.667" height="5" class="msportalfx-svg-c15"></rect>
        <rect x="44.5" y="32.167" width="5" height="6.667" class="msportalfx-svg-c15"></rect>
        <rect x="31.167" y="45.5" width="6.667" height="5" class="msportalfx-svg-c15"></rect>
        <rect x="11.167" y="45.5" width="6.667" height="5" class="msportalfx-svg-c15"></rect>
        <path d="M4.5 45.5v-3.333h-5v5A3.333 3.333 0 0 0 2.833 50.5h5v-5H4.5z" class="msportalfx-svg-c15"></path>
        <rect x="-.5" y="12.167" width="5" height="6.667" class="msportalfx-svg-c15"></rect>
        <path d="M4.5 5.5h3.333v-5h-5A3.334 3.334 0 0 0-.5 3.833v5h5V5.5z" class="msportalfx-svg-c15"></path>
        <rect x="-.5" y="22.167" width="5" height="6.667" class="msportalfx-svg-c15"></rect>
        <rect x="44.5" y="22.167" width="5" height="6.667" class="msportalfx-svg-c15"></rect>
        <polygon points="49.5,0.5 34.5,0.5 40.084,6.084 18.715,27.453 22.597,31.333 43.965,9.965 49.5,15.5" class="msportalfx-svg-c07">
        </polygon>
    </g>
</svg>