<svg id="Layer_1" data-name="Layer 1" xmlns="http://www.w3.org/2000/svg" viewBox="0 0 201.78 150"><g id="Layer_2" data-name="Layer 2"><g id="Layer_1-2" data-name="Layer 1-2"><polygon points="86.86 0 0 28.88 0 100.56 80.47 130.29 86.78 132.65 86.78 132.62 174.7 100.71 174.7 28.89 86.86 0" style="fill:#814b99"></polygon><polygon points="6.92 36.07 6.92 39.37 6.92 95.69 9.01 96.46 9.01 38.67 15.21 36.62 15.21 32.94 6.92 35.69 6.92 36.07" style="fill:#453949"></polygon><polygon points="18.26 32.59 18.26 35.6 18.26 99.88 20.7 100.78 20.7 34.79 28 32.37 28 28.69 18.26 31.93 18.26 32.59" style="fill:#453949"></polygon><polygon points="31.99 27.64 31.99 31.04 31.99 104.95 34.78 105.99 34.78 30.11 43.58 27.19 43.58 23.51 31.99 27.36 31.99 27.64" style="fill:#453949"></polygon><polygon points="80.76 14.84 80.76 11.16 66.47 15.91 66.44 15.91 66.44 15.92 66.44 19.59 66.44 117.69 69.93 118.98 69.93 18.43 80.76 14.84" style="fill:#453949"></polygon><polygon points="48.6 22.01 48.6 25.52 48.6 111.09 51.74 112.25 51.74 24.48 60.34 21.62 60.34 17.95 48.6 21.84 48.6 22.01" style="fill:#453949"></polygon><polygon points="174.68 100.81 86.87 132.65 86.87 0.12 174.7 29.04 174.68 100.81" style="fill:#9369a9"></polygon><path d="M199.76,131.68A15.83,15.83,0,0,0,184,115.81h-2.22a46.83,46.83,0,0,0,1.72-11.16,42.2,42.2,0,0,0-82.34-13.29,33.54,33.54,0,0,0-9.42-1.72,29.17,29.17,0,0,0,0,58.33H185.2a16.3,16.3,0,0,0,14.56-16.29" style="fill:#5bb4da"></path><path d="M106.5,148a29.16,29.16,0,0,1,14.15-48.89,23.92,23.92,0,0,1,9.42-.43,42.53,42.53,0,0,1,23.58-34.3,40.46,40.46,0,0,0-12.86-2.13,42,42,0,0,0-39.9,29.16,33.54,33.54,0,0,0-9.42-1.72,29.16,29.16,0,0,0,0,58.31Z" style="fill:#7ec0e0"></path><circle cx="93.04" cy="8.76" r="2.33" style="fill:#583e62"></circle><ellipse cx="168.36" cy="32.92" rx="2.2" ry="2.33" style="fill:#583e62"></ellipse><path d="M91.7,150a31.18,31.18,0,0,1,0-62.36,30,30,0,0,1,8.15,1.28A43.89,43.89,0,0,1,141,60.18a44.53,44.53,0,0,1,44.49,44.49,42.8,42.8,0,0,1-1.18,9.15,17.89,17.89,0,0,1,17.46,17.86A18.32,18.32,0,0,1,185.38,150Zm0-58.31a27.13,27.13,0,1,0,0,54.26h93.51a14.25,14.25,0,0,0,12.56-14.27,13.86,13.86,0,0,0-13.86-13.84h-4.73l.63-2.52a45.28,45.28,0,0,0,1.66-10.67A40.49,40.49,0,0,0,141,64.22,39.9,39.9,0,0,0,103,92l-.61,1.86-1.87-.53A31.43,31.43,0,0,0,91.7,91.69Z" style="fill:#fff"></path></g></g></svg>