<svg viewBox="0 0 50 50" focusable="false" xmlns:xlink="http://www.w3.org/1999/xlink" xmlns:svg="http://www.w3.org/2000/svg" class=" fxs-portal-svg" role="presentation" aria-hidden="true"><g><path class="msportalfx-svg-c05" d="M40.771 43.034c0 .687-.557 1.243-1.243 1.243H11.475a1.244 1.244 0 0 1 0-2.486h28.053c.686 0 1.243.557 1.243 1.243m-12.088 5.724c0 .687-.557 1.242-1.243 1.242H11.474a1.241 1.241 0 1 1 0-2.485H27.44c.686 0 1.243.556 1.243 1.243m11.929-17.521c0 .687-.557 1.243-1.243 1.243H11.474a1.243 1.243 0 0 1 0-2.486h27.895c.686 0 1.243.558 1.243 1.243m-5.263 5.724c0 .687-.557 1.243-1.243 1.243H11.474a1.243 1.243 0 0 1 0-2.486h22.631c.687 0 1.244.557 1.244 1.243"></path><path class="msportalfx-svg-c15" d="M46.4 22.105c0-2.799-2.247-5.067-5.022-5.067-.209 0-.415.016-.613.043.306-1.138.476-2.335.476-3.572C41.24 6.048 35.243 0 27.846 0c-5.91 0-10.921 3.859-12.7 9.217a8.982 8.982 0 0 0-2.99-.516C7.095 8.701 3 12.836 3 17.936c0 5.103 4.095 9.238 9.155 9.238 0 0 .009-.004.013-.004v.004h29.617l-.005-.025c2.584-.204 4.62-2.381 4.62-5.044"></path><path class="msportalfx-svg-c01" d="M17.019 27.174a9.244 9.244 0 0 1-2.508-4.517c-1.135-4.972 1.937-9.915 6.87-11.041a8.969 8.969 0 0 1 3.03-.163c.448-4.645 3.281-8.776 7.502-10.815A13.284 13.284 0 0 0 27.846 0c-5.91 0-10.921 3.859-12.7 9.217a8.982 8.982 0 0 0-2.99-.516C7.095 8.701 3 12.836 3 17.936c0 5.103 4.095 9.238 9.155 9.238 0 0 .009-.004.013-.004v.004h4.851z" opacity=".2"></path></g></svg>