<svg viewBox="0 0 50 50" class="fxs-portal-svg" role="presentation" focusable="false" xmlns:svg="http://www.w3.org/2000/svg" xmlns:xlink="http://www.w3.org/1999/xlink" id="FxSymbol0-04a" width="100%" height="100%"><g><title></title><path d="M42.744 50H7.256c-3.27 0-5.93-2.66-5.93-5.93v-9.863a1.562 1.562 0 1 1 3.126 0v9.863a2.81 2.81 0 0 0 2.805 2.805h35.489a2.81 2.81 0 0 0 2.805-2.805v-9.863a1.562 1.562 0 1 1 3.126 0v9.863A5.941 5.941 0 0 1 42.744 50z" class="msportalfx-svg-c03"></path><path d="M7.006 16.691h9.87v27.614h-9.87zm13.059 0h9.87v27.614h-9.87z" class="msportalfx-svg-c15"></path><path d="M33.125 16.691h9.869v27.614h-9.869zm-16.217-5.265C16.908 5.125 22.035 0 28.336 0S39.89 4.784 39.89 11.084a1.562 1.562 0 1 1-3.126 0c0-4.578-3.852-7.959-8.429-7.959s-8.302 3.723-8.302 8.301h-3.125z" class="msportalfx-svg-c13"></path><path d="M44.365 8.782l-6.166 6.166-6.166-6.166z" class="msportalfx-svg-c13"></path></g></svg>