<svg viewBox="0 0 50 50" focusable="false" xmlns:xlink="http://www.w3.org/1999/xlink" xmlns:svg="http://www.w3.org/2000/svg" class="fxs-portal-svg" role="presentation" id="FxSymbol0-079" width="100%" height="100%"><g><title></title><path class="msportalfx-svg-c03" d="M0 45.1c0 1 .8 1.9 1.8 1.9h46.3c1 0 1.9-.8 1.9-1.9V12H0v33.1z"></path><path class="msportalfx-svg-c04" d="M48.1 4.1H1.8C.8 4.1 0 5 0 6v6h50V6c0-1-.8-1.6-1.9-1.6"></path><path class="msportalfx-svg-c13" d="M4 25.5h42v7H4z"></path><path class="msportalfx-svg-c01" d="M4 15h42v7H4z"></path><path class="msportalfx-svg-c13" d="M4 36h42v7H4z"></path><path class="msportalfx-svg-c01" d="M2 4C.9 4 0 4.9 0 6v38.6c0 1.1.9 2 2 2h2.2L43.6 4H2z" opacity=".2"></path></g></svg>