<svg viewBox="0 0 13 16" class="msportalfx-svg-palette-blue" role="presentation" focusable="false" xmlns:svg="http://www.w3.org/2000/svg" xmlns:xlink="http://www.w3.org/1999/xlink" id="FxSymbol0-04c" data-type="219"><g><title></title><path d="M8.1 10.4A4.1 4.1 0 0 0 10 7a4 4 0 0 0-8 0 4.1 4.1 0 0 0 1.9 3.4A5.9 5.9 0 0 0 0 16h1a5 5 0 0 1 5-5 5 5 0 0 1 5 5h1a5.9 5.9 0 0 0-3.9-5.6zM3 7a2.9 2.9 0 0 1 3-3 2.9 2.9 0 0 1 3 3 2.9 2.9 0 0 1-3 3 2.9 2.9 0 0 1-3-3z"></path><path d="M13 7a6.8 6.8 0 0 0-7-7 6.2 6.2 0 0 0-6 5.3.5.5 0 0 0 .5.5.5.5 0 0 0 .5-.2A5.4 5.4 0 0 1 6 1a5.9 5.9 0 0 1 6 6v1H7.5a.5.5 0 0 0 0 1h5a.5.5 0 0 0 .5-.5z"></path></g></svg>