<?xml version="1.0" encoding="utf-8"?>
<!-- Generator: Adobe Illustrator 19.1.0, SVG Export Plug-In . SVG Version: 6.00 Build 0)  -->
<svg version="1.1" id="Layer_1" xmlns="http://www.w3.org/2000/svg" xmlns:xlink="http://www.w3.org/1999/xlink" x="0px" y="0px"
	 viewBox="0 0 50 50" enable-background="new 0 0 50 50" xml:space="preserve">
    <style type="text/css">
        .fill-color{ fill: #464f59; }
    </style>
<g>
	<path class="fill-color" d="M48.9,22.5c-0.7-6.7-4.1-12.4-8.9-16.3c-0.9-0.8-1.9-1.4-3-2l-1.9,3.6c0.8,0.5,1.6,1,2.3,1.6
		c4,3.3,6.8,8,7.4,13.5c0.6,5.5-1.1,10.6-4.3,14.6c-3.2,4-7.9,6.7-13.4,7.3c-3.7,0.4-7.2-0.3-10.3-1.7l-1.9,3.6
		c3.8,1.8,8.1,2.6,12.6,2.1c6.6-0.7,12.3-4,16.1-8.8C47.5,35.3,49.6,29.1,48.9,22.5"/>
	<path class="fill-color" d="M12.5,40.5c-4-3.2-6.7-7.9-7.3-13.4c-0.6-5.5,1.1-10.7,4.3-14.6c3.2-4,7.9-6.7,13.4-7.3
		c4.4-0.5,8.7,0.6,12.2,2.6L37,4.2c-4.2-2.5-9.3-3.6-14.5-3.1c-6.6,0.7-12.3,4-16.1,8.8l0,0c-3.9,4.8-5.9,11-5.2,17.6
		c0.7,6.6,4,12.3,8.8,16.1c1.5,1.2,3.2,2.3,5,3.1l1.9-3.6C15.2,42.4,13.8,41.5,12.5,40.5"/>
	<path class="fill-color" d="M35.1,31.3L25.9,28c-1-0.4-1.5-1.5-1.2-2.5c0.4-1,1.5-1.5,2.5-1.2l9.2,3.3c1,0.4,1.5,1.5,1.2,2.5
		C37.2,31.1,36.1,31.6,35.1,31.3z"/>
	<path class="fill-color" d="M24.8,27.7c-1.1,0-1.9-0.9-1.9-1.9V9.4c0-1.1,0.9-1.9,1.9-1.9c1.1,0,1.9,0.9,1.9,1.9v16.3
		C26.7,26.8,25.9,27.7,24.8,27.7z"/>
	<circle class="fill-color" cx="24.8" cy="25.7" r="2.8"/>
	
		<rect x="12.3" y="13.5" transform="matrix(-0.7071 -0.7071 0.7071 -0.7071 14.0282 33.8518)" class="fill-color" width="3.4" height="1.1"/>
	<rect x="24.4" y="7.8" class="fill-color" width="1.1" height="3.4"/>
	
		<rect x="35.3" y="12.4" transform="matrix(-0.7071 -0.7071 0.7071 -0.7071 51.2023 49.4686)" class="fill-color" width="1.1" height="3.4"/>
	<rect x="38.5" y="24.4" class="fill-color" width="3.4" height="1.1"/>
	
		<rect x="34" y="35.1" transform="matrix(-0.7071 -0.7071 0.7071 -0.7071 35.6938 86.1557)" class="fill-color" width="3.4" height="1.1"/>
	
		<rect x="34" y="35.1" transform="matrix(-0.7071 -0.7071 0.7071 -0.7071 35.6938 86.1557)" class="fill-color" width="3.4" height="1.1"/>
	<rect x="24.4" y="38.4" class="fill-color" width="1.1" height="3.4"/>
	
		<rect x="12.3" y="13.5" transform="matrix(-0.7071 -0.7071 0.7071 -0.7071 14.0282 33.8518)" class="fill-color" width="3.4" height="1.1"/>
	
		<rect x="13.6" y="34.1" transform="matrix(-0.7071 -0.7071 0.7071 -0.7071 -1.0764 71.1247)" class="fill-color" width="1.1" height="3.4"/>
	
		<rect x="13.6" y="34.1" transform="matrix(-0.7071 -0.7071 0.7071 -0.7071 -1.0764 71.1247)" class="fill-color" width="1.1" height="3.4"/>
	<rect x="7.9" y="24.4" class="fill-color" width="3.4" height="1.1"/>
</g>
</svg>
