<?xml version="1.0" encoding="UTF-8"?>
<svg viewBox="0 0 50 50" focusable="false" 
  xmlns:xlink="http://www.w3.org/1999/xlink" 
  xmlns:svg="http://www.w3.org/2000/svg" 
  xmlns="http://www.w3.org/2000/svg" class="fxs-portal-svg" role="presentation" id="FxSymbol0-033" width="100%" height="100%">
  <g>
    <title></title>
    <path d="M41.2 11.2l.5.5 2.5-2.1 4.2-6.9-1.1-1.1L40.7 6l-2 2.6.5.5-13.1 13.5-2.7-2.8-3 3.1c.2 1.5-.3 3.1-1.4 4.3s-2.7 1.7-4.1 1.5L1.6 42.3 9 50l13.2-13.7c-.2-1.5.3-3.1 1.5-4.3 1.1-1.2 2.7-1.7 4.1-1.5l3-3.1-2.7-2.8 13.1-13.4z"></path>
    <path d="M40 46c1.9 2 5 2 6.9 0 1-1 1.4-2.3 1.4-3.6 0-1.3-.5-2.6-1.4-3.6L32.1 23.6l-1.4 1.5 2.7 2.8-1.2 1.1-3 3.1-.4.4-.6-.1c-.4 0-.9 0-1.3.1L40 46zM20.3 3.1C17.6.3 13.7-.6 10.3.3l5.9 6-1.5 5.9-5.8 1.6-5.8-6c-.9 3.6 0 7.5 2.7 10.3 2.7 2.8 6.6 3.7 10.1 2.7l.2.2 2.7 2.8c.1-.3.1-.6.1-.9v-.5l-.2-.4 4.5-4.7.8.9 1.8 1.9 1.4-1.5-4.3-4.6c1.1-3.7.3-7.9-2.6-10.9z"></path>
  </g>
</svg>