<?xml version="1.0" encoding="utf-8"?>
<!-- Generator: Adobe Illustrator 22.1.0, SVG Export Plug-In . SVG Version: 6.00 Build 0)  -->
<svg version="1.1" id="Layer_1" xmlns="http://www.w3.org/2000/svg" xmlns:xlink="http://www.w3.org/1999/xlink" x="0px" y="0px"
	 viewBox="0 0 49 50" style="enable-background:new 0 0 49 50;" xml:space="preserve">
<style type="text/css">
	.st0{fill:#FFFFFF;}
</style>
<path class="st0" d="M12.6,24.1l11.2,11.2l6.7-2.9V10.5l-6.7-2.9L12.6,18.7l-6.7-5.1l-2.8,0.9v13.6L5.9,29
	C5.8,29.1,12.6,24.1,12.6,24.1z M23.9,15.7v11.6l-7.8-5.8C16.1,21.5,23.9,15.7,23.9,15.7z M5.8,17.3l4.1,4l-4.1,4.1L5.8,17.3
	L5.8,17.3z M49,5.6v38.7l-12.3,5.2L0,38.3v-1.2l36.8,3.2V0.5L49,5.6L49,5.6z"/>
</svg>
