<svg
    xmlns="http://www.w3.org/2000/svg"
    xmlns:xlink="http://www.w3.org/1999/xlink" viewBox="15 15 40 40">
    <defs>
        <linearGradient id="a" x1="35" y1="226.898" x2="35" y2="187.104" gradientTransform="matrix(1, 0, 0, -1, 0, 242)" gradientUnits="userSpaceOnUse">
            <stop offset="0" stop-color="#fff"/>
            <stop offset="1" stop-color="#fff" stop-opacity="0"/>
        </linearGradient>
    </defs>
    <title>BrandVisualStudioWin2019.70x70</title>
    <g style="isolation:isolate">
        <path d="M55,15V55H15V15Z" fill="#f6f6f6" opacity="0"/>
        <path d="M20.779,46.415a1.668,1.668,0,0,1-1.726.273l-3.027-1.262A1.666,1.666,0,0,1,15,43.888V26.11a1.666,1.666,0,0,1,1.026-1.538l3.027-1.262a1.668,1.668,0,0,1,1.726.273l.679.583a.922.922,0,0,0-1.458.75V45.082a.922.922,0,0,0,1.458.75Z" fill="#52218a"/>
        <path d="M16.026,45.426A1.666,1.666,0,0,1,15,43.888v-.139a.963.963,0,0,0,1.677.646L42.5,15.832a2.494,2.494,0,0,1,2.843-.483l8.242,3.969A2.5,2.5,0,0,1,55,21.57v.1a1.578,1.578,0,0,0-2.578-1.22L21.458,45.832l-.679.583a1.668,1.668,0,0,1-1.726.273Z" fill="#6c33af"/>
        <path d="M16.026,24.572A1.666,1.666,0,0,0,15,26.11v.139a.963.963,0,0,1,1.677-.646L42.5,54.166a2.494,2.494,0,0,0,2.843.483l8.242-3.968A2.5,2.5,0,0,0,55,48.428v-.1a1.578,1.578,0,0,1-2.578,1.22L21.458,24.166l-.679-.583a1.668,1.668,0,0,0-1.726-.273Z" fill="#854cc7"/>
        <path d="M45.343,54.65a2.5,2.5,0,0,1-2.843-.484A1.465,1.465,0,0,0,45,53.13V16.868a1.465,1.465,0,0,0-2.5-1.036,2.5,2.5,0,0,1,2.843-.484l8.241,3.963A2.5,2.5,0,0,1,55,21.564v26.87a2.5,2.5,0,0,1-1.417,2.253Z" fill="#b179f1"/>
        <path d="M43.7,54.832a2.49,2.49,0,0,0,1.639-.182l8.24-3.963A2.5,2.5,0,0,0,55,48.434V21.564a2.5,2.5,0,0,0-1.417-2.253l-8.24-3.963a2.493,2.493,0,0,0-2.843.484L29.216,30.526l-7.758-6.36-.679-.583a1.666,1.666,0,0,0-1.5-.347,1.686,1.686,0,0,0-.221.074l-3.027,1.262a1.663,1.663,0,0,0-1.021,1.413c0,.041-.005.083-.005.125V43.888c0,.042,0,.084.005.125a1.663,1.663,0,0,0,1.021,1.413l3.027,1.262a1.686,1.686,0,0,0,.221.074,1.666,1.666,0,0,0,1.5-.347l.679-.583,7.758-6.36L42.5,54.166A2.483,2.483,0,0,0,43.7,54.832Zm1.3-28.3L34.672,35,45,43.467ZM20,29.279,25.171,35,20,40.719Z" fill-rule="evenodd" opacity="0.25" fill="url(#a)" style="mix-blend-mode:overlay"/>
    </g>
</svg>