<?xml version="1.0" encoding="UTF-8"?>
<svg viewBox="-778 992 18 18" role="presentation" focusable="false" width="100%" height="100%">
    <g>
        <title></title>
        <path d="M-764.2 993.5c.1.8.4 1.4.8 1.9.4.4 1.1.7 1.9.8 1.1-2.4 1.5-4.2 1.5-4.2s-1.8.4-4.2 1.5zm-1.2.7c-1.3.7-2.6 1.7-3.8 2.9-.8.8-1.4 1.6-1.9 2.3l-3.2.6-3.7 3.7 3.3.1 2.3-2.3c-.8 1.7-.9 2.8-.9 2.8l1 1s1.2-.1 2.9-.9l-2.4 2.4.1 3.3 3.7-3.7.6-3.2c.7-.5 1.5-1.1 2.3-1.9 1.2-1.2 2.2-2.6 2.9-3.8-.8-.2-1.5-.5-2.1-1.1-.6-.7-.9-1.4-1.1-2.2z"></path>
    </g>
</svg>